%TF.GenerationSoftware,KiCad,Pcbnew,(5.1.10)-1*%
%TF.CreationDate,2021-10-19T20:43:56-03:00*%
%TF.ProjectId,placa_controle,706c6163-615f-4636-9f6e-74726f6c652e,rev?*%
%TF.SameCoordinates,Original*%
%TF.FileFunction,Copper,L2,Bot*%
%TF.FilePolarity,Positive*%
%FSLAX46Y46*%
G04 Gerber Fmt 4.6, Leading zero omitted, Abs format (unit mm)*
G04 Created by KiCad (PCBNEW (5.1.10)-1) date 2021-10-19 20:43:56*
%MOMM*%
%LPD*%
G01*
G04 APERTURE LIST*
%TA.AperFunction,NonConductor*%
%ADD10C,0.300000*%
%TD*%
%TA.AperFunction,NonConductor*%
%ADD11C,0.750000*%
%TD*%
%TA.AperFunction,ComponentPad*%
%ADD12O,1.700000X1.700000*%
%TD*%
%TA.AperFunction,ComponentPad*%
%ADD13R,1.700000X1.700000*%
%TD*%
%TA.AperFunction,ComponentPad*%
%ADD14O,1.600000X1.600000*%
%TD*%
%TA.AperFunction,ComponentPad*%
%ADD15C,1.600000*%
%TD*%
%TA.AperFunction,ComponentPad*%
%ADD16C,3.000000*%
%TD*%
%TA.AperFunction,ComponentPad*%
%ADD17R,3.000000X3.000000*%
%TD*%
%TA.AperFunction,ComponentPad*%
%ADD18R,1.358000X1.358000*%
%TD*%
%TA.AperFunction,ComponentPad*%
%ADD19C,1.358000*%
%TD*%
%TA.AperFunction,Conductor*%
%ADD20C,1.016000*%
%TD*%
%TA.AperFunction,Conductor*%
%ADD21C,0.254000*%
%TD*%
%TA.AperFunction,Conductor*%
%ADD22C,0.100000*%
%TD*%
G04 APERTURE END LIST*
D10*
X145601428Y-162113571D02*
X144101428Y-161613571D01*
X145601428Y-161113571D01*
X144101428Y-160613571D02*
X145601428Y-160613571D01*
X145601428Y-160113571D02*
X145601428Y-159256428D01*
X144101428Y-159685000D02*
X145601428Y-159685000D01*
X145601428Y-158470714D02*
X145601428Y-158185000D01*
X145530000Y-158042142D01*
X145387142Y-157899285D01*
X145101428Y-157827857D01*
X144601428Y-157827857D01*
X144315714Y-157899285D01*
X144172857Y-158042142D01*
X144101428Y-158185000D01*
X144101428Y-158470714D01*
X144172857Y-158613571D01*
X144315714Y-158756428D01*
X144601428Y-158827857D01*
X145101428Y-158827857D01*
X145387142Y-158756428D01*
X145530000Y-158613571D01*
X145601428Y-158470714D01*
X144101428Y-156327857D02*
X144815714Y-156827857D01*
X144101428Y-157185000D02*
X145601428Y-157185000D01*
X145601428Y-156613571D01*
X145530000Y-156470714D01*
X145458571Y-156399285D01*
X145315714Y-156327857D01*
X145101428Y-156327857D01*
X144958571Y-156399285D01*
X144887142Y-156470714D01*
X144815714Y-156613571D01*
X144815714Y-157185000D01*
X144101428Y-154542142D02*
X145601428Y-154542142D01*
X145601428Y-153970714D01*
X145530000Y-153827857D01*
X145458571Y-153756428D01*
X145315714Y-153685000D01*
X145101428Y-153685000D01*
X144958571Y-153756428D01*
X144887142Y-153827857D01*
X144815714Y-153970714D01*
X144815714Y-154542142D01*
X144530000Y-153113571D02*
X144530000Y-152399285D01*
X144101428Y-153256428D02*
X145601428Y-152756428D01*
X144101428Y-152256428D01*
X144101428Y-151042142D02*
X144101428Y-151756428D01*
X145601428Y-151756428D01*
X144101428Y-150542142D02*
X145601428Y-150542142D01*
X144530000Y-150042142D01*
X145601428Y-149542142D01*
X144101428Y-149542142D01*
X144530000Y-148899285D02*
X144530000Y-148185000D01*
X144101428Y-149042142D02*
X145601428Y-148542142D01*
X144101428Y-148042142D01*
X144101428Y-146685000D02*
X144815714Y-147185000D01*
X144101428Y-147542142D02*
X145601428Y-147542142D01*
X145601428Y-146970714D01*
X145530000Y-146827857D01*
X145458571Y-146756428D01*
X145315714Y-146685000D01*
X145101428Y-146685000D01*
X144958571Y-146756428D01*
X144887142Y-146827857D01*
X144815714Y-146970714D01*
X144815714Y-147542142D01*
X144101428Y-146042142D02*
X145601428Y-146042142D01*
X144101428Y-145327857D02*
X145601428Y-145327857D01*
X144101428Y-144470714D01*
X145601428Y-144470714D01*
X145601428Y-142327857D02*
X145601428Y-142042142D01*
X145530000Y-141899285D01*
X145387142Y-141756428D01*
X145101428Y-141685000D01*
X144601428Y-141685000D01*
X144315714Y-141756428D01*
X144172857Y-141899285D01*
X144101428Y-142042142D01*
X144101428Y-142327857D01*
X144172857Y-142470714D01*
X144315714Y-142613571D01*
X144601428Y-142685000D01*
X145101428Y-142685000D01*
X145387142Y-142613571D01*
X145530000Y-142470714D01*
X145601428Y-142327857D01*
X144244285Y-141042142D02*
X144172857Y-140970714D01*
X144101428Y-141042142D01*
X144172857Y-141113571D01*
X144244285Y-141042142D01*
X144101428Y-141042142D01*
X144172857Y-139256428D02*
X144101428Y-139042142D01*
X144101428Y-138685000D01*
X144172857Y-138542142D01*
X144244285Y-138470714D01*
X144387142Y-138399285D01*
X144530000Y-138399285D01*
X144672857Y-138470714D01*
X144744285Y-138542142D01*
X144815714Y-138685000D01*
X144887142Y-138970714D01*
X144958571Y-139113571D01*
X145030000Y-139185000D01*
X145172857Y-139256428D01*
X145315714Y-139256428D01*
X145458571Y-139185000D01*
X145530000Y-139113571D01*
X145601428Y-138970714D01*
X145601428Y-138613571D01*
X145530000Y-138399285D01*
X144530000Y-137827857D02*
X144530000Y-137113571D01*
X144101428Y-137970714D02*
X145601428Y-137470714D01*
X144101428Y-136970714D01*
X144101428Y-136470714D02*
X145601428Y-136470714D01*
X144101428Y-135613571D01*
X145601428Y-135613571D01*
X145601428Y-135113571D02*
X145601428Y-134256428D01*
X144101428Y-134685000D02*
X145601428Y-134685000D01*
X145601428Y-133470714D02*
X145601428Y-133185000D01*
X145530000Y-133042142D01*
X145387142Y-132899285D01*
X145101428Y-132827857D01*
X144601428Y-132827857D01*
X144315714Y-132899285D01*
X144172857Y-133042142D01*
X144101428Y-133185000D01*
X144101428Y-133470714D01*
X144172857Y-133613571D01*
X144315714Y-133756428D01*
X144601428Y-133827857D01*
X145101428Y-133827857D01*
X145387142Y-133756428D01*
X145530000Y-133613571D01*
X145601428Y-133470714D01*
X144172857Y-132256428D02*
X144101428Y-132042142D01*
X144101428Y-131685000D01*
X144172857Y-131542142D01*
X144244285Y-131470714D01*
X144387142Y-131399285D01*
X144530000Y-131399285D01*
X144672857Y-131470714D01*
X144744285Y-131542142D01*
X144815714Y-131685000D01*
X144887142Y-131970714D01*
X144958571Y-132113571D01*
X145030000Y-132185000D01*
X145172857Y-132256428D01*
X145315714Y-132256428D01*
X145458571Y-132185000D01*
X145530000Y-132113571D01*
X145601428Y-131970714D01*
X145601428Y-131613571D01*
X145530000Y-131399285D01*
D11*
X142116428Y-46442142D02*
X142116428Y-43442142D01*
X140973571Y-43442142D01*
X140687857Y-43585000D01*
X140545000Y-43727857D01*
X140402142Y-44013571D01*
X140402142Y-44442142D01*
X140545000Y-44727857D01*
X140687857Y-44870714D01*
X140973571Y-45013571D01*
X142116428Y-45013571D01*
X139259285Y-45585000D02*
X137830714Y-45585000D01*
X139545000Y-46442142D02*
X138545000Y-43442142D01*
X137545000Y-46442142D01*
X134830714Y-46442142D02*
X135830714Y-45013571D01*
X136545000Y-46442142D02*
X136545000Y-43442142D01*
X135402142Y-43442142D01*
X135116428Y-43585000D01*
X134973571Y-43727857D01*
X134830714Y-44013571D01*
X134830714Y-44442142D01*
X134973571Y-44727857D01*
X135116428Y-44870714D01*
X135402142Y-45013571D01*
X136545000Y-45013571D01*
X133687857Y-45585000D02*
X132259285Y-45585000D01*
X133973571Y-46442142D02*
X132973571Y-43442142D01*
X131973571Y-46442142D01*
X129116428Y-43442142D02*
X128116428Y-46442142D01*
X127116428Y-43442142D01*
X126259285Y-45585000D02*
X124830714Y-45585000D01*
X126545000Y-46442142D02*
X125545000Y-43442142D01*
X124545000Y-46442142D01*
X121973571Y-43585000D02*
X122259285Y-43442142D01*
X122687857Y-43442142D01*
X123116428Y-43585000D01*
X123402142Y-43870714D01*
X123545000Y-44156428D01*
X123687857Y-44727857D01*
X123687857Y-45156428D01*
X123545000Y-45727857D01*
X123402142Y-46013571D01*
X123116428Y-46299285D01*
X122687857Y-46442142D01*
X122402142Y-46442142D01*
X121973571Y-46299285D01*
X121830714Y-46156428D01*
X121830714Y-45156428D01*
X122402142Y-45156428D01*
X119973571Y-43442142D02*
X119402142Y-43442142D01*
X119116428Y-43585000D01*
X118830714Y-43870714D01*
X118687857Y-44442142D01*
X118687857Y-45442142D01*
X118830714Y-46013571D01*
X119116428Y-46299285D01*
X119402142Y-46442142D01*
X119973571Y-46442142D01*
X120259285Y-46299285D01*
X120545000Y-46013571D01*
X120687857Y-45442142D01*
X120687857Y-44442142D01*
X120545000Y-43870714D01*
X120259285Y-43585000D01*
X119973571Y-43442142D01*
X120402142Y-42727857D02*
X120259285Y-42585000D01*
X119973571Y-42442142D01*
X119402142Y-42727857D01*
X119116428Y-42585000D01*
X118973571Y-42442142D01*
X117402142Y-44870714D02*
X116402142Y-44870714D01*
X115973571Y-46442142D02*
X117402142Y-46442142D01*
X117402142Y-43442142D01*
X115973571Y-43442142D01*
X114830714Y-46299285D02*
X114402142Y-46442142D01*
X113687857Y-46442142D01*
X113402142Y-46299285D01*
X113259285Y-46156428D01*
X113116428Y-45870714D01*
X113116428Y-45585000D01*
X113259285Y-45299285D01*
X113402142Y-45156428D01*
X113687857Y-45013571D01*
X114259285Y-44870714D01*
X114545000Y-44727857D01*
X114687857Y-44585000D01*
X114830714Y-44299285D01*
X114830714Y-44013571D01*
X114687857Y-43727857D01*
X114545000Y-43585000D01*
X114259285Y-43442142D01*
X113545000Y-43442142D01*
X113116428Y-43585000D01*
X109545000Y-46442142D02*
X109545000Y-43442142D01*
X108830714Y-43442142D01*
X108402142Y-43585000D01*
X108116428Y-43870714D01*
X107973571Y-44156428D01*
X107830714Y-44727857D01*
X107830714Y-45156428D01*
X107973571Y-45727857D01*
X108116428Y-46013571D01*
X108402142Y-46299285D01*
X108830714Y-46442142D01*
X109545000Y-46442142D01*
X105973571Y-43442142D02*
X105402142Y-43442142D01*
X105116428Y-43585000D01*
X104830714Y-43870714D01*
X104687857Y-44442142D01*
X104687857Y-45442142D01*
X104830714Y-46013571D01*
X105116428Y-46299285D01*
X105402142Y-46442142D01*
X105973571Y-46442142D01*
X106259285Y-46299285D01*
X106545000Y-46013571D01*
X106687857Y-45442142D01*
X106687857Y-44442142D01*
X106545000Y-43870714D01*
X106259285Y-43585000D01*
X105973571Y-43442142D01*
X101545000Y-43442142D02*
X99830714Y-43442142D01*
X100687857Y-46442142D02*
X100687857Y-43442142D01*
X98830714Y-46442142D02*
X98830714Y-43442142D01*
X97402142Y-46442142D02*
X97402142Y-43442142D01*
X96259285Y-43442142D01*
X95973571Y-43585000D01*
X95830714Y-43727857D01*
X95687857Y-44013571D01*
X95687857Y-44442142D01*
X95830714Y-44727857D01*
X95973571Y-44870714D01*
X96259285Y-45013571D01*
X97402142Y-45013571D01*
X93830714Y-43442142D02*
X93259285Y-43442142D01*
X92973571Y-43585000D01*
X92687857Y-43870714D01*
X92545000Y-44442142D01*
X92545000Y-45442142D01*
X92687857Y-46013571D01*
X92973571Y-46299285D01*
X93259285Y-46442142D01*
X93830714Y-46442142D01*
X94116428Y-46299285D01*
X94402142Y-46013571D01*
X94545000Y-45442142D01*
X94545000Y-44442142D01*
X94402142Y-43870714D01*
X94116428Y-43585000D01*
X93830714Y-43442142D01*
X87402142Y-43585000D02*
X87687857Y-43442142D01*
X88116428Y-43442142D01*
X88545000Y-43585000D01*
X88830714Y-43870714D01*
X88973571Y-44156428D01*
X89116428Y-44727857D01*
X89116428Y-45156428D01*
X88973571Y-45727857D01*
X88830714Y-46013571D01*
X88545000Y-46299285D01*
X88116428Y-46442142D01*
X87830714Y-46442142D01*
X87402142Y-46299285D01*
X87259285Y-46156428D01*
X87259285Y-45156428D01*
X87830714Y-45156428D01*
X85402142Y-43442142D02*
X84830714Y-43442142D01*
X84545000Y-43585000D01*
X84259285Y-43870714D01*
X84116428Y-44442142D01*
X84116428Y-45442142D01*
X84259285Y-46013571D01*
X84545000Y-46299285D01*
X84830714Y-46442142D01*
X85402142Y-46442142D01*
X85687857Y-46299285D01*
X85973571Y-46013571D01*
X86116428Y-45442142D01*
X86116428Y-44442142D01*
X85973571Y-43870714D01*
X85687857Y-43585000D01*
X85402142Y-43442142D01*
X85687857Y-42727857D02*
X85116428Y-42299285D01*
X84545000Y-42727857D01*
X82830714Y-46442142D02*
X82830714Y-43442142D01*
X81116428Y-46442142D01*
X81116428Y-43442142D01*
X79687857Y-46442142D02*
X79687857Y-43442142D01*
X78973571Y-43442142D01*
X78545000Y-43585000D01*
X78259285Y-43870714D01*
X78116428Y-44156428D01*
X77973571Y-44727857D01*
X77973571Y-45156428D01*
X78116428Y-45727857D01*
X78259285Y-46013571D01*
X78545000Y-46299285D01*
X78973571Y-46442142D01*
X79687857Y-46442142D01*
X76116428Y-43442142D02*
X75545000Y-43442142D01*
X75259285Y-43585000D01*
X74973571Y-43870714D01*
X74830714Y-44442142D01*
X74830714Y-45442142D01*
X74973571Y-46013571D01*
X75259285Y-46299285D01*
X75545000Y-46442142D01*
X76116428Y-46442142D01*
X76402142Y-46299285D01*
X76687857Y-46013571D01*
X76830714Y-45442142D01*
X76830714Y-44442142D01*
X76687857Y-43870714D01*
X76402142Y-43585000D01*
X76116428Y-43442142D01*
X72116428Y-46442142D02*
X73545000Y-46442142D01*
X73545000Y-43442142D01*
X71259285Y-45585000D02*
X69830714Y-45585000D01*
X71545000Y-46442142D02*
X70545000Y-43442142D01*
X69545000Y-46442142D01*
X142401428Y-39790714D02*
X141401428Y-39790714D01*
X140972857Y-41362142D02*
X142401428Y-41362142D01*
X142401428Y-38362142D01*
X140972857Y-38362142D01*
X139830000Y-41219285D02*
X139401428Y-41362142D01*
X138687142Y-41362142D01*
X138401428Y-41219285D01*
X138258571Y-41076428D01*
X138115714Y-40790714D01*
X138115714Y-40505000D01*
X138258571Y-40219285D01*
X138401428Y-40076428D01*
X138687142Y-39933571D01*
X139258571Y-39790714D01*
X139544285Y-39647857D01*
X139687142Y-39505000D01*
X139830000Y-39219285D01*
X139830000Y-38933571D01*
X139687142Y-38647857D01*
X139544285Y-38505000D01*
X139258571Y-38362142D01*
X138544285Y-38362142D01*
X138115714Y-38505000D01*
X137258571Y-38362142D02*
X135544285Y-38362142D01*
X136401428Y-41362142D02*
X136401428Y-38362142D01*
X134544285Y-38362142D02*
X134544285Y-40790714D01*
X134401428Y-41076428D01*
X134258571Y-41219285D01*
X133972857Y-41362142D01*
X133401428Y-41362142D01*
X133115714Y-41219285D01*
X132972857Y-41076428D01*
X132830000Y-40790714D01*
X132830000Y-38362142D01*
X131401428Y-41362142D02*
X131401428Y-38362142D01*
X130687142Y-38362142D01*
X130258571Y-38505000D01*
X129972857Y-38790714D01*
X129830000Y-39076428D01*
X129687142Y-39647857D01*
X129687142Y-40076428D01*
X129830000Y-40647857D01*
X129972857Y-40933571D01*
X130258571Y-41219285D01*
X130687142Y-41362142D01*
X131401428Y-41362142D01*
X127830000Y-38362142D02*
X127258571Y-38362142D01*
X126972857Y-38505000D01*
X126687142Y-38790714D01*
X126544285Y-39362142D01*
X126544285Y-40362142D01*
X126687142Y-40933571D01*
X126972857Y-41219285D01*
X127258571Y-41362142D01*
X127830000Y-41362142D01*
X128115714Y-41219285D01*
X128401428Y-40933571D01*
X128544285Y-40362142D01*
X128544285Y-39362142D01*
X128401428Y-38790714D01*
X128115714Y-38505000D01*
X127830000Y-38362142D01*
X122972857Y-41362142D02*
X122972857Y-38362142D01*
X122258571Y-38362142D01*
X121830000Y-38505000D01*
X121544285Y-38790714D01*
X121401428Y-39076428D01*
X121258571Y-39647857D01*
X121258571Y-40076428D01*
X121401428Y-40647857D01*
X121544285Y-40933571D01*
X121830000Y-41219285D01*
X122258571Y-41362142D01*
X122972857Y-41362142D01*
X119401428Y-38362142D02*
X118830000Y-38362142D01*
X118544285Y-38505000D01*
X118258571Y-38790714D01*
X118115714Y-39362142D01*
X118115714Y-40362142D01*
X118258571Y-40933571D01*
X118544285Y-41219285D01*
X118830000Y-41362142D01*
X119401428Y-41362142D01*
X119687142Y-41219285D01*
X119972857Y-40933571D01*
X120115714Y-40362142D01*
X120115714Y-39362142D01*
X119972857Y-38790714D01*
X119687142Y-38505000D01*
X119401428Y-38362142D01*
X116972857Y-41219285D02*
X116544285Y-41362142D01*
X115830000Y-41362142D01*
X115544285Y-41219285D01*
X115401428Y-41076428D01*
X115258571Y-40790714D01*
X115258571Y-40505000D01*
X115401428Y-40219285D01*
X115544285Y-40076428D01*
X115830000Y-39933571D01*
X116401428Y-39790714D01*
X116687142Y-39647857D01*
X116830000Y-39505000D01*
X116972857Y-39219285D01*
X116972857Y-38933571D01*
X116830000Y-38647857D01*
X116687142Y-38505000D01*
X116401428Y-38362142D01*
X115687142Y-38362142D01*
X115258571Y-38505000D01*
X111830000Y-41219285D02*
X111401428Y-41362142D01*
X110687142Y-41362142D01*
X110401428Y-41219285D01*
X110258571Y-41076428D01*
X110115714Y-40790714D01*
X110115714Y-40505000D01*
X110258571Y-40219285D01*
X110401428Y-40076428D01*
X110687142Y-39933571D01*
X111258571Y-39790714D01*
X111544285Y-39647857D01*
X111687142Y-39505000D01*
X111830000Y-39219285D01*
X111830000Y-38933571D01*
X111687142Y-38647857D01*
X111544285Y-38505000D01*
X111258571Y-38362142D01*
X110544285Y-38362142D01*
X110115714Y-38505000D01*
X108830000Y-41362142D02*
X108830000Y-38362142D01*
X107544285Y-41219285D02*
X107115714Y-41362142D01*
X106401428Y-41362142D01*
X106115714Y-41219285D01*
X105972857Y-41076428D01*
X105830000Y-40790714D01*
X105830000Y-40505000D01*
X105972857Y-40219285D01*
X106115714Y-40076428D01*
X106401428Y-39933571D01*
X106972857Y-39790714D01*
X107258571Y-39647857D01*
X107401428Y-39505000D01*
X107544285Y-39219285D01*
X107544285Y-38933571D01*
X107401428Y-38647857D01*
X107258571Y-38505000D01*
X106972857Y-38362142D01*
X106258571Y-38362142D01*
X105830000Y-38505000D01*
X104972857Y-38362142D02*
X103258571Y-38362142D01*
X104115714Y-41362142D02*
X104115714Y-38362142D01*
X102258571Y-39790714D02*
X101258571Y-39790714D01*
X100830000Y-41362142D02*
X102258571Y-41362142D01*
X102258571Y-38362142D01*
X100830000Y-38362142D01*
X99544285Y-41362142D02*
X99544285Y-38362142D01*
X98544285Y-40505000D01*
X97544285Y-38362142D01*
X97544285Y-41362142D01*
X96258571Y-40505000D02*
X94830000Y-40505000D01*
X96544285Y-41362142D02*
X95544285Y-38362142D01*
X94544285Y-41362142D01*
X93687142Y-41219285D02*
X93258571Y-41362142D01*
X92544285Y-41362142D01*
X92258571Y-41219285D01*
X92115714Y-41076428D01*
X91972857Y-40790714D01*
X91972857Y-40505000D01*
X92115714Y-40219285D01*
X92258571Y-40076428D01*
X92544285Y-39933571D01*
X93115714Y-39790714D01*
X93401428Y-39647857D01*
X93544285Y-39505000D01*
X93687142Y-39219285D01*
X93687142Y-38933571D01*
X93544285Y-38647857D01*
X93401428Y-38505000D01*
X93115714Y-38362142D01*
X92401428Y-38362142D01*
X91972857Y-38505000D01*
X88401428Y-41362142D02*
X88401428Y-38362142D01*
X87687142Y-38362142D01*
X87258571Y-38505000D01*
X86972857Y-38790714D01*
X86830000Y-39076428D01*
X86687142Y-39647857D01*
X86687142Y-40076428D01*
X86830000Y-40647857D01*
X86972857Y-40933571D01*
X87258571Y-41219285D01*
X87687142Y-41362142D01*
X88401428Y-41362142D01*
X85401428Y-39790714D02*
X84401428Y-39790714D01*
X83972857Y-41362142D02*
X85401428Y-41362142D01*
X85401428Y-38362142D01*
X83972857Y-38362142D01*
X80401428Y-41362142D02*
X80401428Y-38362142D01*
X79687142Y-38362142D01*
X79258571Y-38505000D01*
X78972857Y-38790714D01*
X78830000Y-39076428D01*
X78687142Y-39647857D01*
X78687142Y-40076428D01*
X78830000Y-40647857D01*
X78972857Y-40933571D01*
X79258571Y-41219285D01*
X79687142Y-41362142D01*
X80401428Y-41362142D01*
X75687142Y-41362142D02*
X76687142Y-39933571D01*
X77401428Y-41362142D02*
X77401428Y-38362142D01*
X76258571Y-38362142D01*
X75972857Y-38505000D01*
X75830000Y-38647857D01*
X75687142Y-38933571D01*
X75687142Y-39362142D01*
X75830000Y-39647857D01*
X75972857Y-39790714D01*
X76258571Y-39933571D01*
X77401428Y-39933571D01*
X74401428Y-39790714D02*
X73401428Y-39790714D01*
X72972857Y-41362142D02*
X74401428Y-41362142D01*
X74401428Y-38362142D01*
X72972857Y-38362142D01*
X71687142Y-41362142D02*
X71687142Y-38362142D01*
X69972857Y-41362142D01*
X69972857Y-38362142D01*
X68687142Y-40505000D02*
X67258571Y-40505000D01*
X68972857Y-41362142D02*
X67972857Y-38362142D01*
X66972857Y-41362142D01*
X64401428Y-38505000D02*
X64687142Y-38362142D01*
X65115714Y-38362142D01*
X65544285Y-38505000D01*
X65830000Y-38790714D01*
X65972857Y-39076428D01*
X66115714Y-39647857D01*
X66115714Y-40076428D01*
X65972857Y-40647857D01*
X65830000Y-40933571D01*
X65544285Y-41219285D01*
X65115714Y-41362142D01*
X64830000Y-41362142D01*
X64401428Y-41219285D01*
X64258571Y-41076428D01*
X64258571Y-40076428D01*
X64830000Y-40076428D01*
X62972857Y-39790714D02*
X61972857Y-39790714D01*
X61544285Y-41362142D02*
X62972857Y-41362142D01*
X62972857Y-38362142D01*
X61544285Y-38362142D01*
X60258571Y-41362142D02*
X60258571Y-38362142D01*
X59258571Y-40505000D01*
X58258571Y-38362142D01*
X58258571Y-41362142D01*
D12*
%TO.P,J9,4*%
%TO.N,/SDA*%
X139065000Y-59690000D03*
%TO.P,J9,3*%
%TO.N,/SCL*%
X139065000Y-57150000D03*
%TO.P,J9,2*%
%TO.N,+5V*%
X139065000Y-54610000D03*
D13*
%TO.P,J9,1*%
%TO.N,GND*%
X139065000Y-52070000D03*
%TD*%
D12*
%TO.P,J4,2*%
%TO.N,GND*%
X113665000Y-152400000D03*
D13*
%TO.P,J4,1*%
%TO.N,Net-(J4-Pad1)*%
X113665000Y-154940000D03*
%TD*%
D12*
%TO.P,J3,2*%
%TO.N,GND*%
X137795000Y-102870000D03*
D13*
%TO.P,J3,1*%
%TO.N,Net-(J3-Pad1)*%
X137795000Y-105410000D03*
%TD*%
D12*
%TO.P,J2,2*%
%TO.N,GND*%
X137795000Y-115570000D03*
D13*
%TO.P,J2,1*%
%TO.N,Net-(J2-Pad1)*%
X137795000Y-118110000D03*
%TD*%
D12*
%TO.P,U2,6*%
%TO.N,/CS*%
X121920000Y-153670000D03*
%TO.P,U2,5*%
%TO.N,/SCK*%
X124460000Y-153670000D03*
%TO.P,U2,4*%
%TO.N,/MOSI*%
X127000000Y-153670000D03*
%TO.P,U2,3*%
%TO.N,/MISO*%
X129540000Y-153670000D03*
%TO.P,U2,2*%
%TO.N,+5V*%
X132080000Y-153670000D03*
D13*
%TO.P,U2,1*%
%TO.N,GND*%
X134620000Y-153670000D03*
%TD*%
D14*
%TO.P,R4,2*%
%TO.N,/chave*%
X98425000Y-154940000D03*
D15*
%TO.P,R4,1*%
%TO.N,Net-(J4-Pad1)*%
X108585000Y-154940000D03*
%TD*%
D14*
%TO.P,R3,2*%
%TO.N,/chave*%
X83820000Y-154940000D03*
D15*
%TO.P,R3,1*%
%TO.N,GND*%
X73660000Y-154940000D03*
%TD*%
D14*
%TO.P,R2,2*%
%TO.N,/ledCode*%
X107950000Y-92710000D03*
D15*
%TO.P,R2,1*%
%TO.N,Net-(J3-Pad1)*%
X118110000Y-92710000D03*
%TD*%
D14*
%TO.P,R1,2*%
%TO.N,/ledSD*%
X107950000Y-115570000D03*
D15*
%TO.P,R1,1*%
%TO.N,Net-(J2-Pad1)*%
X118110000Y-115570000D03*
%TD*%
D16*
%TO.P,J8,4*%
%TO.N,GND*%
X66040000Y-68740000D03*
%TO.P,J8,3*%
%TO.N,/triggerTres*%
X66040000Y-73740000D03*
%TO.P,J8,2*%
%TO.N,/echoTres*%
X66040000Y-78740000D03*
D17*
%TO.P,J8,1*%
%TO.N,+5V*%
X66040000Y-83740000D03*
%TD*%
D16*
%TO.P,J7,4*%
%TO.N,GND*%
X66040000Y-89140000D03*
%TO.P,J7,3*%
%TO.N,/triggerDois*%
X66040000Y-94140000D03*
%TO.P,J7,2*%
%TO.N,/echoDois*%
X66040000Y-99140000D03*
D17*
%TO.P,J7,1*%
%TO.N,+5V*%
X66040000Y-104140000D03*
%TD*%
D16*
%TO.P,J6,4*%
%TO.N,GND*%
X66040000Y-109460000D03*
%TO.P,J6,3*%
%TO.N,/triggerUm*%
X66040000Y-114460000D03*
%TO.P,J6,2*%
%TO.N,/echoUm*%
X66040000Y-119460000D03*
D17*
%TO.P,J6,1*%
%TO.N,+5V*%
X66040000Y-124460000D03*
%TD*%
D16*
%TO.P,J5,4*%
%TO.N,GND*%
X66040000Y-48500000D03*
%TO.P,J5,3*%
%TO.N,/SCL*%
X66040000Y-53500000D03*
%TO.P,J5,2*%
%TO.N,/SDA*%
X66040000Y-58500000D03*
D17*
%TO.P,J5,1*%
%TO.N,+5V*%
X66040000Y-63500000D03*
%TD*%
D16*
%TO.P,J1,2*%
%TO.N,/chave*%
X93900000Y-154940000D03*
D17*
%TO.P,J1,1*%
%TO.N,+5V*%
X88900000Y-154940000D03*
%TD*%
D18*
%TO.P,A1,NC*%
%TO.N,Net-(A1-PadNC)*%
X129540000Y-72390000D03*
D19*
%TO.P,A1,IOREF*%
%TO.N,Net-(A1-PadIOREF)*%
X129540000Y-74930000D03*
%TO.P,A1,RESET*%
%TO.N,Net-(A1-PadRESET)*%
X129540000Y-77470000D03*
%TO.P,A1,3V3*%
%TO.N,Net-(A1-Pad3V3)*%
X129540000Y-80010000D03*
%TO.P,A1,5V_1*%
%TO.N,+5V*%
X129540000Y-82550000D03*
%TO.P,A1,GND1*%
%TO.N,GND*%
X129540000Y-85090000D03*
%TO.P,A1,GND2*%
X129540000Y-87630000D03*
%TO.P,A1,VIN*%
%TO.N,Net-(A1-PadVIN)*%
X129540000Y-90170000D03*
%TO.P,A1,AD0*%
%TO.N,Net-(A1-PadAD0)*%
X129540000Y-95250000D03*
%TO.P,A1,AD1*%
%TO.N,Net-(A1-PadAD1)*%
X129540000Y-97790000D03*
%TO.P,A1,AD2*%
%TO.N,Net-(A1-PadAD2)*%
X129540000Y-100330000D03*
%TO.P,A1,AD3*%
%TO.N,Net-(A1-PadAD3)*%
X129540000Y-102870000D03*
%TO.P,A1,AD4*%
%TO.N,Net-(A1-PadAD4)*%
X129540000Y-105410000D03*
%TO.P,A1,AD5*%
%TO.N,Net-(A1-PadAD5)*%
X129540000Y-107950000D03*
%TO.P,A1,AD6*%
%TO.N,Net-(A1-PadAD6)*%
X129540000Y-110490000D03*
%TO.P,A1,AD7*%
%TO.N,Net-(A1-PadAD7)*%
X129540000Y-113030000D03*
%TO.P,A1,AD8*%
%TO.N,Net-(A1-PadAD8)*%
X129540000Y-118110000D03*
%TO.P,A1,AD9*%
%TO.N,Net-(A1-PadAD9)*%
X129540000Y-120650000D03*
%TO.P,A1,AD10*%
%TO.N,Net-(A1-PadAD10)*%
X129540000Y-123190000D03*
%TO.P,A1,AD11*%
%TO.N,Net-(A1-PadAD11)*%
X129540000Y-125730000D03*
%TO.P,A1,AD12*%
%TO.N,Net-(A1-PadAD12)*%
X129540000Y-128270000D03*
%TO.P,A1,AD13*%
%TO.N,Net-(A1-PadAD13)*%
X129540000Y-130810000D03*
%TO.P,A1,AD14*%
%TO.N,Net-(A1-PadAD14)*%
X129540000Y-133096000D03*
%TO.P,A1,AD15*%
%TO.N,Net-(A1-PadAD15)*%
X129540000Y-135636000D03*
%TO.P,A1,GND5*%
%TO.N,GND*%
X124460000Y-140970000D03*
%TO.P,A1,GND4*%
X124460000Y-138430000D03*
%TO.P,A1,53*%
%TO.N,/CS*%
X121920000Y-140970000D03*
%TO.P,A1,52*%
%TO.N,/SCK*%
X121920000Y-138430000D03*
%TO.P,A1,51*%
%TO.N,/MOSI*%
X119380000Y-140970000D03*
%TO.P,A1,50*%
%TO.N,/MISO*%
X119380000Y-138430000D03*
%TO.P,A1,49*%
%TO.N,Net-(A1-Pad49)*%
X116840000Y-140970000D03*
%TO.P,A1,48*%
%TO.N,Net-(A1-Pad48)*%
X116840000Y-138430000D03*
%TO.P,A1,46*%
%TO.N,Net-(A1-Pad46)*%
X114300000Y-138430000D03*
%TO.P,A1,47*%
%TO.N,Net-(A1-Pad47)*%
X114300000Y-140970000D03*
%TO.P,A1,44*%
%TO.N,Net-(A1-Pad44)*%
X111760000Y-138430000D03*
%TO.P,A1,45*%
%TO.N,Net-(A1-Pad45)*%
X111760000Y-140970000D03*
%TO.P,A1,42*%
%TO.N,Net-(A1-Pad42)*%
X109220000Y-138430000D03*
%TO.P,A1,43*%
%TO.N,Net-(A1-Pad43)*%
X109220000Y-140970000D03*
%TO.P,A1,40*%
%TO.N,Net-(A1-Pad40)*%
X106680000Y-138430000D03*
%TO.P,A1,41*%
%TO.N,Net-(A1-Pad41)*%
X106680000Y-140970000D03*
%TO.P,A1,38*%
%TO.N,Net-(A1-Pad38)*%
X104140000Y-138430000D03*
%TO.P,A1,39*%
%TO.N,Net-(A1-Pad39)*%
X104140000Y-140970000D03*
%TO.P,A1,36*%
%TO.N,Net-(A1-Pad36)*%
X101600000Y-138430000D03*
%TO.P,A1,37*%
%TO.N,Net-(A1-Pad37)*%
X101600000Y-140970000D03*
%TO.P,A1,34*%
%TO.N,Net-(A1-Pad34)*%
X99060000Y-138430000D03*
%TO.P,A1,35*%
%TO.N,Net-(A1-Pad35)*%
X99060000Y-140970000D03*
%TO.P,A1,32*%
%TO.N,Net-(A1-Pad32)*%
X96520000Y-138430000D03*
%TO.P,A1,33*%
%TO.N,Net-(A1-Pad33)*%
X96520000Y-140970000D03*
%TO.P,A1,30*%
%TO.N,Net-(A1-Pad30)*%
X93980000Y-138430000D03*
%TO.P,A1,31*%
%TO.N,Net-(A1-Pad31)*%
X93980000Y-140970000D03*
%TO.P,A1,28*%
%TO.N,Net-(A1-Pad28)*%
X91440000Y-138430000D03*
%TO.P,A1,29*%
%TO.N,Net-(A1-Pad29)*%
X91440000Y-140970000D03*
%TO.P,A1,26*%
%TO.N,Net-(A1-Pad26)*%
X88900000Y-138430000D03*
%TO.P,A1,27*%
%TO.N,Net-(A1-Pad27)*%
X88900000Y-140970000D03*
%TO.P,A1,24*%
%TO.N,Net-(A1-Pad24)*%
X86360000Y-138430000D03*
%TO.P,A1,25*%
%TO.N,Net-(A1-Pad25)*%
X86360000Y-140970000D03*
%TO.P,A1,22*%
%TO.N,Net-(A1-Pad22)*%
X83820000Y-138430000D03*
%TO.P,A1,23*%
%TO.N,Net-(A1-Pad23)*%
X83820000Y-140970000D03*
%TO.P,A1,5V_2*%
%TO.N,+5V*%
X81280000Y-138430000D03*
%TO.P,A1,5V_3*%
X81280000Y-140970000D03*
%TO.P,A1,21*%
%TO.N,Net-(A1-Pad21)*%
X81280000Y-130810000D03*
%TO.P,A1,20*%
%TO.N,Net-(A1-Pad20)*%
X81280000Y-128270000D03*
%TO.P,A1,19*%
%TO.N,Net-(A1-Pad19)*%
X81280000Y-125730000D03*
%TO.P,A1,18*%
%TO.N,Net-(A1-Pad18)*%
X81280000Y-123190000D03*
%TO.P,A1,17*%
%TO.N,Net-(A1-Pad17)*%
X81280000Y-120650000D03*
%TO.P,A1,16*%
%TO.N,Net-(A1-Pad16)*%
X81280000Y-118110000D03*
%TO.P,A1,15*%
%TO.N,/ledSD*%
X81280000Y-115570000D03*
%TO.P,A1,14*%
%TO.N,/ledCode*%
X81280000Y-113030000D03*
%TO.P,A1,0*%
%TO.N,Net-(A1-Pad0)*%
X81280000Y-107950000D03*
%TO.P,A1,1*%
%TO.N,Net-(A1-Pad1)*%
X81280000Y-105410000D03*
%TO.P,A1,2*%
%TO.N,/echoUm*%
X81280000Y-102870000D03*
%TO.P,A1,3*%
%TO.N,/triggerUm*%
X81280000Y-100330000D03*
%TO.P,A1,4*%
%TO.N,/echoDois*%
X81280000Y-97790000D03*
%TO.P,A1,5*%
%TO.N,/triggerDois*%
X81280000Y-95250000D03*
%TO.P,A1,6*%
%TO.N,/echoTres*%
X81280000Y-92710000D03*
%TO.P,A1,7*%
%TO.N,/triggerTres*%
X81280000Y-90170000D03*
%TO.P,A1,8*%
%TO.N,/led*%
X81280000Y-86106000D03*
%TO.P,A1,9*%
%TO.N,/chave*%
X81280000Y-83566000D03*
%TO.P,A1,10*%
%TO.N,/motor*%
X81280000Y-81026000D03*
%TO.P,A1,11*%
%TO.N,Net-(A1-Pad11)*%
X81280000Y-78486000D03*
%TO.P,A1,12*%
%TO.N,Net-(A1-Pad12)*%
X81280000Y-75946000D03*
%TO.P,A1,13*%
%TO.N,Net-(A1-Pad13)*%
X81280000Y-73406000D03*
%TO.P,A1,GND3*%
%TO.N,GND*%
X81280000Y-70866000D03*
%TO.P,A1,AREF*%
%TO.N,Net-(A1-PadAREF)*%
X81280000Y-68326000D03*
%TO.P,A1,SDA*%
%TO.N,/SDA*%
X81280000Y-65786000D03*
%TO.P,A1,SCL*%
%TO.N,/SCL*%
X81280000Y-63246000D03*
%TD*%
D20*
%TO.N,+5V*%
X66040000Y-124460000D02*
X66040000Y-140970000D01*
X60960000Y-109220000D02*
X66040000Y-104140000D01*
X60960000Y-135890000D02*
X60960000Y-109220000D01*
X66040000Y-140970000D02*
X60960000Y-135890000D01*
X60960000Y-88820000D02*
X66040000Y-83740000D01*
X60960000Y-109220000D02*
X60960000Y-88820000D01*
X60960000Y-88820000D02*
X60960000Y-68580000D01*
X60960000Y-68580000D02*
X66040000Y-63500000D01*
X127000000Y-82550000D02*
X129540000Y-82550000D01*
X100965000Y-149225000D02*
X100965000Y-157480000D01*
X97790000Y-146050000D02*
X100965000Y-149225000D01*
X100965000Y-157480000D02*
X99695000Y-158750000D01*
X83820000Y-146050000D02*
X97790000Y-146050000D01*
X81280000Y-143510000D02*
X83820000Y-146050000D01*
X81280000Y-140970000D02*
X81280000Y-143510000D01*
X132080000Y-155575000D02*
X132080000Y-153670000D01*
X128905000Y-158750000D02*
X132080000Y-155575000D01*
X83820000Y-158750000D02*
X84455000Y-158750000D01*
X66040000Y-140970000D02*
X83820000Y-158750000D01*
X90170000Y-158750000D02*
X84455000Y-158750000D01*
X88900000Y-154940000D02*
X92710000Y-158750000D01*
X92710000Y-158750000D02*
X90170000Y-158750000D01*
X99695000Y-158750000D02*
X92710000Y-158750000D01*
X81280000Y-140970000D02*
X81280000Y-138430000D01*
X116840000Y-156845000D02*
X118745000Y-158750000D01*
X116840000Y-148590000D02*
X116840000Y-156845000D01*
X114300000Y-146050000D02*
X116840000Y-148590000D01*
X97790000Y-146050000D02*
X114300000Y-146050000D01*
X118745000Y-158750000D02*
X128905000Y-158750000D01*
X138684000Y-54802400D02*
X141797400Y-54802400D01*
X141797400Y-54802400D02*
X144780000Y-57785000D01*
X144780000Y-57785000D02*
X144780000Y-64770000D01*
X144780000Y-64770000D02*
X141605000Y-67945000D01*
X141605000Y-67945000D02*
X127635000Y-67945000D01*
X127635000Y-67945000D02*
X125095000Y-70485000D01*
X127000000Y-82550000D02*
X125095000Y-80645000D01*
X125095000Y-70485000D02*
X125095000Y-80645000D01*
%TO.N,GND*%
X66040000Y-68740000D02*
X70010000Y-68740000D01*
X72136000Y-70866000D02*
X81280000Y-70866000D01*
X70010000Y-68740000D02*
X72136000Y-70866000D01*
X66040000Y-89140000D02*
X63500000Y-91680000D01*
X63500000Y-99867842D02*
X65232158Y-101600000D01*
X63500000Y-91680000D02*
X63500000Y-99867842D01*
X67774402Y-101600000D02*
X69850000Y-103675598D01*
X65232158Y-101600000D02*
X67774402Y-101600000D01*
X69850000Y-105650000D02*
X66040000Y-109460000D01*
X69850000Y-103675598D02*
X69850000Y-105650000D01*
X66040000Y-89140000D02*
X68340000Y-89140000D01*
X68340000Y-89140000D02*
X71120000Y-86360000D01*
X71120000Y-86360000D02*
X71120000Y-83820000D01*
X71120000Y-83820000D02*
X68580000Y-81280000D01*
X65312158Y-81280000D02*
X63500000Y-79467842D01*
X68580000Y-81280000D02*
X65312158Y-81280000D01*
X63500000Y-71280000D02*
X66040000Y-68740000D01*
X63500000Y-79467842D02*
X63500000Y-71280000D01*
X58420000Y-56120000D02*
X66040000Y-48500000D01*
X58420000Y-139700000D02*
X58420000Y-56120000D01*
X131498990Y-159966010D02*
X134620000Y-156845000D01*
X134620000Y-156845000D02*
X134620000Y-153670000D01*
X104140000Y-156845000D02*
X107261010Y-159966010D01*
X104140000Y-154940000D02*
X104140000Y-156845000D01*
X106680000Y-152400000D02*
X104140000Y-154940000D01*
X113665000Y-152400000D02*
X106680000Y-152400000D01*
X108531010Y-159966010D02*
X74876010Y-159966010D01*
X107261010Y-159966010D02*
X108531010Y-159966010D01*
X108531010Y-159966010D02*
X131498990Y-159966010D01*
X70485000Y-155575000D02*
X70485000Y-151765000D01*
X74876010Y-159966010D02*
X70485000Y-155575000D01*
X70485000Y-151765000D02*
X58420000Y-139700000D01*
X73660000Y-154940000D02*
X70485000Y-151765000D01*
X133350000Y-83820000D02*
X132080000Y-85090000D01*
X133350000Y-76200000D02*
X133350000Y-83820000D01*
X135890000Y-73660000D02*
X133350000Y-76200000D01*
X140970000Y-73660000D02*
X135890000Y-73660000D01*
X146685000Y-67945000D02*
X140970000Y-73660000D01*
X141797400Y-52262400D02*
X146685000Y-57150000D01*
X138684000Y-52262400D02*
X141797400Y-52262400D01*
X132080000Y-85090000D02*
X129540000Y-85090000D01*
X146685000Y-64770000D02*
X146685000Y-67945000D01*
X146685000Y-57150000D02*
X146685000Y-64770000D01*
X129540000Y-87630000D02*
X128270000Y-87630000D01*
X129540000Y-85090000D02*
X127000000Y-85090000D01*
X81280000Y-70866000D02*
X82804000Y-70866000D01*
X138684000Y-52262400D02*
X138684000Y-50546000D01*
X138684000Y-52262400D02*
X137352400Y-52262400D01*
X65800000Y-48260000D02*
X66040000Y-48500000D01*
X66040000Y-48500000D02*
X62470000Y-48500000D01*
X66040000Y-48500000D02*
X66040000Y-45720000D01*
X140335000Y-109855000D02*
X137795000Y-112395000D01*
X137795000Y-112395000D02*
X137795000Y-115570000D01*
X140335000Y-95885000D02*
X140335000Y-109855000D01*
X129540000Y-87630000D02*
X132080000Y-87630000D01*
X137795000Y-102870000D02*
X137795000Y-93345000D01*
X137795000Y-93345000D02*
X136207500Y-91757500D01*
X136207500Y-91757500D02*
X140335000Y-95885000D01*
X132080000Y-87630000D02*
X136207500Y-91757500D01*
%TO.N,/CS*%
X121920000Y-151130000D02*
X121920000Y-140970000D01*
X121920000Y-153670000D02*
X121920000Y-151130000D01*
%TO.N,/SCK*%
X121920000Y-137160000D02*
X121920000Y-138430000D01*
X123190000Y-135890000D02*
X121920000Y-137160000D01*
X127000000Y-137160000D02*
X125730000Y-135890000D01*
X125730000Y-135890000D02*
X123190000Y-135890000D01*
X127000000Y-143510000D02*
X127000000Y-137160000D01*
X124460000Y-146050000D02*
X127000000Y-143510000D01*
X124460000Y-153670000D02*
X124460000Y-146050000D01*
%TO.N,/MOSI*%
X119380000Y-153670000D02*
X119380000Y-140970000D01*
X119380000Y-156210000D02*
X119380000Y-153670000D01*
X125730000Y-157480000D02*
X120650000Y-157480000D01*
X127000000Y-156210000D02*
X125730000Y-157480000D01*
X120650000Y-157480000D02*
X119380000Y-156210000D01*
X127000000Y-153670000D02*
X127000000Y-156210000D01*
%TO.N,/MISO*%
X120596010Y-134673990D02*
X119380000Y-135890000D01*
X126525228Y-134673990D02*
X120596010Y-134673990D01*
X129011238Y-137160000D02*
X126525228Y-134673990D01*
X133350000Y-139700000D02*
X130810000Y-137160000D01*
X133350000Y-143510000D02*
X133350000Y-139700000D01*
X129540000Y-147320000D02*
X133350000Y-143510000D01*
X119380000Y-135890000D02*
X119380000Y-138430000D01*
X130810000Y-137160000D02*
X129011238Y-137160000D01*
X129540000Y-151130000D02*
X129540000Y-147320000D01*
X129540000Y-153670000D02*
X129540000Y-151130000D01*
%TO.N,/echoUm*%
X72310000Y-119460000D02*
X66040000Y-119460000D01*
X76200000Y-115570000D02*
X72310000Y-119460000D01*
X76200000Y-105410000D02*
X76200000Y-115570000D01*
X78740000Y-102870000D02*
X76200000Y-105410000D01*
X81280000Y-102870000D02*
X78740000Y-102870000D01*
%TO.N,/triggerUm*%
X66040000Y-114460000D02*
X70960000Y-114460000D01*
X70960000Y-114460000D02*
X72390000Y-113030000D01*
X72390000Y-113030000D02*
X72390000Y-105410000D01*
X77470000Y-100330000D02*
X81280000Y-100330000D01*
X72390000Y-105410000D02*
X77470000Y-100330000D01*
%TO.N,/echoDois*%
X66040000Y-99140000D02*
X74850000Y-99140000D01*
X76200000Y-97790000D02*
X81280000Y-97790000D01*
X74850000Y-99140000D02*
X76200000Y-97790000D01*
%TO.N,/triggerDois*%
X66040000Y-94140000D02*
X75090000Y-94140000D01*
X76200000Y-95250000D02*
X81280000Y-95250000D01*
X75090000Y-94140000D02*
X76200000Y-95250000D01*
%TO.N,/echoTres*%
X78740000Y-92710000D02*
X81280000Y-92710000D01*
X73660000Y-78740000D02*
X76200000Y-81280000D01*
X76200000Y-90170000D02*
X78740000Y-92710000D01*
X76200000Y-81280000D02*
X76200000Y-90170000D01*
X66040000Y-78740000D02*
X73660000Y-78740000D01*
%TO.N,/triggerTres*%
X66040000Y-73740000D02*
X76280000Y-73740000D01*
X76280000Y-73740000D02*
X78740000Y-76200000D01*
X78740000Y-87630000D02*
X81280000Y-90170000D01*
X78740000Y-76200000D02*
X78740000Y-87630000D01*
%TO.N,/chave*%
X79375000Y-110490000D02*
X83185000Y-110490000D01*
X85725000Y-107950000D02*
X85725000Y-85725000D01*
X83185000Y-110490000D02*
X85725000Y-107950000D01*
X77470000Y-112395000D02*
X79375000Y-110490000D01*
X85725000Y-85725000D02*
X83566000Y-83566000D01*
X83566000Y-83566000D02*
X81280000Y-83566000D01*
X77470000Y-146050000D02*
X77470000Y-112395000D01*
X88820000Y-149860000D02*
X93900000Y-154940000D01*
X87630000Y-149860000D02*
X95885000Y-149860000D01*
X81280000Y-149860000D02*
X87630000Y-149860000D01*
X87630000Y-149860000D02*
X88820000Y-149860000D01*
X98425000Y-152400000D02*
X98425000Y-154940000D01*
X95885000Y-149860000D02*
X98425000Y-152400000D01*
X77470000Y-148590000D02*
X77470000Y-146050000D01*
X81280000Y-149860000D02*
X78740000Y-149860000D01*
X78740000Y-149860000D02*
X77470000Y-148590000D01*
X83820000Y-154940000D02*
X78740000Y-149860000D01*
%TO.N,/SDA*%
X81280000Y-65786000D02*
X75946000Y-65786000D01*
X75946000Y-65786000D02*
X73660000Y-63500000D01*
X73660000Y-63500000D02*
X73660000Y-60960000D01*
X71200000Y-58500000D02*
X66040000Y-58500000D01*
X73660000Y-60960000D02*
X71200000Y-58500000D01*
X138684000Y-57342400D02*
X141162400Y-57342400D01*
X141162400Y-57342400D02*
X142875000Y-59055000D01*
X142875000Y-59055000D02*
X142875000Y-63500000D01*
X92456000Y-65786000D02*
X140589000Y-65786000D01*
X142875000Y-63500000D02*
X140970000Y-65405000D01*
X140589000Y-65786000D02*
X140970000Y-65405000D01*
X92456000Y-65786000D02*
X81280000Y-65786000D01*
%TO.N,/SCL*%
X66040000Y-53500000D02*
X71280000Y-53500000D01*
X71280000Y-53500000D02*
X76200000Y-58420000D01*
X76200000Y-58420000D02*
X76200000Y-60960000D01*
X78486000Y-63246000D02*
X81280000Y-63246000D01*
X76200000Y-60960000D02*
X78486000Y-63246000D01*
X81280000Y-63246000D02*
X129286000Y-63246000D01*
X132649600Y-59882400D02*
X129286000Y-63246000D01*
X138684000Y-59882400D02*
X132649600Y-59882400D01*
%TO.N,Net-(J2-Pad1)*%
X118110000Y-115570000D02*
X131445000Y-115570000D01*
X133985000Y-118110000D02*
X137795000Y-118110000D01*
X131445000Y-115570000D02*
X133985000Y-118110000D01*
%TO.N,Net-(J3-Pad1)*%
X137795000Y-105410000D02*
X135255000Y-105410000D01*
X135255000Y-105410000D02*
X132715000Y-102870000D01*
X132715000Y-94615000D02*
X130810000Y-92710000D01*
X132715000Y-102870000D02*
X132715000Y-94615000D01*
X118110000Y-92710000D02*
X130810000Y-92710000D01*
%TO.N,Net-(J4-Pad1)*%
X108585000Y-154940000D02*
X113665000Y-154940000D01*
%TO.N,/ledSD*%
X81280000Y-115570000D02*
X107950000Y-115570000D01*
%TO.N,/ledCode*%
X81280000Y-113030000D02*
X86995000Y-113030000D01*
X86995000Y-113030000D02*
X96520000Y-103505000D01*
X96520000Y-103505000D02*
X96520000Y-97790000D01*
X101600000Y-92710000D02*
X107950000Y-92710000D01*
X96520000Y-97790000D02*
X101600000Y-92710000D01*
%TD*%
D21*
%TO.N,GND*%
X147388001Y-163898000D02*
X57082000Y-163898000D01*
X57082000Y-155932702D01*
X72846903Y-155932702D01*
X72918486Y-156176671D01*
X73173996Y-156297571D01*
X73448184Y-156366300D01*
X73730512Y-156380217D01*
X74010130Y-156338787D01*
X74276292Y-156243603D01*
X74401514Y-156176671D01*
X74473097Y-155932702D01*
X73660000Y-155119605D01*
X72846903Y-155932702D01*
X57082000Y-155932702D01*
X57082000Y-155010512D01*
X72219783Y-155010512D01*
X72261213Y-155290130D01*
X72356397Y-155556292D01*
X72423329Y-155681514D01*
X72667298Y-155753097D01*
X73480395Y-154940000D01*
X73839605Y-154940000D01*
X74652702Y-155753097D01*
X74896671Y-155681514D01*
X75017571Y-155426004D01*
X75086300Y-155151816D01*
X75100217Y-154869488D01*
X75058787Y-154589870D01*
X74963603Y-154323708D01*
X74896671Y-154198486D01*
X74652702Y-154126903D01*
X73839605Y-154940000D01*
X73480395Y-154940000D01*
X72667298Y-154126903D01*
X72423329Y-154198486D01*
X72302429Y-154453996D01*
X72233700Y-154728184D01*
X72219783Y-155010512D01*
X57082000Y-155010512D01*
X57082000Y-153947298D01*
X72846903Y-153947298D01*
X73660000Y-154760395D01*
X74473097Y-153947298D01*
X74401514Y-153703329D01*
X74146004Y-153582429D01*
X73871816Y-153513700D01*
X73589488Y-153499783D01*
X73309870Y-153541213D01*
X73043708Y-153636397D01*
X72918486Y-153703329D01*
X72846903Y-153947298D01*
X57082000Y-153947298D01*
X57082000Y-68580000D01*
X59317089Y-68580000D01*
X59325001Y-68660329D01*
X59325000Y-88739678D01*
X59317089Y-88820000D01*
X59325000Y-88900319D01*
X59325000Y-88900321D01*
X59325001Y-88900331D01*
X59325000Y-109139678D01*
X59317089Y-109220000D01*
X59325000Y-109300319D01*
X59325000Y-109300321D01*
X59325001Y-109300331D01*
X59325000Y-135809678D01*
X59317089Y-135890000D01*
X59325000Y-135970319D01*
X59325000Y-135970321D01*
X59348657Y-136210515D01*
X59442148Y-136518714D01*
X59593969Y-136802751D01*
X59798286Y-137051714D01*
X59860687Y-137102925D01*
X64827084Y-142069323D01*
X64878287Y-142131714D01*
X64940676Y-142182915D01*
X64940682Y-142182920D01*
X82607080Y-159849319D01*
X82658286Y-159911714D01*
X82907248Y-160116031D01*
X83191285Y-160267852D01*
X83499484Y-160361343D01*
X83739678Y-160385000D01*
X83739680Y-160385000D01*
X83819999Y-160392911D01*
X83900319Y-160385000D01*
X92629678Y-160385000D01*
X92710000Y-160392911D01*
X92790322Y-160385000D01*
X99614681Y-160385000D01*
X99695000Y-160392911D01*
X99775319Y-160385000D01*
X99775322Y-160385000D01*
X100015516Y-160361343D01*
X100323715Y-160267852D01*
X100607752Y-160116031D01*
X100856714Y-159911714D01*
X100907924Y-159849314D01*
X102064318Y-158692921D01*
X102126714Y-158641714D01*
X102331031Y-158392752D01*
X102482852Y-158108715D01*
X102576343Y-157800516D01*
X102600000Y-157560322D01*
X102600000Y-157560320D01*
X102607911Y-157480001D01*
X102600000Y-157399681D01*
X102600000Y-152043110D01*
X112223524Y-152043110D01*
X112344845Y-152273000D01*
X113538000Y-152273000D01*
X113538000Y-151079186D01*
X113792000Y-151079186D01*
X113792000Y-152273000D01*
X114985155Y-152273000D01*
X115106476Y-152043110D01*
X115061825Y-151895901D01*
X114936641Y-151633080D01*
X114762588Y-151399731D01*
X114546355Y-151204822D01*
X114296252Y-151055843D01*
X114021891Y-150958519D01*
X113792000Y-151079186D01*
X113538000Y-151079186D01*
X113308109Y-150958519D01*
X113033748Y-151055843D01*
X112783645Y-151204822D01*
X112567412Y-151399731D01*
X112393359Y-151633080D01*
X112268175Y-151895901D01*
X112223524Y-152043110D01*
X102600000Y-152043110D01*
X102600000Y-149305319D01*
X102607911Y-149224999D01*
X102600000Y-149144678D01*
X102576343Y-148904484D01*
X102482852Y-148596285D01*
X102331031Y-148312248D01*
X102126714Y-148063286D01*
X102064320Y-148012081D01*
X101737239Y-147685000D01*
X113622762Y-147685000D01*
X115205000Y-149267239D01*
X115205001Y-153198333D01*
X115144157Y-153148400D01*
X114985783Y-153063747D01*
X115061825Y-152904099D01*
X115106476Y-152756890D01*
X114985155Y-152527000D01*
X113792000Y-152527000D01*
X113792000Y-152547000D01*
X113538000Y-152547000D01*
X113538000Y-152527000D01*
X112344845Y-152527000D01*
X112223524Y-152756890D01*
X112268175Y-152904099D01*
X112344217Y-153063747D01*
X112185843Y-153148400D01*
X112014235Y-153289235D01*
X112001297Y-153305000D01*
X109606558Y-153305000D01*
X109497777Y-153232315D01*
X109147085Y-153087053D01*
X108774793Y-153013000D01*
X108395207Y-153013000D01*
X108022915Y-153087053D01*
X107672223Y-153232315D01*
X107356609Y-153443201D01*
X107088201Y-153711609D01*
X106877315Y-154027223D01*
X106732053Y-154377915D01*
X106658000Y-154750207D01*
X106658000Y-155129793D01*
X106732053Y-155502085D01*
X106877315Y-155852777D01*
X107088201Y-156168391D01*
X107356609Y-156436799D01*
X107672223Y-156647685D01*
X108022915Y-156792947D01*
X108395207Y-156867000D01*
X108774793Y-156867000D01*
X109147085Y-156792947D01*
X109497777Y-156647685D01*
X109606558Y-156575000D01*
X112001297Y-156575000D01*
X112014235Y-156590765D01*
X112185843Y-156731600D01*
X112381629Y-156836250D01*
X112594069Y-156900693D01*
X112815000Y-156922453D01*
X114515000Y-156922453D01*
X114735931Y-156900693D01*
X114948371Y-156836250D01*
X115144157Y-156731600D01*
X115205001Y-156681667D01*
X115205001Y-156764671D01*
X115197089Y-156845000D01*
X115228658Y-157165516D01*
X115322148Y-157473714D01*
X115416737Y-157650677D01*
X115473970Y-157757752D01*
X115678287Y-158006714D01*
X115740682Y-158057920D01*
X117532079Y-159849318D01*
X117583286Y-159911714D01*
X117832248Y-160116031D01*
X118116283Y-160267851D01*
X118116285Y-160267852D01*
X118424483Y-160361343D01*
X118745000Y-160392911D01*
X118825322Y-160385000D01*
X128824681Y-160385000D01*
X128905000Y-160392911D01*
X128985319Y-160385000D01*
X128985322Y-160385000D01*
X129225516Y-160361343D01*
X129533715Y-160267852D01*
X129817752Y-160116031D01*
X130066714Y-159911714D01*
X130117925Y-159849313D01*
X133179320Y-156787919D01*
X133241714Y-156736714D01*
X133446031Y-156487752D01*
X133597852Y-156203715D01*
X133691343Y-155895516D01*
X133715000Y-155655322D01*
X133715000Y-155655320D01*
X133722911Y-155575001D01*
X133715000Y-155494681D01*
X133715000Y-155152655D01*
X133770000Y-155158072D01*
X134334250Y-155155000D01*
X134493000Y-154996250D01*
X134493000Y-153797000D01*
X134747000Y-153797000D01*
X134747000Y-154996250D01*
X134905750Y-155155000D01*
X135470000Y-155158072D01*
X135594482Y-155145812D01*
X135714180Y-155109502D01*
X135824494Y-155050537D01*
X135921185Y-154971185D01*
X136000537Y-154874494D01*
X136059502Y-154764180D01*
X136095812Y-154644482D01*
X136108072Y-154520000D01*
X136105000Y-153955750D01*
X135946250Y-153797000D01*
X134747000Y-153797000D01*
X134493000Y-153797000D01*
X134473000Y-153797000D01*
X134473000Y-153543000D01*
X134493000Y-153543000D01*
X134493000Y-152343750D01*
X134747000Y-152343750D01*
X134747000Y-153543000D01*
X135946250Y-153543000D01*
X136105000Y-153384250D01*
X136108072Y-152820000D01*
X136095812Y-152695518D01*
X136059502Y-152575820D01*
X136000537Y-152465506D01*
X135921185Y-152368815D01*
X135824494Y-152289463D01*
X135714180Y-152230498D01*
X135594482Y-152194188D01*
X135470000Y-152181928D01*
X134905750Y-152185000D01*
X134747000Y-152343750D01*
X134493000Y-152343750D01*
X134334250Y-152185000D01*
X133770000Y-152181928D01*
X133645518Y-152194188D01*
X133525820Y-152230498D01*
X133467546Y-152261646D01*
X133340264Y-152134364D01*
X133016461Y-151918005D01*
X132656670Y-151768975D01*
X132274718Y-151693000D01*
X131885282Y-151693000D01*
X131503330Y-151768975D01*
X131175000Y-151904973D01*
X131175000Y-147997238D01*
X134449325Y-144722915D01*
X134511714Y-144671714D01*
X134716031Y-144422752D01*
X134867852Y-144138715D01*
X134961343Y-143830516D01*
X134985000Y-143590322D01*
X134985000Y-143590321D01*
X134992911Y-143510000D01*
X134985000Y-143429678D01*
X134985000Y-139780319D01*
X134992911Y-139699999D01*
X134979830Y-139567189D01*
X134961343Y-139379484D01*
X134867852Y-139071285D01*
X134716031Y-138787248D01*
X134511714Y-138538286D01*
X134449319Y-138487080D01*
X132022925Y-136060687D01*
X131971714Y-135998286D01*
X131722752Y-135793969D01*
X131438715Y-135642148D01*
X131346000Y-135614023D01*
X131346000Y-135458125D01*
X131276596Y-135109209D01*
X131140456Y-134780538D01*
X130942811Y-134484742D01*
X130824069Y-134366000D01*
X130942811Y-134247258D01*
X131140456Y-133951462D01*
X131276596Y-133622791D01*
X131346000Y-133273875D01*
X131346000Y-132918125D01*
X131276596Y-132569209D01*
X131140456Y-132240538D01*
X130948329Y-131953000D01*
X131140456Y-131665462D01*
X131276596Y-131336791D01*
X131346000Y-130987875D01*
X131346000Y-130632125D01*
X131276596Y-130283209D01*
X131140456Y-129954538D01*
X131061634Y-129836572D01*
X142258000Y-129836572D01*
X142258000Y-163533429D01*
X147062000Y-163533429D01*
X147062000Y-129836572D01*
X142258000Y-129836572D01*
X131061634Y-129836572D01*
X130942811Y-129658742D01*
X130824069Y-129540000D01*
X130942811Y-129421258D01*
X131140456Y-129125462D01*
X131276596Y-128796791D01*
X131346000Y-128447875D01*
X131346000Y-128092125D01*
X131276596Y-127743209D01*
X131140456Y-127414538D01*
X130942811Y-127118742D01*
X130824069Y-127000000D01*
X130942811Y-126881258D01*
X131140456Y-126585462D01*
X131276596Y-126256791D01*
X131346000Y-125907875D01*
X131346000Y-125552125D01*
X131276596Y-125203209D01*
X131140456Y-124874538D01*
X130942811Y-124578742D01*
X130824069Y-124460000D01*
X130942811Y-124341258D01*
X131140456Y-124045462D01*
X131276596Y-123716791D01*
X131346000Y-123367875D01*
X131346000Y-123012125D01*
X131276596Y-122663209D01*
X131140456Y-122334538D01*
X130942811Y-122038742D01*
X130824069Y-121920000D01*
X130942811Y-121801258D01*
X131140456Y-121505462D01*
X131276596Y-121176791D01*
X131346000Y-120827875D01*
X131346000Y-120472125D01*
X131276596Y-120123209D01*
X131140456Y-119794538D01*
X130942811Y-119498742D01*
X130824069Y-119380000D01*
X130942811Y-119261258D01*
X131140456Y-118965462D01*
X131276596Y-118636791D01*
X131346000Y-118287875D01*
X131346000Y-117932125D01*
X131309031Y-117746269D01*
X132772080Y-119209319D01*
X132823286Y-119271714D01*
X133072248Y-119476031D01*
X133356285Y-119627852D01*
X133664484Y-119721343D01*
X133904678Y-119745000D01*
X133904680Y-119745000D01*
X133984999Y-119752911D01*
X134065319Y-119745000D01*
X136131297Y-119745000D01*
X136144235Y-119760765D01*
X136315843Y-119901600D01*
X136511629Y-120006250D01*
X136724069Y-120070693D01*
X136945000Y-120092453D01*
X138645000Y-120092453D01*
X138865931Y-120070693D01*
X139078371Y-120006250D01*
X139274157Y-119901600D01*
X139445765Y-119760765D01*
X139586600Y-119589157D01*
X139691250Y-119393371D01*
X139755693Y-119180931D01*
X139777453Y-118960000D01*
X139777453Y-117260000D01*
X139755693Y-117039069D01*
X139691250Y-116826629D01*
X139586600Y-116630843D01*
X139445765Y-116459235D01*
X139274157Y-116318400D01*
X139115783Y-116233747D01*
X139191825Y-116074099D01*
X139236476Y-115926890D01*
X139115155Y-115697000D01*
X137922000Y-115697000D01*
X137922000Y-115717000D01*
X137668000Y-115717000D01*
X137668000Y-115697000D01*
X136474845Y-115697000D01*
X136353524Y-115926890D01*
X136398175Y-116074099D01*
X136474217Y-116233747D01*
X136315843Y-116318400D01*
X136144235Y-116459235D01*
X136131297Y-116475000D01*
X134662239Y-116475000D01*
X133400349Y-115213110D01*
X136353524Y-115213110D01*
X136474845Y-115443000D01*
X137668000Y-115443000D01*
X137668000Y-114249186D01*
X137922000Y-114249186D01*
X137922000Y-115443000D01*
X139115155Y-115443000D01*
X139236476Y-115213110D01*
X139191825Y-115065901D01*
X139066641Y-114803080D01*
X138892588Y-114569731D01*
X138676355Y-114374822D01*
X138426252Y-114225843D01*
X138151891Y-114128519D01*
X137922000Y-114249186D01*
X137668000Y-114249186D01*
X137438109Y-114128519D01*
X137163748Y-114225843D01*
X136913645Y-114374822D01*
X136697412Y-114569731D01*
X136523359Y-114803080D01*
X136398175Y-115065901D01*
X136353524Y-115213110D01*
X133400349Y-115213110D01*
X132657925Y-114470687D01*
X132606714Y-114408286D01*
X132357752Y-114203969D01*
X132073715Y-114052148D01*
X131765516Y-113958657D01*
X131525322Y-113935000D01*
X131525319Y-113935000D01*
X131445000Y-113927089D01*
X131364681Y-113935000D01*
X131107356Y-113935000D01*
X131140456Y-113885462D01*
X131276596Y-113556791D01*
X131346000Y-113207875D01*
X131346000Y-112852125D01*
X131276596Y-112503209D01*
X131140456Y-112174538D01*
X130942811Y-111878742D01*
X130824069Y-111760000D01*
X130942811Y-111641258D01*
X131140456Y-111345462D01*
X131276596Y-111016791D01*
X131346000Y-110667875D01*
X131346000Y-110312125D01*
X131276596Y-109963209D01*
X131140456Y-109634538D01*
X130942811Y-109338742D01*
X130824069Y-109220000D01*
X130942811Y-109101258D01*
X131140456Y-108805462D01*
X131276596Y-108476791D01*
X131346000Y-108127875D01*
X131346000Y-107772125D01*
X131276596Y-107423209D01*
X131140456Y-107094538D01*
X130942811Y-106798742D01*
X130824069Y-106680000D01*
X130942811Y-106561258D01*
X131140456Y-106265462D01*
X131276596Y-105936791D01*
X131346000Y-105587875D01*
X131346000Y-105232125D01*
X131276596Y-104883209D01*
X131140456Y-104554538D01*
X130942811Y-104258742D01*
X130824069Y-104140000D01*
X130942811Y-104021258D01*
X131140456Y-103725462D01*
X131218123Y-103537956D01*
X131348969Y-103782751D01*
X131553286Y-104031714D01*
X131615687Y-104082925D01*
X134042080Y-106509319D01*
X134093286Y-106571714D01*
X134342248Y-106776031D01*
X134626285Y-106927852D01*
X134934484Y-107021343D01*
X135174678Y-107045000D01*
X135174680Y-107045000D01*
X135254999Y-107052911D01*
X135335319Y-107045000D01*
X136131297Y-107045000D01*
X136144235Y-107060765D01*
X136315843Y-107201600D01*
X136511629Y-107306250D01*
X136724069Y-107370693D01*
X136945000Y-107392453D01*
X138645000Y-107392453D01*
X138865931Y-107370693D01*
X139078371Y-107306250D01*
X139274157Y-107201600D01*
X139445765Y-107060765D01*
X139586600Y-106889157D01*
X139691250Y-106693371D01*
X139755693Y-106480931D01*
X139777453Y-106260000D01*
X139777453Y-104560000D01*
X139755693Y-104339069D01*
X139691250Y-104126629D01*
X139586600Y-103930843D01*
X139445765Y-103759235D01*
X139274157Y-103618400D01*
X139115783Y-103533747D01*
X139191825Y-103374099D01*
X139236476Y-103226890D01*
X139115155Y-102997000D01*
X137922000Y-102997000D01*
X137922000Y-103017000D01*
X137668000Y-103017000D01*
X137668000Y-102997000D01*
X136474845Y-102997000D01*
X136353524Y-103226890D01*
X136398175Y-103374099D01*
X136474217Y-103533747D01*
X136315843Y-103618400D01*
X136144235Y-103759235D01*
X136131297Y-103775000D01*
X135932239Y-103775000D01*
X134670349Y-102513110D01*
X136353524Y-102513110D01*
X136474845Y-102743000D01*
X137668000Y-102743000D01*
X137668000Y-101549186D01*
X137922000Y-101549186D01*
X137922000Y-102743000D01*
X139115155Y-102743000D01*
X139236476Y-102513110D01*
X139191825Y-102365901D01*
X139066641Y-102103080D01*
X138892588Y-101869731D01*
X138676355Y-101674822D01*
X138426252Y-101525843D01*
X138151891Y-101428519D01*
X137922000Y-101549186D01*
X137668000Y-101549186D01*
X137438109Y-101428519D01*
X137163748Y-101525843D01*
X136913645Y-101674822D01*
X136697412Y-101869731D01*
X136523359Y-102103080D01*
X136398175Y-102365901D01*
X136353524Y-102513110D01*
X134670349Y-102513110D01*
X134350000Y-102192762D01*
X134350000Y-94695322D01*
X134357911Y-94615000D01*
X134326343Y-94294483D01*
X134232852Y-93986285D01*
X134178163Y-93883969D01*
X134081031Y-93702248D01*
X133876714Y-93453286D01*
X133814318Y-93402079D01*
X132022925Y-91610687D01*
X131971714Y-91548286D01*
X131722752Y-91343969D01*
X131438715Y-91192148D01*
X131130516Y-91098657D01*
X131093955Y-91095056D01*
X131140456Y-91025462D01*
X131276596Y-90696791D01*
X131346000Y-90347875D01*
X131346000Y-89992125D01*
X131276596Y-89643209D01*
X131140456Y-89314538D01*
X130942811Y-89018742D01*
X130691258Y-88767189D01*
X130395462Y-88569544D01*
X130232394Y-88501999D01*
X129540000Y-87809605D01*
X128847606Y-88501999D01*
X128684538Y-88569544D01*
X128388742Y-88767189D01*
X128137189Y-89018742D01*
X127939544Y-89314538D01*
X127803404Y-89643209D01*
X127734000Y-89992125D01*
X127734000Y-90347875D01*
X127803404Y-90696791D01*
X127939544Y-91025462D01*
X127972644Y-91075000D01*
X119131558Y-91075000D01*
X119022777Y-91002315D01*
X118672085Y-90857053D01*
X118299793Y-90783000D01*
X117920207Y-90783000D01*
X117547915Y-90857053D01*
X117197223Y-91002315D01*
X116881609Y-91213201D01*
X116613201Y-91481609D01*
X116402315Y-91797223D01*
X116257053Y-92147915D01*
X116183000Y-92520207D01*
X116183000Y-92899793D01*
X116257053Y-93272085D01*
X116402315Y-93622777D01*
X116613201Y-93938391D01*
X116881609Y-94206799D01*
X117197223Y-94417685D01*
X117547915Y-94562947D01*
X117920207Y-94637000D01*
X118299793Y-94637000D01*
X118672085Y-94562947D01*
X119022777Y-94417685D01*
X119131558Y-94345000D01*
X127972644Y-94345000D01*
X127939544Y-94394538D01*
X127803404Y-94723209D01*
X127734000Y-95072125D01*
X127734000Y-95427875D01*
X127803404Y-95776791D01*
X127939544Y-96105462D01*
X128137189Y-96401258D01*
X128255931Y-96520000D01*
X128137189Y-96638742D01*
X127939544Y-96934538D01*
X127803404Y-97263209D01*
X127734000Y-97612125D01*
X127734000Y-97967875D01*
X127803404Y-98316791D01*
X127939544Y-98645462D01*
X128137189Y-98941258D01*
X128255931Y-99060000D01*
X128137189Y-99178742D01*
X127939544Y-99474538D01*
X127803404Y-99803209D01*
X127734000Y-100152125D01*
X127734000Y-100507875D01*
X127803404Y-100856791D01*
X127939544Y-101185462D01*
X128137189Y-101481258D01*
X128255931Y-101600000D01*
X128137189Y-101718742D01*
X127939544Y-102014538D01*
X127803404Y-102343209D01*
X127734000Y-102692125D01*
X127734000Y-103047875D01*
X127803404Y-103396791D01*
X127939544Y-103725462D01*
X128137189Y-104021258D01*
X128255931Y-104140000D01*
X128137189Y-104258742D01*
X127939544Y-104554538D01*
X127803404Y-104883209D01*
X127734000Y-105232125D01*
X127734000Y-105587875D01*
X127803404Y-105936791D01*
X127939544Y-106265462D01*
X128137189Y-106561258D01*
X128255931Y-106680000D01*
X128137189Y-106798742D01*
X127939544Y-107094538D01*
X127803404Y-107423209D01*
X127734000Y-107772125D01*
X127734000Y-108127875D01*
X127803404Y-108476791D01*
X127939544Y-108805462D01*
X128137189Y-109101258D01*
X128255931Y-109220000D01*
X128137189Y-109338742D01*
X127939544Y-109634538D01*
X127803404Y-109963209D01*
X127734000Y-110312125D01*
X127734000Y-110667875D01*
X127803404Y-111016791D01*
X127939544Y-111345462D01*
X128137189Y-111641258D01*
X128255931Y-111760000D01*
X128137189Y-111878742D01*
X127939544Y-112174538D01*
X127803404Y-112503209D01*
X127734000Y-112852125D01*
X127734000Y-113207875D01*
X127803404Y-113556791D01*
X127939544Y-113885462D01*
X127972644Y-113935000D01*
X119131558Y-113935000D01*
X119022777Y-113862315D01*
X118672085Y-113717053D01*
X118299793Y-113643000D01*
X117920207Y-113643000D01*
X117547915Y-113717053D01*
X117197223Y-113862315D01*
X116881609Y-114073201D01*
X116613201Y-114341609D01*
X116402315Y-114657223D01*
X116257053Y-115007915D01*
X116183000Y-115380207D01*
X116183000Y-115759793D01*
X116257053Y-116132085D01*
X116402315Y-116482777D01*
X116613201Y-116798391D01*
X116881609Y-117066799D01*
X117197223Y-117277685D01*
X117547915Y-117422947D01*
X117920207Y-117497000D01*
X118299793Y-117497000D01*
X118672085Y-117422947D01*
X119022777Y-117277685D01*
X119131558Y-117205000D01*
X127972644Y-117205000D01*
X127939544Y-117254538D01*
X127803404Y-117583209D01*
X127734000Y-117932125D01*
X127734000Y-118287875D01*
X127803404Y-118636791D01*
X127939544Y-118965462D01*
X128137189Y-119261258D01*
X128255931Y-119380000D01*
X128137189Y-119498742D01*
X127939544Y-119794538D01*
X127803404Y-120123209D01*
X127734000Y-120472125D01*
X127734000Y-120827875D01*
X127803404Y-121176791D01*
X127939544Y-121505462D01*
X128137189Y-121801258D01*
X128255931Y-121920000D01*
X128137189Y-122038742D01*
X127939544Y-122334538D01*
X127803404Y-122663209D01*
X127734000Y-123012125D01*
X127734000Y-123367875D01*
X127803404Y-123716791D01*
X127939544Y-124045462D01*
X128137189Y-124341258D01*
X128255931Y-124460000D01*
X128137189Y-124578742D01*
X127939544Y-124874538D01*
X127803404Y-125203209D01*
X127734000Y-125552125D01*
X127734000Y-125907875D01*
X127803404Y-126256791D01*
X127939544Y-126585462D01*
X128137189Y-126881258D01*
X128255931Y-127000000D01*
X128137189Y-127118742D01*
X127939544Y-127414538D01*
X127803404Y-127743209D01*
X127734000Y-128092125D01*
X127734000Y-128447875D01*
X127803404Y-128796791D01*
X127939544Y-129125462D01*
X128137189Y-129421258D01*
X128255931Y-129540000D01*
X128137189Y-129658742D01*
X127939544Y-129954538D01*
X127803404Y-130283209D01*
X127734000Y-130632125D01*
X127734000Y-130987875D01*
X127803404Y-131336791D01*
X127939544Y-131665462D01*
X128131671Y-131953000D01*
X127939544Y-132240538D01*
X127803404Y-132569209D01*
X127734000Y-132918125D01*
X127734000Y-133273875D01*
X127803404Y-133622791D01*
X127815522Y-133652046D01*
X127738153Y-133574677D01*
X127686942Y-133512276D01*
X127437980Y-133307959D01*
X127153943Y-133156138D01*
X126845744Y-133062647D01*
X126605550Y-133038990D01*
X126605547Y-133038990D01*
X126525228Y-133031079D01*
X126444909Y-133038990D01*
X120676332Y-133038990D01*
X120596010Y-133031079D01*
X120275493Y-133062647D01*
X119967295Y-133156138D01*
X119683258Y-133307959D01*
X119434296Y-133512276D01*
X119383089Y-133574672D01*
X118280686Y-134677076D01*
X118218286Y-134728286D01*
X118013969Y-134977249D01*
X117862148Y-135261286D01*
X117768657Y-135569485D01*
X117746547Y-135793970D01*
X117737089Y-135890000D01*
X117745000Y-135970320D01*
X117745000Y-136862645D01*
X117695462Y-136829544D01*
X117366791Y-136693404D01*
X117017875Y-136624000D01*
X116662125Y-136624000D01*
X116313209Y-136693404D01*
X115984538Y-136829544D01*
X115688742Y-137027189D01*
X115570000Y-137145931D01*
X115451258Y-137027189D01*
X115155462Y-136829544D01*
X114826791Y-136693404D01*
X114477875Y-136624000D01*
X114122125Y-136624000D01*
X113773209Y-136693404D01*
X113444538Y-136829544D01*
X113148742Y-137027189D01*
X113030000Y-137145931D01*
X112911258Y-137027189D01*
X112615462Y-136829544D01*
X112286791Y-136693404D01*
X111937875Y-136624000D01*
X111582125Y-136624000D01*
X111233209Y-136693404D01*
X110904538Y-136829544D01*
X110608742Y-137027189D01*
X110490000Y-137145931D01*
X110371258Y-137027189D01*
X110075462Y-136829544D01*
X109746791Y-136693404D01*
X109397875Y-136624000D01*
X109042125Y-136624000D01*
X108693209Y-136693404D01*
X108364538Y-136829544D01*
X108068742Y-137027189D01*
X107950000Y-137145931D01*
X107831258Y-137027189D01*
X107535462Y-136829544D01*
X107206791Y-136693404D01*
X106857875Y-136624000D01*
X106502125Y-136624000D01*
X106153209Y-136693404D01*
X105824538Y-136829544D01*
X105528742Y-137027189D01*
X105410000Y-137145931D01*
X105291258Y-137027189D01*
X104995462Y-136829544D01*
X104666791Y-136693404D01*
X104317875Y-136624000D01*
X103962125Y-136624000D01*
X103613209Y-136693404D01*
X103284538Y-136829544D01*
X102988742Y-137027189D01*
X102870000Y-137145931D01*
X102751258Y-137027189D01*
X102455462Y-136829544D01*
X102126791Y-136693404D01*
X101777875Y-136624000D01*
X101422125Y-136624000D01*
X101073209Y-136693404D01*
X100744538Y-136829544D01*
X100448742Y-137027189D01*
X100330000Y-137145931D01*
X100211258Y-137027189D01*
X99915462Y-136829544D01*
X99586791Y-136693404D01*
X99237875Y-136624000D01*
X98882125Y-136624000D01*
X98533209Y-136693404D01*
X98204538Y-136829544D01*
X97908742Y-137027189D01*
X97790000Y-137145931D01*
X97671258Y-137027189D01*
X97375462Y-136829544D01*
X97046791Y-136693404D01*
X96697875Y-136624000D01*
X96342125Y-136624000D01*
X95993209Y-136693404D01*
X95664538Y-136829544D01*
X95368742Y-137027189D01*
X95250000Y-137145931D01*
X95131258Y-137027189D01*
X94835462Y-136829544D01*
X94506791Y-136693404D01*
X94157875Y-136624000D01*
X93802125Y-136624000D01*
X93453209Y-136693404D01*
X93124538Y-136829544D01*
X92828742Y-137027189D01*
X92710000Y-137145931D01*
X92591258Y-137027189D01*
X92295462Y-136829544D01*
X91966791Y-136693404D01*
X91617875Y-136624000D01*
X91262125Y-136624000D01*
X90913209Y-136693404D01*
X90584538Y-136829544D01*
X90288742Y-137027189D01*
X90170000Y-137145931D01*
X90051258Y-137027189D01*
X89755462Y-136829544D01*
X89426791Y-136693404D01*
X89077875Y-136624000D01*
X88722125Y-136624000D01*
X88373209Y-136693404D01*
X88044538Y-136829544D01*
X87748742Y-137027189D01*
X87630000Y-137145931D01*
X87511258Y-137027189D01*
X87215462Y-136829544D01*
X86886791Y-136693404D01*
X86537875Y-136624000D01*
X86182125Y-136624000D01*
X85833209Y-136693404D01*
X85504538Y-136829544D01*
X85208742Y-137027189D01*
X85090000Y-137145931D01*
X84971258Y-137027189D01*
X84675462Y-136829544D01*
X84346791Y-136693404D01*
X83997875Y-136624000D01*
X83642125Y-136624000D01*
X83293209Y-136693404D01*
X82964538Y-136829544D01*
X82668742Y-137027189D01*
X82550000Y-137145931D01*
X82479078Y-137075009D01*
X82571719Y-137036636D01*
X83018361Y-136738199D01*
X83398199Y-136358361D01*
X83696636Y-135911719D01*
X83902203Y-135415437D01*
X84007000Y-134888586D01*
X84007000Y-134351414D01*
X83902203Y-133824563D01*
X83696636Y-133328281D01*
X83398199Y-132881639D01*
X83018361Y-132501801D01*
X82571719Y-132203364D01*
X82479078Y-132164991D01*
X82682811Y-131961258D01*
X82880456Y-131665462D01*
X83016596Y-131336791D01*
X83086000Y-130987875D01*
X83086000Y-130632125D01*
X83016596Y-130283209D01*
X82880456Y-129954538D01*
X82682811Y-129658742D01*
X82564069Y-129540000D01*
X82682811Y-129421258D01*
X82880456Y-129125462D01*
X83016596Y-128796791D01*
X83086000Y-128447875D01*
X83086000Y-128092125D01*
X83016596Y-127743209D01*
X82880456Y-127414538D01*
X82682811Y-127118742D01*
X82564069Y-127000000D01*
X82682811Y-126881258D01*
X82880456Y-126585462D01*
X83016596Y-126256791D01*
X83086000Y-125907875D01*
X83086000Y-125552125D01*
X83016596Y-125203209D01*
X82880456Y-124874538D01*
X82682811Y-124578742D01*
X82564069Y-124460000D01*
X82682811Y-124341258D01*
X82880456Y-124045462D01*
X83016596Y-123716791D01*
X83086000Y-123367875D01*
X83086000Y-123012125D01*
X83016596Y-122663209D01*
X82880456Y-122334538D01*
X82682811Y-122038742D01*
X82564069Y-121920000D01*
X82682811Y-121801258D01*
X82880456Y-121505462D01*
X83016596Y-121176791D01*
X83086000Y-120827875D01*
X83086000Y-120472125D01*
X83016596Y-120123209D01*
X82880456Y-119794538D01*
X82682811Y-119498742D01*
X82564069Y-119380000D01*
X82682811Y-119261258D01*
X82880456Y-118965462D01*
X83016596Y-118636791D01*
X83086000Y-118287875D01*
X83086000Y-117932125D01*
X83016596Y-117583209D01*
X82880456Y-117254538D01*
X82847356Y-117205000D01*
X106928442Y-117205000D01*
X107037223Y-117277685D01*
X107387915Y-117422947D01*
X107760207Y-117497000D01*
X108139793Y-117497000D01*
X108512085Y-117422947D01*
X108862777Y-117277685D01*
X109178391Y-117066799D01*
X109446799Y-116798391D01*
X109657685Y-116482777D01*
X109802947Y-116132085D01*
X109877000Y-115759793D01*
X109877000Y-115380207D01*
X109802947Y-115007915D01*
X109657685Y-114657223D01*
X109446799Y-114341609D01*
X109178391Y-114073201D01*
X108862777Y-113862315D01*
X108512085Y-113717053D01*
X108139793Y-113643000D01*
X107760207Y-113643000D01*
X107387915Y-113717053D01*
X107037223Y-113862315D01*
X106928442Y-113935000D01*
X88402238Y-113935000D01*
X92115824Y-110221414D01*
X93793000Y-110221414D01*
X93793000Y-110758586D01*
X93897797Y-111285437D01*
X94103364Y-111781719D01*
X94401801Y-112228361D01*
X94781639Y-112608199D01*
X95228281Y-112906636D01*
X95724563Y-113112203D01*
X96251414Y-113217000D01*
X96788586Y-113217000D01*
X97315437Y-113112203D01*
X97811719Y-112906636D01*
X98258361Y-112608199D01*
X98638199Y-112228361D01*
X98936636Y-111781719D01*
X99142203Y-111285437D01*
X99247000Y-110758586D01*
X99247000Y-110221414D01*
X121733000Y-110221414D01*
X121733000Y-110758586D01*
X121837797Y-111285437D01*
X122043364Y-111781719D01*
X122341801Y-112228361D01*
X122721639Y-112608199D01*
X123168281Y-112906636D01*
X123664563Y-113112203D01*
X124191414Y-113217000D01*
X124728586Y-113217000D01*
X125255437Y-113112203D01*
X125751719Y-112906636D01*
X126198361Y-112608199D01*
X126578199Y-112228361D01*
X126876636Y-111781719D01*
X127082203Y-111285437D01*
X127187000Y-110758586D01*
X127187000Y-110221414D01*
X127082203Y-109694563D01*
X126876636Y-109198281D01*
X126578199Y-108751639D01*
X126198361Y-108371801D01*
X125751719Y-108073364D01*
X125255437Y-107867797D01*
X124728586Y-107763000D01*
X124191414Y-107763000D01*
X123664563Y-107867797D01*
X123168281Y-108073364D01*
X122721639Y-108371801D01*
X122341801Y-108751639D01*
X122043364Y-109198281D01*
X121837797Y-109694563D01*
X121733000Y-110221414D01*
X99247000Y-110221414D01*
X99142203Y-109694563D01*
X98936636Y-109198281D01*
X98638199Y-108751639D01*
X98258361Y-108371801D01*
X97811719Y-108073364D01*
X97315437Y-107867797D01*
X96788586Y-107763000D01*
X96251414Y-107763000D01*
X95724563Y-107867797D01*
X95228281Y-108073364D01*
X94781639Y-108371801D01*
X94401801Y-108751639D01*
X94103364Y-109198281D01*
X93897797Y-109694563D01*
X93793000Y-110221414D01*
X92115824Y-110221414D01*
X97619320Y-104717919D01*
X97681714Y-104666714D01*
X97886031Y-104417752D01*
X98037852Y-104133715D01*
X98131343Y-103825516D01*
X98155000Y-103585322D01*
X98155000Y-103585320D01*
X98162911Y-103505001D01*
X98155000Y-103424681D01*
X98155000Y-98467238D01*
X102277239Y-94345000D01*
X106928442Y-94345000D01*
X107037223Y-94417685D01*
X107387915Y-94562947D01*
X107760207Y-94637000D01*
X108139793Y-94637000D01*
X108512085Y-94562947D01*
X108862777Y-94417685D01*
X109178391Y-94206799D01*
X109446799Y-93938391D01*
X109657685Y-93622777D01*
X109802947Y-93272085D01*
X109877000Y-92899793D01*
X109877000Y-92520207D01*
X109802947Y-92147915D01*
X109657685Y-91797223D01*
X109446799Y-91481609D01*
X109178391Y-91213201D01*
X108862777Y-91002315D01*
X108512085Y-90857053D01*
X108139793Y-90783000D01*
X107760207Y-90783000D01*
X107387915Y-90857053D01*
X107037223Y-91002315D01*
X106928442Y-91075000D01*
X101680319Y-91075000D01*
X101600000Y-91067089D01*
X101519680Y-91075000D01*
X101519678Y-91075000D01*
X101279484Y-91098657D01*
X100971285Y-91192148D01*
X100687248Y-91343969D01*
X100438286Y-91548286D01*
X100387080Y-91610681D01*
X95420682Y-96577080D01*
X95358287Y-96628286D01*
X95175958Y-96850456D01*
X95153970Y-96877248D01*
X95002148Y-97161286D01*
X94908658Y-97469484D01*
X94877089Y-97790000D01*
X94885001Y-97870329D01*
X94885000Y-102827761D01*
X86317762Y-111395000D01*
X84592238Y-111395000D01*
X86824320Y-109162919D01*
X86886714Y-109111714D01*
X87091031Y-108862752D01*
X87242852Y-108578715D01*
X87336343Y-108270516D01*
X87360000Y-108030322D01*
X87360000Y-108030320D01*
X87367911Y-107950001D01*
X87360000Y-107869681D01*
X87360000Y-87705305D01*
X128221792Y-87705305D01*
X128261812Y-87961029D01*
X128350953Y-88204030D01*
X128402112Y-88299743D01*
X128633740Y-88356655D01*
X129360395Y-87630000D01*
X129719605Y-87630000D01*
X130446260Y-88356655D01*
X130677888Y-88299743D01*
X130786684Y-88064884D01*
X130847571Y-87813312D01*
X130858208Y-87554695D01*
X130818188Y-87298971D01*
X130729047Y-87055970D01*
X130677888Y-86960257D01*
X130446260Y-86903345D01*
X129719605Y-87630000D01*
X129360395Y-87630000D01*
X128633740Y-86903345D01*
X128402112Y-86960257D01*
X128293316Y-87195116D01*
X128232429Y-87446688D01*
X128221792Y-87705305D01*
X87360000Y-87705305D01*
X87360000Y-85996260D01*
X128813345Y-85996260D01*
X128870257Y-86227888D01*
X129105116Y-86336684D01*
X129192534Y-86357842D01*
X128965970Y-86440953D01*
X128870257Y-86492112D01*
X128813345Y-86723740D01*
X129540000Y-87450395D01*
X130266655Y-86723740D01*
X130209743Y-86492112D01*
X129974884Y-86383316D01*
X129887466Y-86362158D01*
X130114030Y-86279047D01*
X130209743Y-86227888D01*
X130266655Y-85996260D01*
X129540000Y-85269605D01*
X128813345Y-85996260D01*
X87360000Y-85996260D01*
X87360000Y-85805319D01*
X87367911Y-85724999D01*
X87348201Y-85524884D01*
X87336343Y-85404484D01*
X87242852Y-85096285D01*
X87091031Y-84812248D01*
X86886714Y-84563286D01*
X86824318Y-84512080D01*
X84778925Y-82466687D01*
X84727714Y-82404286D01*
X84478752Y-82199969D01*
X84194715Y-82048148D01*
X83886516Y-81954657D01*
X83646322Y-81931000D01*
X83646319Y-81931000D01*
X83566000Y-81923089D01*
X83485681Y-81931000D01*
X82847356Y-81931000D01*
X82880456Y-81881462D01*
X83016596Y-81552791D01*
X83086000Y-81203875D01*
X83086000Y-80848125D01*
X83016596Y-80499209D01*
X82880456Y-80170538D01*
X82682811Y-79874742D01*
X82564069Y-79756000D01*
X82682811Y-79637258D01*
X82880456Y-79341462D01*
X83016596Y-79012791D01*
X83086000Y-78663875D01*
X83086000Y-78308125D01*
X83016596Y-77959209D01*
X82880456Y-77630538D01*
X82682811Y-77334742D01*
X82564069Y-77216000D01*
X82682811Y-77097258D01*
X82880456Y-76801462D01*
X83016596Y-76472791D01*
X83086000Y-76123875D01*
X83086000Y-75768125D01*
X83016596Y-75419209D01*
X82880456Y-75090538D01*
X82682811Y-74794742D01*
X82564069Y-74676000D01*
X82682811Y-74557258D01*
X82880456Y-74261462D01*
X83016596Y-73932791D01*
X83086000Y-73583875D01*
X83086000Y-73228125D01*
X83016596Y-72879209D01*
X82880456Y-72550538D01*
X82682811Y-72254742D01*
X82431258Y-72003189D01*
X82135462Y-71805544D01*
X81972394Y-71737999D01*
X81280000Y-71045605D01*
X80587606Y-71737999D01*
X80424538Y-71805544D01*
X80128742Y-72003189D01*
X79877189Y-72254742D01*
X79679544Y-72550538D01*
X79543404Y-72879209D01*
X79474000Y-73228125D01*
X79474000Y-73583875D01*
X79543404Y-73932791D01*
X79679544Y-74261462D01*
X79877189Y-74557258D01*
X79995931Y-74676000D01*
X79877189Y-74794742D01*
X79784980Y-74932742D01*
X77492925Y-72640687D01*
X77441714Y-72578286D01*
X77192752Y-72373969D01*
X76908715Y-72222148D01*
X76600516Y-72128657D01*
X76360322Y-72105000D01*
X76360319Y-72105000D01*
X76280000Y-72097089D01*
X76199681Y-72105000D01*
X68106994Y-72105000D01*
X68080524Y-72065385D01*
X67714615Y-71699476D01*
X67284351Y-71411983D01*
X66806268Y-71213954D01*
X66298737Y-71113000D01*
X65781263Y-71113000D01*
X65273732Y-71213954D01*
X64795649Y-71411983D01*
X64365385Y-71699476D01*
X63999476Y-72065385D01*
X63711983Y-72495649D01*
X63513954Y-72973732D01*
X63413000Y-73481263D01*
X63413000Y-73998737D01*
X63513954Y-74506268D01*
X63711983Y-74984351D01*
X63999476Y-75414615D01*
X64365385Y-75780524D01*
X64795649Y-76068017D01*
X65210852Y-76240000D01*
X64795649Y-76411983D01*
X64365385Y-76699476D01*
X63999476Y-77065385D01*
X63711983Y-77495649D01*
X63513954Y-77973732D01*
X63413000Y-78481263D01*
X63413000Y-78998737D01*
X63513954Y-79506268D01*
X63711983Y-79984351D01*
X63999476Y-80414615D01*
X64365385Y-80780524D01*
X64795649Y-81068017D01*
X64891083Y-81107547D01*
X64540000Y-81107547D01*
X64319069Y-81129307D01*
X64106629Y-81193750D01*
X63910843Y-81298400D01*
X63739235Y-81439235D01*
X63598400Y-81610843D01*
X63493750Y-81806629D01*
X63429307Y-82019069D01*
X63407547Y-82240000D01*
X63407547Y-84060214D01*
X62595000Y-84872761D01*
X62595000Y-70941305D01*
X79961792Y-70941305D01*
X80001812Y-71197029D01*
X80090953Y-71440030D01*
X80142112Y-71535743D01*
X80373740Y-71592655D01*
X81100395Y-70866000D01*
X81459605Y-70866000D01*
X82186260Y-71592655D01*
X82417888Y-71535743D01*
X82526684Y-71300884D01*
X82587571Y-71049312D01*
X82598208Y-70790695D01*
X82558188Y-70534971D01*
X82469047Y-70291970D01*
X82417888Y-70196257D01*
X82186260Y-70139345D01*
X81459605Y-70866000D01*
X81100395Y-70866000D01*
X80373740Y-70139345D01*
X80142112Y-70196257D01*
X80033316Y-70431116D01*
X79972429Y-70682688D01*
X79961792Y-70941305D01*
X62595000Y-70941305D01*
X62595000Y-70231653D01*
X64727952Y-70231653D01*
X64883962Y-70547214D01*
X65258745Y-70738020D01*
X65663551Y-70852044D01*
X66082824Y-70884902D01*
X66500451Y-70835334D01*
X66900383Y-70705243D01*
X67196038Y-70547214D01*
X67352048Y-70231653D01*
X66040000Y-68919605D01*
X64727952Y-70231653D01*
X62595000Y-70231653D01*
X62595000Y-69257238D01*
X64195978Y-67656260D01*
X64041980Y-67958745D01*
X63927956Y-68363551D01*
X63895098Y-68782824D01*
X63944666Y-69200451D01*
X64074757Y-69600383D01*
X64232786Y-69896038D01*
X64548347Y-70052048D01*
X65860395Y-68740000D01*
X66219605Y-68740000D01*
X67531653Y-70052048D01*
X67847214Y-69896038D01*
X68038020Y-69521255D01*
X68152044Y-69116449D01*
X68184902Y-68697176D01*
X68135334Y-68279549D01*
X68005243Y-67879617D01*
X67847214Y-67583962D01*
X67531653Y-67427952D01*
X66219605Y-68740000D01*
X65860395Y-68740000D01*
X65846253Y-68725858D01*
X66025858Y-68546253D01*
X66040000Y-68560395D01*
X67352048Y-67248347D01*
X67196038Y-66932786D01*
X66821255Y-66741980D01*
X66416449Y-66627956D01*
X65997176Y-66595098D01*
X65579549Y-66644666D01*
X65179617Y-66774757D01*
X64960205Y-66892034D01*
X65719786Y-66132453D01*
X67540000Y-66132453D01*
X67760931Y-66110693D01*
X67973371Y-66046250D01*
X68169157Y-65941600D01*
X68340765Y-65800765D01*
X68481600Y-65629157D01*
X68586250Y-65433371D01*
X68650693Y-65220931D01*
X68672453Y-65000000D01*
X68672453Y-62000000D01*
X68650693Y-61779069D01*
X68586250Y-61566629D01*
X68481600Y-61370843D01*
X68340765Y-61199235D01*
X68169157Y-61058400D01*
X67973371Y-60953750D01*
X67760931Y-60889307D01*
X67540000Y-60867547D01*
X67188917Y-60867547D01*
X67284351Y-60828017D01*
X67714615Y-60540524D01*
X68080524Y-60174615D01*
X68106994Y-60135000D01*
X70522762Y-60135000D01*
X72025001Y-61637240D01*
X72025000Y-63419680D01*
X72017089Y-63500000D01*
X72025000Y-63580319D01*
X72025000Y-63580321D01*
X72048657Y-63820515D01*
X72142148Y-64128714D01*
X72293969Y-64412751D01*
X72498286Y-64661714D01*
X72560687Y-64712925D01*
X74733080Y-66885318D01*
X74784286Y-66947714D01*
X75033248Y-67152031D01*
X75317285Y-67303852D01*
X75625484Y-67397343D01*
X75865678Y-67421000D01*
X75865680Y-67421000D01*
X75945999Y-67428911D01*
X76026319Y-67421000D01*
X79712644Y-67421000D01*
X79679544Y-67470538D01*
X79543404Y-67799209D01*
X79474000Y-68148125D01*
X79474000Y-68503875D01*
X79543404Y-68852791D01*
X79679544Y-69181462D01*
X79877189Y-69477258D01*
X80128742Y-69728811D01*
X80424538Y-69926456D01*
X80587606Y-69994001D01*
X81280000Y-70686395D01*
X81972394Y-69994001D01*
X82135462Y-69926456D01*
X82431258Y-69728811D01*
X82682811Y-69477258D01*
X82880456Y-69181462D01*
X83016596Y-68852791D01*
X83086000Y-68503875D01*
X83086000Y-68148125D01*
X83016596Y-67799209D01*
X82880456Y-67470538D01*
X82847356Y-67421000D01*
X125846761Y-67421000D01*
X123995687Y-69272075D01*
X123933286Y-69323286D01*
X123728969Y-69572249D01*
X123577148Y-69856286D01*
X123483657Y-70164485D01*
X123477903Y-70222911D01*
X123452089Y-70485000D01*
X123460000Y-70565320D01*
X123460001Y-80564671D01*
X123452089Y-80645000D01*
X123483658Y-80965516D01*
X123577148Y-81273714D01*
X123726318Y-81552791D01*
X123728970Y-81557752D01*
X123933287Y-81806714D01*
X123995682Y-81857920D01*
X125787079Y-83649318D01*
X125838286Y-83711714D01*
X126087248Y-83916031D01*
X126154751Y-83952112D01*
X126371285Y-84067852D01*
X126679483Y-84161343D01*
X127000000Y-84192911D01*
X127080322Y-84185000D01*
X128578602Y-84185000D01*
X128516997Y-84246605D01*
X128633738Y-84363346D01*
X128402112Y-84420257D01*
X128293316Y-84655116D01*
X128232429Y-84906688D01*
X128221792Y-85165305D01*
X128261812Y-85421029D01*
X128350953Y-85664030D01*
X128402112Y-85759743D01*
X128633740Y-85816655D01*
X129360395Y-85090000D01*
X129719605Y-85090000D01*
X130446260Y-85816655D01*
X130677888Y-85759743D01*
X130786684Y-85524884D01*
X130847571Y-85273312D01*
X130858208Y-85014695D01*
X130818188Y-84758971D01*
X130729047Y-84515970D01*
X130677888Y-84420257D01*
X130446260Y-84363345D01*
X129719605Y-85090000D01*
X129360395Y-85090000D01*
X129346253Y-85075858D01*
X129525858Y-84896253D01*
X129540000Y-84910395D01*
X130232394Y-84218001D01*
X130395462Y-84150456D01*
X130691258Y-83952811D01*
X130942811Y-83701258D01*
X131140456Y-83405462D01*
X131276596Y-83076791D01*
X131346000Y-82727875D01*
X131346000Y-82372125D01*
X131276596Y-82023209D01*
X131140456Y-81694538D01*
X130942811Y-81398742D01*
X130824069Y-81280000D01*
X130942811Y-81161258D01*
X131140456Y-80865462D01*
X131276596Y-80536791D01*
X131346000Y-80187875D01*
X131346000Y-79832125D01*
X131276596Y-79483209D01*
X131140456Y-79154538D01*
X130942811Y-78858742D01*
X130824069Y-78740000D01*
X130942811Y-78621258D01*
X131140456Y-78325462D01*
X131276596Y-77996791D01*
X131346000Y-77647875D01*
X131346000Y-77292125D01*
X131276596Y-76943209D01*
X131140456Y-76614538D01*
X130942811Y-76318742D01*
X130824069Y-76200000D01*
X130942811Y-76081258D01*
X131140456Y-75785462D01*
X131276596Y-75456791D01*
X131346000Y-75107875D01*
X131346000Y-74752125D01*
X131276596Y-74403209D01*
X131140456Y-74074538D01*
X131009345Y-73878317D01*
X131019765Y-73869765D01*
X131160600Y-73698157D01*
X131265250Y-73502371D01*
X131329693Y-73289931D01*
X131351453Y-73069000D01*
X131351453Y-71711000D01*
X131329693Y-71490069D01*
X131265250Y-71277629D01*
X131160600Y-71081843D01*
X131019765Y-70910235D01*
X130848157Y-70769400D01*
X130652371Y-70664750D01*
X130439931Y-70600307D01*
X130219000Y-70578547D01*
X128861000Y-70578547D01*
X128640069Y-70600307D01*
X128427629Y-70664750D01*
X128231843Y-70769400D01*
X128060235Y-70910235D01*
X127919400Y-71081843D01*
X127814750Y-71277629D01*
X127750307Y-71490069D01*
X127728547Y-71711000D01*
X127728547Y-73069000D01*
X127750307Y-73289931D01*
X127814750Y-73502371D01*
X127919400Y-73698157D01*
X128060235Y-73869765D01*
X128070655Y-73878317D01*
X127939544Y-74074538D01*
X127803404Y-74403209D01*
X127734000Y-74752125D01*
X127734000Y-75107875D01*
X127803404Y-75456791D01*
X127939544Y-75785462D01*
X128137189Y-76081258D01*
X128255931Y-76200000D01*
X128137189Y-76318742D01*
X127939544Y-76614538D01*
X127803404Y-76943209D01*
X127734000Y-77292125D01*
X127734000Y-77647875D01*
X127803404Y-77996791D01*
X127939544Y-78325462D01*
X128137189Y-78621258D01*
X128255931Y-78740000D01*
X128137189Y-78858742D01*
X127939544Y-79154538D01*
X127803404Y-79483209D01*
X127734000Y-79832125D01*
X127734000Y-80187875D01*
X127803404Y-80536791D01*
X127939544Y-80865462D01*
X127972644Y-80915000D01*
X127677239Y-80915000D01*
X126730000Y-79967762D01*
X126730000Y-71162238D01*
X128312239Y-69580000D01*
X141524681Y-69580000D01*
X141605000Y-69587911D01*
X141685319Y-69580000D01*
X141685322Y-69580000D01*
X141925516Y-69556343D01*
X142233715Y-69462852D01*
X142517752Y-69311031D01*
X142766714Y-69106714D01*
X142817925Y-69044313D01*
X145879319Y-65982920D01*
X145941714Y-65931714D01*
X146146031Y-65682752D01*
X146297852Y-65398715D01*
X146391343Y-65090516D01*
X146415000Y-64850322D01*
X146415000Y-64850320D01*
X146422911Y-64770001D01*
X146415000Y-64689681D01*
X146415000Y-57865319D01*
X146422911Y-57784999D01*
X146403434Y-57587248D01*
X146391343Y-57464484D01*
X146297852Y-57156285D01*
X146146031Y-56872248D01*
X145941714Y-56623286D01*
X145879320Y-56572081D01*
X143010325Y-53703087D01*
X142959114Y-53640686D01*
X142710152Y-53436369D01*
X142426115Y-53284548D01*
X142117916Y-53191057D01*
X141877722Y-53167400D01*
X141877719Y-53167400D01*
X141797400Y-53159489D01*
X141717081Y-53167400D01*
X140502781Y-53167400D01*
X140504502Y-53164180D01*
X140540812Y-53044482D01*
X140553072Y-52920000D01*
X140550000Y-52355750D01*
X140391250Y-52197000D01*
X139192000Y-52197000D01*
X139192000Y-52217000D01*
X138938000Y-52217000D01*
X138938000Y-52197000D01*
X137738750Y-52197000D01*
X137580000Y-52355750D01*
X137576928Y-52920000D01*
X137589188Y-53044482D01*
X137625498Y-53164180D01*
X137656646Y-53222454D01*
X137529364Y-53349736D01*
X137313005Y-53673539D01*
X137163975Y-54033330D01*
X137088000Y-54415282D01*
X137088000Y-54431305D01*
X137072657Y-54481884D01*
X137041089Y-54802400D01*
X137072657Y-55122916D01*
X137166148Y-55431115D01*
X137317969Y-55715152D01*
X137498793Y-55935488D01*
X137313005Y-56213539D01*
X137163975Y-56573330D01*
X137088000Y-56955282D01*
X137088000Y-56971305D01*
X137072657Y-57021884D01*
X137041089Y-57342400D01*
X137072657Y-57662916D01*
X137166148Y-57971115D01*
X137313825Y-58247400D01*
X132729922Y-58247400D01*
X132649600Y-58239489D01*
X132329083Y-58271057D01*
X132267000Y-58289890D01*
X132267000Y-58151414D01*
X132162203Y-57624563D01*
X131956636Y-57128281D01*
X131658199Y-56681639D01*
X131278361Y-56301801D01*
X130831719Y-56003364D01*
X130335437Y-55797797D01*
X129808586Y-55693000D01*
X129271414Y-55693000D01*
X128744563Y-55797797D01*
X128248281Y-56003364D01*
X127801639Y-56301801D01*
X127421801Y-56681639D01*
X127123364Y-57128281D01*
X126917797Y-57624563D01*
X126813000Y-58151414D01*
X126813000Y-58688586D01*
X126917797Y-59215437D01*
X127123364Y-59711719D01*
X127421801Y-60158361D01*
X127801639Y-60538199D01*
X128248281Y-60836636D01*
X128744563Y-61042203D01*
X129105720Y-61114041D01*
X128608762Y-61611000D01*
X83215560Y-61611000D01*
X83398199Y-61428361D01*
X83696636Y-60981719D01*
X83902203Y-60485437D01*
X84007000Y-59958586D01*
X84007000Y-59421414D01*
X83902203Y-58894563D01*
X83696636Y-58398281D01*
X83398199Y-57951639D01*
X83018361Y-57571801D01*
X82571719Y-57273364D01*
X82075437Y-57067797D01*
X81548586Y-56963000D01*
X81011414Y-56963000D01*
X80484563Y-57067797D01*
X79988281Y-57273364D01*
X79541639Y-57571801D01*
X79161801Y-57951639D01*
X78863364Y-58398281D01*
X78657797Y-58894563D01*
X78553000Y-59421414D01*
X78553000Y-59958586D01*
X78657797Y-60485437D01*
X78863364Y-60981719D01*
X79161801Y-61428361D01*
X79344440Y-61611000D01*
X79163239Y-61611000D01*
X77835000Y-60282762D01*
X77835000Y-58500322D01*
X77842911Y-58420000D01*
X77811343Y-58099483D01*
X77717852Y-57791285D01*
X77687089Y-57733732D01*
X77566031Y-57507248D01*
X77361714Y-57258286D01*
X77299325Y-57207085D01*
X72492925Y-52400687D01*
X72441714Y-52338286D01*
X72192752Y-52133969D01*
X71908715Y-51982148D01*
X71600516Y-51888657D01*
X71360322Y-51865000D01*
X71360319Y-51865000D01*
X71280000Y-51857089D01*
X71199681Y-51865000D01*
X68106994Y-51865000D01*
X68080524Y-51825385D01*
X67714615Y-51459476D01*
X67356214Y-51220000D01*
X137576928Y-51220000D01*
X137580000Y-51784250D01*
X137738750Y-51943000D01*
X138938000Y-51943000D01*
X138938000Y-50743750D01*
X139192000Y-50743750D01*
X139192000Y-51943000D01*
X140391250Y-51943000D01*
X140550000Y-51784250D01*
X140553072Y-51220000D01*
X140540812Y-51095518D01*
X140504502Y-50975820D01*
X140445537Y-50865506D01*
X140366185Y-50768815D01*
X140269494Y-50689463D01*
X140159180Y-50630498D01*
X140039482Y-50594188D01*
X139915000Y-50581928D01*
X139350750Y-50585000D01*
X139192000Y-50743750D01*
X138938000Y-50743750D01*
X138779250Y-50585000D01*
X138215000Y-50581928D01*
X138090518Y-50594188D01*
X137970820Y-50630498D01*
X137860506Y-50689463D01*
X137763815Y-50768815D01*
X137684463Y-50865506D01*
X137625498Y-50975820D01*
X137589188Y-51095518D01*
X137576928Y-51220000D01*
X67356214Y-51220000D01*
X67284351Y-51171983D01*
X66806268Y-50973954D01*
X66298737Y-50873000D01*
X65781263Y-50873000D01*
X65273732Y-50973954D01*
X64795649Y-51171983D01*
X64365385Y-51459476D01*
X63999476Y-51825385D01*
X63711983Y-52255649D01*
X63513954Y-52733732D01*
X63413000Y-53241263D01*
X63413000Y-53758737D01*
X63513954Y-54266268D01*
X63711983Y-54744351D01*
X63999476Y-55174615D01*
X64365385Y-55540524D01*
X64795649Y-55828017D01*
X65210852Y-56000000D01*
X64795649Y-56171983D01*
X64365385Y-56459476D01*
X63999476Y-56825385D01*
X63711983Y-57255649D01*
X63513954Y-57733732D01*
X63413000Y-58241263D01*
X63413000Y-58758737D01*
X63513954Y-59266268D01*
X63711983Y-59744351D01*
X63999476Y-60174615D01*
X64365385Y-60540524D01*
X64795649Y-60828017D01*
X64891083Y-60867547D01*
X64540000Y-60867547D01*
X64319069Y-60889307D01*
X64106629Y-60953750D01*
X63910843Y-61058400D01*
X63739235Y-61199235D01*
X63598400Y-61370843D01*
X63493750Y-61566629D01*
X63429307Y-61779069D01*
X63407547Y-62000000D01*
X63407547Y-63820214D01*
X59860682Y-67367080D01*
X59798287Y-67418286D01*
X59593970Y-67667248D01*
X59442148Y-67951286D01*
X59348658Y-68259484D01*
X59317089Y-68580000D01*
X57082000Y-68580000D01*
X57082000Y-49991653D01*
X64727952Y-49991653D01*
X64883962Y-50307214D01*
X65258745Y-50498020D01*
X65663551Y-50612044D01*
X66082824Y-50644902D01*
X66500451Y-50595334D01*
X66900383Y-50465243D01*
X67196038Y-50307214D01*
X67352048Y-49991653D01*
X66040000Y-48679605D01*
X64727952Y-49991653D01*
X57082000Y-49991653D01*
X57082000Y-48542824D01*
X63895098Y-48542824D01*
X63944666Y-48960451D01*
X64074757Y-49360383D01*
X64232786Y-49656038D01*
X64548347Y-49812048D01*
X65860395Y-48500000D01*
X64548347Y-47187952D01*
X64232786Y-47343962D01*
X64041980Y-47718745D01*
X63927956Y-48123551D01*
X63895098Y-48542824D01*
X57082000Y-48542824D01*
X57082000Y-47008347D01*
X64727952Y-47008347D01*
X66040000Y-48320395D01*
X67352048Y-47008347D01*
X67196038Y-46692786D01*
X66821255Y-46501980D01*
X66416449Y-46387956D01*
X65997176Y-46355098D01*
X65579549Y-46404666D01*
X65179617Y-46534757D01*
X64883962Y-46692786D01*
X64727952Y-47008347D01*
X57082000Y-47008347D01*
X57082000Y-44034500D01*
X67757286Y-44034500D01*
X67757286Y-47299503D01*
X67531653Y-47187952D01*
X66219605Y-48500000D01*
X67531653Y-49812048D01*
X67847214Y-49656038D01*
X68038020Y-49281255D01*
X68084991Y-49114500D01*
X144332715Y-49114500D01*
X144332715Y-44034500D01*
X144617715Y-44034500D01*
X144617715Y-36762000D01*
X147388000Y-36762000D01*
X147388001Y-163898000D01*
%TA.AperFunction,Conductor*%
D22*
G36*
X147388001Y-163898000D02*
G01*
X57082000Y-163898000D01*
X57082000Y-155932702D01*
X72846903Y-155932702D01*
X72918486Y-156176671D01*
X73173996Y-156297571D01*
X73448184Y-156366300D01*
X73730512Y-156380217D01*
X74010130Y-156338787D01*
X74276292Y-156243603D01*
X74401514Y-156176671D01*
X74473097Y-155932702D01*
X73660000Y-155119605D01*
X72846903Y-155932702D01*
X57082000Y-155932702D01*
X57082000Y-155010512D01*
X72219783Y-155010512D01*
X72261213Y-155290130D01*
X72356397Y-155556292D01*
X72423329Y-155681514D01*
X72667298Y-155753097D01*
X73480395Y-154940000D01*
X73839605Y-154940000D01*
X74652702Y-155753097D01*
X74896671Y-155681514D01*
X75017571Y-155426004D01*
X75086300Y-155151816D01*
X75100217Y-154869488D01*
X75058787Y-154589870D01*
X74963603Y-154323708D01*
X74896671Y-154198486D01*
X74652702Y-154126903D01*
X73839605Y-154940000D01*
X73480395Y-154940000D01*
X72667298Y-154126903D01*
X72423329Y-154198486D01*
X72302429Y-154453996D01*
X72233700Y-154728184D01*
X72219783Y-155010512D01*
X57082000Y-155010512D01*
X57082000Y-153947298D01*
X72846903Y-153947298D01*
X73660000Y-154760395D01*
X74473097Y-153947298D01*
X74401514Y-153703329D01*
X74146004Y-153582429D01*
X73871816Y-153513700D01*
X73589488Y-153499783D01*
X73309870Y-153541213D01*
X73043708Y-153636397D01*
X72918486Y-153703329D01*
X72846903Y-153947298D01*
X57082000Y-153947298D01*
X57082000Y-68580000D01*
X59317089Y-68580000D01*
X59325001Y-68660329D01*
X59325000Y-88739678D01*
X59317089Y-88820000D01*
X59325000Y-88900319D01*
X59325000Y-88900321D01*
X59325001Y-88900331D01*
X59325000Y-109139678D01*
X59317089Y-109220000D01*
X59325000Y-109300319D01*
X59325000Y-109300321D01*
X59325001Y-109300331D01*
X59325000Y-135809678D01*
X59317089Y-135890000D01*
X59325000Y-135970319D01*
X59325000Y-135970321D01*
X59348657Y-136210515D01*
X59442148Y-136518714D01*
X59593969Y-136802751D01*
X59798286Y-137051714D01*
X59860687Y-137102925D01*
X64827084Y-142069323D01*
X64878287Y-142131714D01*
X64940676Y-142182915D01*
X64940682Y-142182920D01*
X82607080Y-159849319D01*
X82658286Y-159911714D01*
X82907248Y-160116031D01*
X83191285Y-160267852D01*
X83499484Y-160361343D01*
X83739678Y-160385000D01*
X83739680Y-160385000D01*
X83819999Y-160392911D01*
X83900319Y-160385000D01*
X92629678Y-160385000D01*
X92710000Y-160392911D01*
X92790322Y-160385000D01*
X99614681Y-160385000D01*
X99695000Y-160392911D01*
X99775319Y-160385000D01*
X99775322Y-160385000D01*
X100015516Y-160361343D01*
X100323715Y-160267852D01*
X100607752Y-160116031D01*
X100856714Y-159911714D01*
X100907924Y-159849314D01*
X102064318Y-158692921D01*
X102126714Y-158641714D01*
X102331031Y-158392752D01*
X102482852Y-158108715D01*
X102576343Y-157800516D01*
X102600000Y-157560322D01*
X102600000Y-157560320D01*
X102607911Y-157480001D01*
X102600000Y-157399681D01*
X102600000Y-152043110D01*
X112223524Y-152043110D01*
X112344845Y-152273000D01*
X113538000Y-152273000D01*
X113538000Y-151079186D01*
X113792000Y-151079186D01*
X113792000Y-152273000D01*
X114985155Y-152273000D01*
X115106476Y-152043110D01*
X115061825Y-151895901D01*
X114936641Y-151633080D01*
X114762588Y-151399731D01*
X114546355Y-151204822D01*
X114296252Y-151055843D01*
X114021891Y-150958519D01*
X113792000Y-151079186D01*
X113538000Y-151079186D01*
X113308109Y-150958519D01*
X113033748Y-151055843D01*
X112783645Y-151204822D01*
X112567412Y-151399731D01*
X112393359Y-151633080D01*
X112268175Y-151895901D01*
X112223524Y-152043110D01*
X102600000Y-152043110D01*
X102600000Y-149305319D01*
X102607911Y-149224999D01*
X102600000Y-149144678D01*
X102576343Y-148904484D01*
X102482852Y-148596285D01*
X102331031Y-148312248D01*
X102126714Y-148063286D01*
X102064320Y-148012081D01*
X101737239Y-147685000D01*
X113622762Y-147685000D01*
X115205000Y-149267239D01*
X115205001Y-153198333D01*
X115144157Y-153148400D01*
X114985783Y-153063747D01*
X115061825Y-152904099D01*
X115106476Y-152756890D01*
X114985155Y-152527000D01*
X113792000Y-152527000D01*
X113792000Y-152547000D01*
X113538000Y-152547000D01*
X113538000Y-152527000D01*
X112344845Y-152527000D01*
X112223524Y-152756890D01*
X112268175Y-152904099D01*
X112344217Y-153063747D01*
X112185843Y-153148400D01*
X112014235Y-153289235D01*
X112001297Y-153305000D01*
X109606558Y-153305000D01*
X109497777Y-153232315D01*
X109147085Y-153087053D01*
X108774793Y-153013000D01*
X108395207Y-153013000D01*
X108022915Y-153087053D01*
X107672223Y-153232315D01*
X107356609Y-153443201D01*
X107088201Y-153711609D01*
X106877315Y-154027223D01*
X106732053Y-154377915D01*
X106658000Y-154750207D01*
X106658000Y-155129793D01*
X106732053Y-155502085D01*
X106877315Y-155852777D01*
X107088201Y-156168391D01*
X107356609Y-156436799D01*
X107672223Y-156647685D01*
X108022915Y-156792947D01*
X108395207Y-156867000D01*
X108774793Y-156867000D01*
X109147085Y-156792947D01*
X109497777Y-156647685D01*
X109606558Y-156575000D01*
X112001297Y-156575000D01*
X112014235Y-156590765D01*
X112185843Y-156731600D01*
X112381629Y-156836250D01*
X112594069Y-156900693D01*
X112815000Y-156922453D01*
X114515000Y-156922453D01*
X114735931Y-156900693D01*
X114948371Y-156836250D01*
X115144157Y-156731600D01*
X115205001Y-156681667D01*
X115205001Y-156764671D01*
X115197089Y-156845000D01*
X115228658Y-157165516D01*
X115322148Y-157473714D01*
X115416737Y-157650677D01*
X115473970Y-157757752D01*
X115678287Y-158006714D01*
X115740682Y-158057920D01*
X117532079Y-159849318D01*
X117583286Y-159911714D01*
X117832248Y-160116031D01*
X118116283Y-160267851D01*
X118116285Y-160267852D01*
X118424483Y-160361343D01*
X118745000Y-160392911D01*
X118825322Y-160385000D01*
X128824681Y-160385000D01*
X128905000Y-160392911D01*
X128985319Y-160385000D01*
X128985322Y-160385000D01*
X129225516Y-160361343D01*
X129533715Y-160267852D01*
X129817752Y-160116031D01*
X130066714Y-159911714D01*
X130117925Y-159849313D01*
X133179320Y-156787919D01*
X133241714Y-156736714D01*
X133446031Y-156487752D01*
X133597852Y-156203715D01*
X133691343Y-155895516D01*
X133715000Y-155655322D01*
X133715000Y-155655320D01*
X133722911Y-155575001D01*
X133715000Y-155494681D01*
X133715000Y-155152655D01*
X133770000Y-155158072D01*
X134334250Y-155155000D01*
X134493000Y-154996250D01*
X134493000Y-153797000D01*
X134747000Y-153797000D01*
X134747000Y-154996250D01*
X134905750Y-155155000D01*
X135470000Y-155158072D01*
X135594482Y-155145812D01*
X135714180Y-155109502D01*
X135824494Y-155050537D01*
X135921185Y-154971185D01*
X136000537Y-154874494D01*
X136059502Y-154764180D01*
X136095812Y-154644482D01*
X136108072Y-154520000D01*
X136105000Y-153955750D01*
X135946250Y-153797000D01*
X134747000Y-153797000D01*
X134493000Y-153797000D01*
X134473000Y-153797000D01*
X134473000Y-153543000D01*
X134493000Y-153543000D01*
X134493000Y-152343750D01*
X134747000Y-152343750D01*
X134747000Y-153543000D01*
X135946250Y-153543000D01*
X136105000Y-153384250D01*
X136108072Y-152820000D01*
X136095812Y-152695518D01*
X136059502Y-152575820D01*
X136000537Y-152465506D01*
X135921185Y-152368815D01*
X135824494Y-152289463D01*
X135714180Y-152230498D01*
X135594482Y-152194188D01*
X135470000Y-152181928D01*
X134905750Y-152185000D01*
X134747000Y-152343750D01*
X134493000Y-152343750D01*
X134334250Y-152185000D01*
X133770000Y-152181928D01*
X133645518Y-152194188D01*
X133525820Y-152230498D01*
X133467546Y-152261646D01*
X133340264Y-152134364D01*
X133016461Y-151918005D01*
X132656670Y-151768975D01*
X132274718Y-151693000D01*
X131885282Y-151693000D01*
X131503330Y-151768975D01*
X131175000Y-151904973D01*
X131175000Y-147997238D01*
X134449325Y-144722915D01*
X134511714Y-144671714D01*
X134716031Y-144422752D01*
X134867852Y-144138715D01*
X134961343Y-143830516D01*
X134985000Y-143590322D01*
X134985000Y-143590321D01*
X134992911Y-143510000D01*
X134985000Y-143429678D01*
X134985000Y-139780319D01*
X134992911Y-139699999D01*
X134979830Y-139567189D01*
X134961343Y-139379484D01*
X134867852Y-139071285D01*
X134716031Y-138787248D01*
X134511714Y-138538286D01*
X134449319Y-138487080D01*
X132022925Y-136060687D01*
X131971714Y-135998286D01*
X131722752Y-135793969D01*
X131438715Y-135642148D01*
X131346000Y-135614023D01*
X131346000Y-135458125D01*
X131276596Y-135109209D01*
X131140456Y-134780538D01*
X130942811Y-134484742D01*
X130824069Y-134366000D01*
X130942811Y-134247258D01*
X131140456Y-133951462D01*
X131276596Y-133622791D01*
X131346000Y-133273875D01*
X131346000Y-132918125D01*
X131276596Y-132569209D01*
X131140456Y-132240538D01*
X130948329Y-131953000D01*
X131140456Y-131665462D01*
X131276596Y-131336791D01*
X131346000Y-130987875D01*
X131346000Y-130632125D01*
X131276596Y-130283209D01*
X131140456Y-129954538D01*
X131061634Y-129836572D01*
X142258000Y-129836572D01*
X142258000Y-163533429D01*
X147062000Y-163533429D01*
X147062000Y-129836572D01*
X142258000Y-129836572D01*
X131061634Y-129836572D01*
X130942811Y-129658742D01*
X130824069Y-129540000D01*
X130942811Y-129421258D01*
X131140456Y-129125462D01*
X131276596Y-128796791D01*
X131346000Y-128447875D01*
X131346000Y-128092125D01*
X131276596Y-127743209D01*
X131140456Y-127414538D01*
X130942811Y-127118742D01*
X130824069Y-127000000D01*
X130942811Y-126881258D01*
X131140456Y-126585462D01*
X131276596Y-126256791D01*
X131346000Y-125907875D01*
X131346000Y-125552125D01*
X131276596Y-125203209D01*
X131140456Y-124874538D01*
X130942811Y-124578742D01*
X130824069Y-124460000D01*
X130942811Y-124341258D01*
X131140456Y-124045462D01*
X131276596Y-123716791D01*
X131346000Y-123367875D01*
X131346000Y-123012125D01*
X131276596Y-122663209D01*
X131140456Y-122334538D01*
X130942811Y-122038742D01*
X130824069Y-121920000D01*
X130942811Y-121801258D01*
X131140456Y-121505462D01*
X131276596Y-121176791D01*
X131346000Y-120827875D01*
X131346000Y-120472125D01*
X131276596Y-120123209D01*
X131140456Y-119794538D01*
X130942811Y-119498742D01*
X130824069Y-119380000D01*
X130942811Y-119261258D01*
X131140456Y-118965462D01*
X131276596Y-118636791D01*
X131346000Y-118287875D01*
X131346000Y-117932125D01*
X131309031Y-117746269D01*
X132772080Y-119209319D01*
X132823286Y-119271714D01*
X133072248Y-119476031D01*
X133356285Y-119627852D01*
X133664484Y-119721343D01*
X133904678Y-119745000D01*
X133904680Y-119745000D01*
X133984999Y-119752911D01*
X134065319Y-119745000D01*
X136131297Y-119745000D01*
X136144235Y-119760765D01*
X136315843Y-119901600D01*
X136511629Y-120006250D01*
X136724069Y-120070693D01*
X136945000Y-120092453D01*
X138645000Y-120092453D01*
X138865931Y-120070693D01*
X139078371Y-120006250D01*
X139274157Y-119901600D01*
X139445765Y-119760765D01*
X139586600Y-119589157D01*
X139691250Y-119393371D01*
X139755693Y-119180931D01*
X139777453Y-118960000D01*
X139777453Y-117260000D01*
X139755693Y-117039069D01*
X139691250Y-116826629D01*
X139586600Y-116630843D01*
X139445765Y-116459235D01*
X139274157Y-116318400D01*
X139115783Y-116233747D01*
X139191825Y-116074099D01*
X139236476Y-115926890D01*
X139115155Y-115697000D01*
X137922000Y-115697000D01*
X137922000Y-115717000D01*
X137668000Y-115717000D01*
X137668000Y-115697000D01*
X136474845Y-115697000D01*
X136353524Y-115926890D01*
X136398175Y-116074099D01*
X136474217Y-116233747D01*
X136315843Y-116318400D01*
X136144235Y-116459235D01*
X136131297Y-116475000D01*
X134662239Y-116475000D01*
X133400349Y-115213110D01*
X136353524Y-115213110D01*
X136474845Y-115443000D01*
X137668000Y-115443000D01*
X137668000Y-114249186D01*
X137922000Y-114249186D01*
X137922000Y-115443000D01*
X139115155Y-115443000D01*
X139236476Y-115213110D01*
X139191825Y-115065901D01*
X139066641Y-114803080D01*
X138892588Y-114569731D01*
X138676355Y-114374822D01*
X138426252Y-114225843D01*
X138151891Y-114128519D01*
X137922000Y-114249186D01*
X137668000Y-114249186D01*
X137438109Y-114128519D01*
X137163748Y-114225843D01*
X136913645Y-114374822D01*
X136697412Y-114569731D01*
X136523359Y-114803080D01*
X136398175Y-115065901D01*
X136353524Y-115213110D01*
X133400349Y-115213110D01*
X132657925Y-114470687D01*
X132606714Y-114408286D01*
X132357752Y-114203969D01*
X132073715Y-114052148D01*
X131765516Y-113958657D01*
X131525322Y-113935000D01*
X131525319Y-113935000D01*
X131445000Y-113927089D01*
X131364681Y-113935000D01*
X131107356Y-113935000D01*
X131140456Y-113885462D01*
X131276596Y-113556791D01*
X131346000Y-113207875D01*
X131346000Y-112852125D01*
X131276596Y-112503209D01*
X131140456Y-112174538D01*
X130942811Y-111878742D01*
X130824069Y-111760000D01*
X130942811Y-111641258D01*
X131140456Y-111345462D01*
X131276596Y-111016791D01*
X131346000Y-110667875D01*
X131346000Y-110312125D01*
X131276596Y-109963209D01*
X131140456Y-109634538D01*
X130942811Y-109338742D01*
X130824069Y-109220000D01*
X130942811Y-109101258D01*
X131140456Y-108805462D01*
X131276596Y-108476791D01*
X131346000Y-108127875D01*
X131346000Y-107772125D01*
X131276596Y-107423209D01*
X131140456Y-107094538D01*
X130942811Y-106798742D01*
X130824069Y-106680000D01*
X130942811Y-106561258D01*
X131140456Y-106265462D01*
X131276596Y-105936791D01*
X131346000Y-105587875D01*
X131346000Y-105232125D01*
X131276596Y-104883209D01*
X131140456Y-104554538D01*
X130942811Y-104258742D01*
X130824069Y-104140000D01*
X130942811Y-104021258D01*
X131140456Y-103725462D01*
X131218123Y-103537956D01*
X131348969Y-103782751D01*
X131553286Y-104031714D01*
X131615687Y-104082925D01*
X134042080Y-106509319D01*
X134093286Y-106571714D01*
X134342248Y-106776031D01*
X134626285Y-106927852D01*
X134934484Y-107021343D01*
X135174678Y-107045000D01*
X135174680Y-107045000D01*
X135254999Y-107052911D01*
X135335319Y-107045000D01*
X136131297Y-107045000D01*
X136144235Y-107060765D01*
X136315843Y-107201600D01*
X136511629Y-107306250D01*
X136724069Y-107370693D01*
X136945000Y-107392453D01*
X138645000Y-107392453D01*
X138865931Y-107370693D01*
X139078371Y-107306250D01*
X139274157Y-107201600D01*
X139445765Y-107060765D01*
X139586600Y-106889157D01*
X139691250Y-106693371D01*
X139755693Y-106480931D01*
X139777453Y-106260000D01*
X139777453Y-104560000D01*
X139755693Y-104339069D01*
X139691250Y-104126629D01*
X139586600Y-103930843D01*
X139445765Y-103759235D01*
X139274157Y-103618400D01*
X139115783Y-103533747D01*
X139191825Y-103374099D01*
X139236476Y-103226890D01*
X139115155Y-102997000D01*
X137922000Y-102997000D01*
X137922000Y-103017000D01*
X137668000Y-103017000D01*
X137668000Y-102997000D01*
X136474845Y-102997000D01*
X136353524Y-103226890D01*
X136398175Y-103374099D01*
X136474217Y-103533747D01*
X136315843Y-103618400D01*
X136144235Y-103759235D01*
X136131297Y-103775000D01*
X135932239Y-103775000D01*
X134670349Y-102513110D01*
X136353524Y-102513110D01*
X136474845Y-102743000D01*
X137668000Y-102743000D01*
X137668000Y-101549186D01*
X137922000Y-101549186D01*
X137922000Y-102743000D01*
X139115155Y-102743000D01*
X139236476Y-102513110D01*
X139191825Y-102365901D01*
X139066641Y-102103080D01*
X138892588Y-101869731D01*
X138676355Y-101674822D01*
X138426252Y-101525843D01*
X138151891Y-101428519D01*
X137922000Y-101549186D01*
X137668000Y-101549186D01*
X137438109Y-101428519D01*
X137163748Y-101525843D01*
X136913645Y-101674822D01*
X136697412Y-101869731D01*
X136523359Y-102103080D01*
X136398175Y-102365901D01*
X136353524Y-102513110D01*
X134670349Y-102513110D01*
X134350000Y-102192762D01*
X134350000Y-94695322D01*
X134357911Y-94615000D01*
X134326343Y-94294483D01*
X134232852Y-93986285D01*
X134178163Y-93883969D01*
X134081031Y-93702248D01*
X133876714Y-93453286D01*
X133814318Y-93402079D01*
X132022925Y-91610687D01*
X131971714Y-91548286D01*
X131722752Y-91343969D01*
X131438715Y-91192148D01*
X131130516Y-91098657D01*
X131093955Y-91095056D01*
X131140456Y-91025462D01*
X131276596Y-90696791D01*
X131346000Y-90347875D01*
X131346000Y-89992125D01*
X131276596Y-89643209D01*
X131140456Y-89314538D01*
X130942811Y-89018742D01*
X130691258Y-88767189D01*
X130395462Y-88569544D01*
X130232394Y-88501999D01*
X129540000Y-87809605D01*
X128847606Y-88501999D01*
X128684538Y-88569544D01*
X128388742Y-88767189D01*
X128137189Y-89018742D01*
X127939544Y-89314538D01*
X127803404Y-89643209D01*
X127734000Y-89992125D01*
X127734000Y-90347875D01*
X127803404Y-90696791D01*
X127939544Y-91025462D01*
X127972644Y-91075000D01*
X119131558Y-91075000D01*
X119022777Y-91002315D01*
X118672085Y-90857053D01*
X118299793Y-90783000D01*
X117920207Y-90783000D01*
X117547915Y-90857053D01*
X117197223Y-91002315D01*
X116881609Y-91213201D01*
X116613201Y-91481609D01*
X116402315Y-91797223D01*
X116257053Y-92147915D01*
X116183000Y-92520207D01*
X116183000Y-92899793D01*
X116257053Y-93272085D01*
X116402315Y-93622777D01*
X116613201Y-93938391D01*
X116881609Y-94206799D01*
X117197223Y-94417685D01*
X117547915Y-94562947D01*
X117920207Y-94637000D01*
X118299793Y-94637000D01*
X118672085Y-94562947D01*
X119022777Y-94417685D01*
X119131558Y-94345000D01*
X127972644Y-94345000D01*
X127939544Y-94394538D01*
X127803404Y-94723209D01*
X127734000Y-95072125D01*
X127734000Y-95427875D01*
X127803404Y-95776791D01*
X127939544Y-96105462D01*
X128137189Y-96401258D01*
X128255931Y-96520000D01*
X128137189Y-96638742D01*
X127939544Y-96934538D01*
X127803404Y-97263209D01*
X127734000Y-97612125D01*
X127734000Y-97967875D01*
X127803404Y-98316791D01*
X127939544Y-98645462D01*
X128137189Y-98941258D01*
X128255931Y-99060000D01*
X128137189Y-99178742D01*
X127939544Y-99474538D01*
X127803404Y-99803209D01*
X127734000Y-100152125D01*
X127734000Y-100507875D01*
X127803404Y-100856791D01*
X127939544Y-101185462D01*
X128137189Y-101481258D01*
X128255931Y-101600000D01*
X128137189Y-101718742D01*
X127939544Y-102014538D01*
X127803404Y-102343209D01*
X127734000Y-102692125D01*
X127734000Y-103047875D01*
X127803404Y-103396791D01*
X127939544Y-103725462D01*
X128137189Y-104021258D01*
X128255931Y-104140000D01*
X128137189Y-104258742D01*
X127939544Y-104554538D01*
X127803404Y-104883209D01*
X127734000Y-105232125D01*
X127734000Y-105587875D01*
X127803404Y-105936791D01*
X127939544Y-106265462D01*
X128137189Y-106561258D01*
X128255931Y-106680000D01*
X128137189Y-106798742D01*
X127939544Y-107094538D01*
X127803404Y-107423209D01*
X127734000Y-107772125D01*
X127734000Y-108127875D01*
X127803404Y-108476791D01*
X127939544Y-108805462D01*
X128137189Y-109101258D01*
X128255931Y-109220000D01*
X128137189Y-109338742D01*
X127939544Y-109634538D01*
X127803404Y-109963209D01*
X127734000Y-110312125D01*
X127734000Y-110667875D01*
X127803404Y-111016791D01*
X127939544Y-111345462D01*
X128137189Y-111641258D01*
X128255931Y-111760000D01*
X128137189Y-111878742D01*
X127939544Y-112174538D01*
X127803404Y-112503209D01*
X127734000Y-112852125D01*
X127734000Y-113207875D01*
X127803404Y-113556791D01*
X127939544Y-113885462D01*
X127972644Y-113935000D01*
X119131558Y-113935000D01*
X119022777Y-113862315D01*
X118672085Y-113717053D01*
X118299793Y-113643000D01*
X117920207Y-113643000D01*
X117547915Y-113717053D01*
X117197223Y-113862315D01*
X116881609Y-114073201D01*
X116613201Y-114341609D01*
X116402315Y-114657223D01*
X116257053Y-115007915D01*
X116183000Y-115380207D01*
X116183000Y-115759793D01*
X116257053Y-116132085D01*
X116402315Y-116482777D01*
X116613201Y-116798391D01*
X116881609Y-117066799D01*
X117197223Y-117277685D01*
X117547915Y-117422947D01*
X117920207Y-117497000D01*
X118299793Y-117497000D01*
X118672085Y-117422947D01*
X119022777Y-117277685D01*
X119131558Y-117205000D01*
X127972644Y-117205000D01*
X127939544Y-117254538D01*
X127803404Y-117583209D01*
X127734000Y-117932125D01*
X127734000Y-118287875D01*
X127803404Y-118636791D01*
X127939544Y-118965462D01*
X128137189Y-119261258D01*
X128255931Y-119380000D01*
X128137189Y-119498742D01*
X127939544Y-119794538D01*
X127803404Y-120123209D01*
X127734000Y-120472125D01*
X127734000Y-120827875D01*
X127803404Y-121176791D01*
X127939544Y-121505462D01*
X128137189Y-121801258D01*
X128255931Y-121920000D01*
X128137189Y-122038742D01*
X127939544Y-122334538D01*
X127803404Y-122663209D01*
X127734000Y-123012125D01*
X127734000Y-123367875D01*
X127803404Y-123716791D01*
X127939544Y-124045462D01*
X128137189Y-124341258D01*
X128255931Y-124460000D01*
X128137189Y-124578742D01*
X127939544Y-124874538D01*
X127803404Y-125203209D01*
X127734000Y-125552125D01*
X127734000Y-125907875D01*
X127803404Y-126256791D01*
X127939544Y-126585462D01*
X128137189Y-126881258D01*
X128255931Y-127000000D01*
X128137189Y-127118742D01*
X127939544Y-127414538D01*
X127803404Y-127743209D01*
X127734000Y-128092125D01*
X127734000Y-128447875D01*
X127803404Y-128796791D01*
X127939544Y-129125462D01*
X128137189Y-129421258D01*
X128255931Y-129540000D01*
X128137189Y-129658742D01*
X127939544Y-129954538D01*
X127803404Y-130283209D01*
X127734000Y-130632125D01*
X127734000Y-130987875D01*
X127803404Y-131336791D01*
X127939544Y-131665462D01*
X128131671Y-131953000D01*
X127939544Y-132240538D01*
X127803404Y-132569209D01*
X127734000Y-132918125D01*
X127734000Y-133273875D01*
X127803404Y-133622791D01*
X127815522Y-133652046D01*
X127738153Y-133574677D01*
X127686942Y-133512276D01*
X127437980Y-133307959D01*
X127153943Y-133156138D01*
X126845744Y-133062647D01*
X126605550Y-133038990D01*
X126605547Y-133038990D01*
X126525228Y-133031079D01*
X126444909Y-133038990D01*
X120676332Y-133038990D01*
X120596010Y-133031079D01*
X120275493Y-133062647D01*
X119967295Y-133156138D01*
X119683258Y-133307959D01*
X119434296Y-133512276D01*
X119383089Y-133574672D01*
X118280686Y-134677076D01*
X118218286Y-134728286D01*
X118013969Y-134977249D01*
X117862148Y-135261286D01*
X117768657Y-135569485D01*
X117746547Y-135793970D01*
X117737089Y-135890000D01*
X117745000Y-135970320D01*
X117745000Y-136862645D01*
X117695462Y-136829544D01*
X117366791Y-136693404D01*
X117017875Y-136624000D01*
X116662125Y-136624000D01*
X116313209Y-136693404D01*
X115984538Y-136829544D01*
X115688742Y-137027189D01*
X115570000Y-137145931D01*
X115451258Y-137027189D01*
X115155462Y-136829544D01*
X114826791Y-136693404D01*
X114477875Y-136624000D01*
X114122125Y-136624000D01*
X113773209Y-136693404D01*
X113444538Y-136829544D01*
X113148742Y-137027189D01*
X113030000Y-137145931D01*
X112911258Y-137027189D01*
X112615462Y-136829544D01*
X112286791Y-136693404D01*
X111937875Y-136624000D01*
X111582125Y-136624000D01*
X111233209Y-136693404D01*
X110904538Y-136829544D01*
X110608742Y-137027189D01*
X110490000Y-137145931D01*
X110371258Y-137027189D01*
X110075462Y-136829544D01*
X109746791Y-136693404D01*
X109397875Y-136624000D01*
X109042125Y-136624000D01*
X108693209Y-136693404D01*
X108364538Y-136829544D01*
X108068742Y-137027189D01*
X107950000Y-137145931D01*
X107831258Y-137027189D01*
X107535462Y-136829544D01*
X107206791Y-136693404D01*
X106857875Y-136624000D01*
X106502125Y-136624000D01*
X106153209Y-136693404D01*
X105824538Y-136829544D01*
X105528742Y-137027189D01*
X105410000Y-137145931D01*
X105291258Y-137027189D01*
X104995462Y-136829544D01*
X104666791Y-136693404D01*
X104317875Y-136624000D01*
X103962125Y-136624000D01*
X103613209Y-136693404D01*
X103284538Y-136829544D01*
X102988742Y-137027189D01*
X102870000Y-137145931D01*
X102751258Y-137027189D01*
X102455462Y-136829544D01*
X102126791Y-136693404D01*
X101777875Y-136624000D01*
X101422125Y-136624000D01*
X101073209Y-136693404D01*
X100744538Y-136829544D01*
X100448742Y-137027189D01*
X100330000Y-137145931D01*
X100211258Y-137027189D01*
X99915462Y-136829544D01*
X99586791Y-136693404D01*
X99237875Y-136624000D01*
X98882125Y-136624000D01*
X98533209Y-136693404D01*
X98204538Y-136829544D01*
X97908742Y-137027189D01*
X97790000Y-137145931D01*
X97671258Y-137027189D01*
X97375462Y-136829544D01*
X97046791Y-136693404D01*
X96697875Y-136624000D01*
X96342125Y-136624000D01*
X95993209Y-136693404D01*
X95664538Y-136829544D01*
X95368742Y-137027189D01*
X95250000Y-137145931D01*
X95131258Y-137027189D01*
X94835462Y-136829544D01*
X94506791Y-136693404D01*
X94157875Y-136624000D01*
X93802125Y-136624000D01*
X93453209Y-136693404D01*
X93124538Y-136829544D01*
X92828742Y-137027189D01*
X92710000Y-137145931D01*
X92591258Y-137027189D01*
X92295462Y-136829544D01*
X91966791Y-136693404D01*
X91617875Y-136624000D01*
X91262125Y-136624000D01*
X90913209Y-136693404D01*
X90584538Y-136829544D01*
X90288742Y-137027189D01*
X90170000Y-137145931D01*
X90051258Y-137027189D01*
X89755462Y-136829544D01*
X89426791Y-136693404D01*
X89077875Y-136624000D01*
X88722125Y-136624000D01*
X88373209Y-136693404D01*
X88044538Y-136829544D01*
X87748742Y-137027189D01*
X87630000Y-137145931D01*
X87511258Y-137027189D01*
X87215462Y-136829544D01*
X86886791Y-136693404D01*
X86537875Y-136624000D01*
X86182125Y-136624000D01*
X85833209Y-136693404D01*
X85504538Y-136829544D01*
X85208742Y-137027189D01*
X85090000Y-137145931D01*
X84971258Y-137027189D01*
X84675462Y-136829544D01*
X84346791Y-136693404D01*
X83997875Y-136624000D01*
X83642125Y-136624000D01*
X83293209Y-136693404D01*
X82964538Y-136829544D01*
X82668742Y-137027189D01*
X82550000Y-137145931D01*
X82479078Y-137075009D01*
X82571719Y-137036636D01*
X83018361Y-136738199D01*
X83398199Y-136358361D01*
X83696636Y-135911719D01*
X83902203Y-135415437D01*
X84007000Y-134888586D01*
X84007000Y-134351414D01*
X83902203Y-133824563D01*
X83696636Y-133328281D01*
X83398199Y-132881639D01*
X83018361Y-132501801D01*
X82571719Y-132203364D01*
X82479078Y-132164991D01*
X82682811Y-131961258D01*
X82880456Y-131665462D01*
X83016596Y-131336791D01*
X83086000Y-130987875D01*
X83086000Y-130632125D01*
X83016596Y-130283209D01*
X82880456Y-129954538D01*
X82682811Y-129658742D01*
X82564069Y-129540000D01*
X82682811Y-129421258D01*
X82880456Y-129125462D01*
X83016596Y-128796791D01*
X83086000Y-128447875D01*
X83086000Y-128092125D01*
X83016596Y-127743209D01*
X82880456Y-127414538D01*
X82682811Y-127118742D01*
X82564069Y-127000000D01*
X82682811Y-126881258D01*
X82880456Y-126585462D01*
X83016596Y-126256791D01*
X83086000Y-125907875D01*
X83086000Y-125552125D01*
X83016596Y-125203209D01*
X82880456Y-124874538D01*
X82682811Y-124578742D01*
X82564069Y-124460000D01*
X82682811Y-124341258D01*
X82880456Y-124045462D01*
X83016596Y-123716791D01*
X83086000Y-123367875D01*
X83086000Y-123012125D01*
X83016596Y-122663209D01*
X82880456Y-122334538D01*
X82682811Y-122038742D01*
X82564069Y-121920000D01*
X82682811Y-121801258D01*
X82880456Y-121505462D01*
X83016596Y-121176791D01*
X83086000Y-120827875D01*
X83086000Y-120472125D01*
X83016596Y-120123209D01*
X82880456Y-119794538D01*
X82682811Y-119498742D01*
X82564069Y-119380000D01*
X82682811Y-119261258D01*
X82880456Y-118965462D01*
X83016596Y-118636791D01*
X83086000Y-118287875D01*
X83086000Y-117932125D01*
X83016596Y-117583209D01*
X82880456Y-117254538D01*
X82847356Y-117205000D01*
X106928442Y-117205000D01*
X107037223Y-117277685D01*
X107387915Y-117422947D01*
X107760207Y-117497000D01*
X108139793Y-117497000D01*
X108512085Y-117422947D01*
X108862777Y-117277685D01*
X109178391Y-117066799D01*
X109446799Y-116798391D01*
X109657685Y-116482777D01*
X109802947Y-116132085D01*
X109877000Y-115759793D01*
X109877000Y-115380207D01*
X109802947Y-115007915D01*
X109657685Y-114657223D01*
X109446799Y-114341609D01*
X109178391Y-114073201D01*
X108862777Y-113862315D01*
X108512085Y-113717053D01*
X108139793Y-113643000D01*
X107760207Y-113643000D01*
X107387915Y-113717053D01*
X107037223Y-113862315D01*
X106928442Y-113935000D01*
X88402238Y-113935000D01*
X92115824Y-110221414D01*
X93793000Y-110221414D01*
X93793000Y-110758586D01*
X93897797Y-111285437D01*
X94103364Y-111781719D01*
X94401801Y-112228361D01*
X94781639Y-112608199D01*
X95228281Y-112906636D01*
X95724563Y-113112203D01*
X96251414Y-113217000D01*
X96788586Y-113217000D01*
X97315437Y-113112203D01*
X97811719Y-112906636D01*
X98258361Y-112608199D01*
X98638199Y-112228361D01*
X98936636Y-111781719D01*
X99142203Y-111285437D01*
X99247000Y-110758586D01*
X99247000Y-110221414D01*
X121733000Y-110221414D01*
X121733000Y-110758586D01*
X121837797Y-111285437D01*
X122043364Y-111781719D01*
X122341801Y-112228361D01*
X122721639Y-112608199D01*
X123168281Y-112906636D01*
X123664563Y-113112203D01*
X124191414Y-113217000D01*
X124728586Y-113217000D01*
X125255437Y-113112203D01*
X125751719Y-112906636D01*
X126198361Y-112608199D01*
X126578199Y-112228361D01*
X126876636Y-111781719D01*
X127082203Y-111285437D01*
X127187000Y-110758586D01*
X127187000Y-110221414D01*
X127082203Y-109694563D01*
X126876636Y-109198281D01*
X126578199Y-108751639D01*
X126198361Y-108371801D01*
X125751719Y-108073364D01*
X125255437Y-107867797D01*
X124728586Y-107763000D01*
X124191414Y-107763000D01*
X123664563Y-107867797D01*
X123168281Y-108073364D01*
X122721639Y-108371801D01*
X122341801Y-108751639D01*
X122043364Y-109198281D01*
X121837797Y-109694563D01*
X121733000Y-110221414D01*
X99247000Y-110221414D01*
X99142203Y-109694563D01*
X98936636Y-109198281D01*
X98638199Y-108751639D01*
X98258361Y-108371801D01*
X97811719Y-108073364D01*
X97315437Y-107867797D01*
X96788586Y-107763000D01*
X96251414Y-107763000D01*
X95724563Y-107867797D01*
X95228281Y-108073364D01*
X94781639Y-108371801D01*
X94401801Y-108751639D01*
X94103364Y-109198281D01*
X93897797Y-109694563D01*
X93793000Y-110221414D01*
X92115824Y-110221414D01*
X97619320Y-104717919D01*
X97681714Y-104666714D01*
X97886031Y-104417752D01*
X98037852Y-104133715D01*
X98131343Y-103825516D01*
X98155000Y-103585322D01*
X98155000Y-103585320D01*
X98162911Y-103505001D01*
X98155000Y-103424681D01*
X98155000Y-98467238D01*
X102277239Y-94345000D01*
X106928442Y-94345000D01*
X107037223Y-94417685D01*
X107387915Y-94562947D01*
X107760207Y-94637000D01*
X108139793Y-94637000D01*
X108512085Y-94562947D01*
X108862777Y-94417685D01*
X109178391Y-94206799D01*
X109446799Y-93938391D01*
X109657685Y-93622777D01*
X109802947Y-93272085D01*
X109877000Y-92899793D01*
X109877000Y-92520207D01*
X109802947Y-92147915D01*
X109657685Y-91797223D01*
X109446799Y-91481609D01*
X109178391Y-91213201D01*
X108862777Y-91002315D01*
X108512085Y-90857053D01*
X108139793Y-90783000D01*
X107760207Y-90783000D01*
X107387915Y-90857053D01*
X107037223Y-91002315D01*
X106928442Y-91075000D01*
X101680319Y-91075000D01*
X101600000Y-91067089D01*
X101519680Y-91075000D01*
X101519678Y-91075000D01*
X101279484Y-91098657D01*
X100971285Y-91192148D01*
X100687248Y-91343969D01*
X100438286Y-91548286D01*
X100387080Y-91610681D01*
X95420682Y-96577080D01*
X95358287Y-96628286D01*
X95175958Y-96850456D01*
X95153970Y-96877248D01*
X95002148Y-97161286D01*
X94908658Y-97469484D01*
X94877089Y-97790000D01*
X94885001Y-97870329D01*
X94885000Y-102827761D01*
X86317762Y-111395000D01*
X84592238Y-111395000D01*
X86824320Y-109162919D01*
X86886714Y-109111714D01*
X87091031Y-108862752D01*
X87242852Y-108578715D01*
X87336343Y-108270516D01*
X87360000Y-108030322D01*
X87360000Y-108030320D01*
X87367911Y-107950001D01*
X87360000Y-107869681D01*
X87360000Y-87705305D01*
X128221792Y-87705305D01*
X128261812Y-87961029D01*
X128350953Y-88204030D01*
X128402112Y-88299743D01*
X128633740Y-88356655D01*
X129360395Y-87630000D01*
X129719605Y-87630000D01*
X130446260Y-88356655D01*
X130677888Y-88299743D01*
X130786684Y-88064884D01*
X130847571Y-87813312D01*
X130858208Y-87554695D01*
X130818188Y-87298971D01*
X130729047Y-87055970D01*
X130677888Y-86960257D01*
X130446260Y-86903345D01*
X129719605Y-87630000D01*
X129360395Y-87630000D01*
X128633740Y-86903345D01*
X128402112Y-86960257D01*
X128293316Y-87195116D01*
X128232429Y-87446688D01*
X128221792Y-87705305D01*
X87360000Y-87705305D01*
X87360000Y-85996260D01*
X128813345Y-85996260D01*
X128870257Y-86227888D01*
X129105116Y-86336684D01*
X129192534Y-86357842D01*
X128965970Y-86440953D01*
X128870257Y-86492112D01*
X128813345Y-86723740D01*
X129540000Y-87450395D01*
X130266655Y-86723740D01*
X130209743Y-86492112D01*
X129974884Y-86383316D01*
X129887466Y-86362158D01*
X130114030Y-86279047D01*
X130209743Y-86227888D01*
X130266655Y-85996260D01*
X129540000Y-85269605D01*
X128813345Y-85996260D01*
X87360000Y-85996260D01*
X87360000Y-85805319D01*
X87367911Y-85724999D01*
X87348201Y-85524884D01*
X87336343Y-85404484D01*
X87242852Y-85096285D01*
X87091031Y-84812248D01*
X86886714Y-84563286D01*
X86824318Y-84512080D01*
X84778925Y-82466687D01*
X84727714Y-82404286D01*
X84478752Y-82199969D01*
X84194715Y-82048148D01*
X83886516Y-81954657D01*
X83646322Y-81931000D01*
X83646319Y-81931000D01*
X83566000Y-81923089D01*
X83485681Y-81931000D01*
X82847356Y-81931000D01*
X82880456Y-81881462D01*
X83016596Y-81552791D01*
X83086000Y-81203875D01*
X83086000Y-80848125D01*
X83016596Y-80499209D01*
X82880456Y-80170538D01*
X82682811Y-79874742D01*
X82564069Y-79756000D01*
X82682811Y-79637258D01*
X82880456Y-79341462D01*
X83016596Y-79012791D01*
X83086000Y-78663875D01*
X83086000Y-78308125D01*
X83016596Y-77959209D01*
X82880456Y-77630538D01*
X82682811Y-77334742D01*
X82564069Y-77216000D01*
X82682811Y-77097258D01*
X82880456Y-76801462D01*
X83016596Y-76472791D01*
X83086000Y-76123875D01*
X83086000Y-75768125D01*
X83016596Y-75419209D01*
X82880456Y-75090538D01*
X82682811Y-74794742D01*
X82564069Y-74676000D01*
X82682811Y-74557258D01*
X82880456Y-74261462D01*
X83016596Y-73932791D01*
X83086000Y-73583875D01*
X83086000Y-73228125D01*
X83016596Y-72879209D01*
X82880456Y-72550538D01*
X82682811Y-72254742D01*
X82431258Y-72003189D01*
X82135462Y-71805544D01*
X81972394Y-71737999D01*
X81280000Y-71045605D01*
X80587606Y-71737999D01*
X80424538Y-71805544D01*
X80128742Y-72003189D01*
X79877189Y-72254742D01*
X79679544Y-72550538D01*
X79543404Y-72879209D01*
X79474000Y-73228125D01*
X79474000Y-73583875D01*
X79543404Y-73932791D01*
X79679544Y-74261462D01*
X79877189Y-74557258D01*
X79995931Y-74676000D01*
X79877189Y-74794742D01*
X79784980Y-74932742D01*
X77492925Y-72640687D01*
X77441714Y-72578286D01*
X77192752Y-72373969D01*
X76908715Y-72222148D01*
X76600516Y-72128657D01*
X76360322Y-72105000D01*
X76360319Y-72105000D01*
X76280000Y-72097089D01*
X76199681Y-72105000D01*
X68106994Y-72105000D01*
X68080524Y-72065385D01*
X67714615Y-71699476D01*
X67284351Y-71411983D01*
X66806268Y-71213954D01*
X66298737Y-71113000D01*
X65781263Y-71113000D01*
X65273732Y-71213954D01*
X64795649Y-71411983D01*
X64365385Y-71699476D01*
X63999476Y-72065385D01*
X63711983Y-72495649D01*
X63513954Y-72973732D01*
X63413000Y-73481263D01*
X63413000Y-73998737D01*
X63513954Y-74506268D01*
X63711983Y-74984351D01*
X63999476Y-75414615D01*
X64365385Y-75780524D01*
X64795649Y-76068017D01*
X65210852Y-76240000D01*
X64795649Y-76411983D01*
X64365385Y-76699476D01*
X63999476Y-77065385D01*
X63711983Y-77495649D01*
X63513954Y-77973732D01*
X63413000Y-78481263D01*
X63413000Y-78998737D01*
X63513954Y-79506268D01*
X63711983Y-79984351D01*
X63999476Y-80414615D01*
X64365385Y-80780524D01*
X64795649Y-81068017D01*
X64891083Y-81107547D01*
X64540000Y-81107547D01*
X64319069Y-81129307D01*
X64106629Y-81193750D01*
X63910843Y-81298400D01*
X63739235Y-81439235D01*
X63598400Y-81610843D01*
X63493750Y-81806629D01*
X63429307Y-82019069D01*
X63407547Y-82240000D01*
X63407547Y-84060214D01*
X62595000Y-84872761D01*
X62595000Y-70941305D01*
X79961792Y-70941305D01*
X80001812Y-71197029D01*
X80090953Y-71440030D01*
X80142112Y-71535743D01*
X80373740Y-71592655D01*
X81100395Y-70866000D01*
X81459605Y-70866000D01*
X82186260Y-71592655D01*
X82417888Y-71535743D01*
X82526684Y-71300884D01*
X82587571Y-71049312D01*
X82598208Y-70790695D01*
X82558188Y-70534971D01*
X82469047Y-70291970D01*
X82417888Y-70196257D01*
X82186260Y-70139345D01*
X81459605Y-70866000D01*
X81100395Y-70866000D01*
X80373740Y-70139345D01*
X80142112Y-70196257D01*
X80033316Y-70431116D01*
X79972429Y-70682688D01*
X79961792Y-70941305D01*
X62595000Y-70941305D01*
X62595000Y-70231653D01*
X64727952Y-70231653D01*
X64883962Y-70547214D01*
X65258745Y-70738020D01*
X65663551Y-70852044D01*
X66082824Y-70884902D01*
X66500451Y-70835334D01*
X66900383Y-70705243D01*
X67196038Y-70547214D01*
X67352048Y-70231653D01*
X66040000Y-68919605D01*
X64727952Y-70231653D01*
X62595000Y-70231653D01*
X62595000Y-69257238D01*
X64195978Y-67656260D01*
X64041980Y-67958745D01*
X63927956Y-68363551D01*
X63895098Y-68782824D01*
X63944666Y-69200451D01*
X64074757Y-69600383D01*
X64232786Y-69896038D01*
X64548347Y-70052048D01*
X65860395Y-68740000D01*
X66219605Y-68740000D01*
X67531653Y-70052048D01*
X67847214Y-69896038D01*
X68038020Y-69521255D01*
X68152044Y-69116449D01*
X68184902Y-68697176D01*
X68135334Y-68279549D01*
X68005243Y-67879617D01*
X67847214Y-67583962D01*
X67531653Y-67427952D01*
X66219605Y-68740000D01*
X65860395Y-68740000D01*
X65846253Y-68725858D01*
X66025858Y-68546253D01*
X66040000Y-68560395D01*
X67352048Y-67248347D01*
X67196038Y-66932786D01*
X66821255Y-66741980D01*
X66416449Y-66627956D01*
X65997176Y-66595098D01*
X65579549Y-66644666D01*
X65179617Y-66774757D01*
X64960205Y-66892034D01*
X65719786Y-66132453D01*
X67540000Y-66132453D01*
X67760931Y-66110693D01*
X67973371Y-66046250D01*
X68169157Y-65941600D01*
X68340765Y-65800765D01*
X68481600Y-65629157D01*
X68586250Y-65433371D01*
X68650693Y-65220931D01*
X68672453Y-65000000D01*
X68672453Y-62000000D01*
X68650693Y-61779069D01*
X68586250Y-61566629D01*
X68481600Y-61370843D01*
X68340765Y-61199235D01*
X68169157Y-61058400D01*
X67973371Y-60953750D01*
X67760931Y-60889307D01*
X67540000Y-60867547D01*
X67188917Y-60867547D01*
X67284351Y-60828017D01*
X67714615Y-60540524D01*
X68080524Y-60174615D01*
X68106994Y-60135000D01*
X70522762Y-60135000D01*
X72025001Y-61637240D01*
X72025000Y-63419680D01*
X72017089Y-63500000D01*
X72025000Y-63580319D01*
X72025000Y-63580321D01*
X72048657Y-63820515D01*
X72142148Y-64128714D01*
X72293969Y-64412751D01*
X72498286Y-64661714D01*
X72560687Y-64712925D01*
X74733080Y-66885318D01*
X74784286Y-66947714D01*
X75033248Y-67152031D01*
X75317285Y-67303852D01*
X75625484Y-67397343D01*
X75865678Y-67421000D01*
X75865680Y-67421000D01*
X75945999Y-67428911D01*
X76026319Y-67421000D01*
X79712644Y-67421000D01*
X79679544Y-67470538D01*
X79543404Y-67799209D01*
X79474000Y-68148125D01*
X79474000Y-68503875D01*
X79543404Y-68852791D01*
X79679544Y-69181462D01*
X79877189Y-69477258D01*
X80128742Y-69728811D01*
X80424538Y-69926456D01*
X80587606Y-69994001D01*
X81280000Y-70686395D01*
X81972394Y-69994001D01*
X82135462Y-69926456D01*
X82431258Y-69728811D01*
X82682811Y-69477258D01*
X82880456Y-69181462D01*
X83016596Y-68852791D01*
X83086000Y-68503875D01*
X83086000Y-68148125D01*
X83016596Y-67799209D01*
X82880456Y-67470538D01*
X82847356Y-67421000D01*
X125846761Y-67421000D01*
X123995687Y-69272075D01*
X123933286Y-69323286D01*
X123728969Y-69572249D01*
X123577148Y-69856286D01*
X123483657Y-70164485D01*
X123477903Y-70222911D01*
X123452089Y-70485000D01*
X123460000Y-70565320D01*
X123460001Y-80564671D01*
X123452089Y-80645000D01*
X123483658Y-80965516D01*
X123577148Y-81273714D01*
X123726318Y-81552791D01*
X123728970Y-81557752D01*
X123933287Y-81806714D01*
X123995682Y-81857920D01*
X125787079Y-83649318D01*
X125838286Y-83711714D01*
X126087248Y-83916031D01*
X126154751Y-83952112D01*
X126371285Y-84067852D01*
X126679483Y-84161343D01*
X127000000Y-84192911D01*
X127080322Y-84185000D01*
X128578602Y-84185000D01*
X128516997Y-84246605D01*
X128633738Y-84363346D01*
X128402112Y-84420257D01*
X128293316Y-84655116D01*
X128232429Y-84906688D01*
X128221792Y-85165305D01*
X128261812Y-85421029D01*
X128350953Y-85664030D01*
X128402112Y-85759743D01*
X128633740Y-85816655D01*
X129360395Y-85090000D01*
X129719605Y-85090000D01*
X130446260Y-85816655D01*
X130677888Y-85759743D01*
X130786684Y-85524884D01*
X130847571Y-85273312D01*
X130858208Y-85014695D01*
X130818188Y-84758971D01*
X130729047Y-84515970D01*
X130677888Y-84420257D01*
X130446260Y-84363345D01*
X129719605Y-85090000D01*
X129360395Y-85090000D01*
X129346253Y-85075858D01*
X129525858Y-84896253D01*
X129540000Y-84910395D01*
X130232394Y-84218001D01*
X130395462Y-84150456D01*
X130691258Y-83952811D01*
X130942811Y-83701258D01*
X131140456Y-83405462D01*
X131276596Y-83076791D01*
X131346000Y-82727875D01*
X131346000Y-82372125D01*
X131276596Y-82023209D01*
X131140456Y-81694538D01*
X130942811Y-81398742D01*
X130824069Y-81280000D01*
X130942811Y-81161258D01*
X131140456Y-80865462D01*
X131276596Y-80536791D01*
X131346000Y-80187875D01*
X131346000Y-79832125D01*
X131276596Y-79483209D01*
X131140456Y-79154538D01*
X130942811Y-78858742D01*
X130824069Y-78740000D01*
X130942811Y-78621258D01*
X131140456Y-78325462D01*
X131276596Y-77996791D01*
X131346000Y-77647875D01*
X131346000Y-77292125D01*
X131276596Y-76943209D01*
X131140456Y-76614538D01*
X130942811Y-76318742D01*
X130824069Y-76200000D01*
X130942811Y-76081258D01*
X131140456Y-75785462D01*
X131276596Y-75456791D01*
X131346000Y-75107875D01*
X131346000Y-74752125D01*
X131276596Y-74403209D01*
X131140456Y-74074538D01*
X131009345Y-73878317D01*
X131019765Y-73869765D01*
X131160600Y-73698157D01*
X131265250Y-73502371D01*
X131329693Y-73289931D01*
X131351453Y-73069000D01*
X131351453Y-71711000D01*
X131329693Y-71490069D01*
X131265250Y-71277629D01*
X131160600Y-71081843D01*
X131019765Y-70910235D01*
X130848157Y-70769400D01*
X130652371Y-70664750D01*
X130439931Y-70600307D01*
X130219000Y-70578547D01*
X128861000Y-70578547D01*
X128640069Y-70600307D01*
X128427629Y-70664750D01*
X128231843Y-70769400D01*
X128060235Y-70910235D01*
X127919400Y-71081843D01*
X127814750Y-71277629D01*
X127750307Y-71490069D01*
X127728547Y-71711000D01*
X127728547Y-73069000D01*
X127750307Y-73289931D01*
X127814750Y-73502371D01*
X127919400Y-73698157D01*
X128060235Y-73869765D01*
X128070655Y-73878317D01*
X127939544Y-74074538D01*
X127803404Y-74403209D01*
X127734000Y-74752125D01*
X127734000Y-75107875D01*
X127803404Y-75456791D01*
X127939544Y-75785462D01*
X128137189Y-76081258D01*
X128255931Y-76200000D01*
X128137189Y-76318742D01*
X127939544Y-76614538D01*
X127803404Y-76943209D01*
X127734000Y-77292125D01*
X127734000Y-77647875D01*
X127803404Y-77996791D01*
X127939544Y-78325462D01*
X128137189Y-78621258D01*
X128255931Y-78740000D01*
X128137189Y-78858742D01*
X127939544Y-79154538D01*
X127803404Y-79483209D01*
X127734000Y-79832125D01*
X127734000Y-80187875D01*
X127803404Y-80536791D01*
X127939544Y-80865462D01*
X127972644Y-80915000D01*
X127677239Y-80915000D01*
X126730000Y-79967762D01*
X126730000Y-71162238D01*
X128312239Y-69580000D01*
X141524681Y-69580000D01*
X141605000Y-69587911D01*
X141685319Y-69580000D01*
X141685322Y-69580000D01*
X141925516Y-69556343D01*
X142233715Y-69462852D01*
X142517752Y-69311031D01*
X142766714Y-69106714D01*
X142817925Y-69044313D01*
X145879319Y-65982920D01*
X145941714Y-65931714D01*
X146146031Y-65682752D01*
X146297852Y-65398715D01*
X146391343Y-65090516D01*
X146415000Y-64850322D01*
X146415000Y-64850320D01*
X146422911Y-64770001D01*
X146415000Y-64689681D01*
X146415000Y-57865319D01*
X146422911Y-57784999D01*
X146403434Y-57587248D01*
X146391343Y-57464484D01*
X146297852Y-57156285D01*
X146146031Y-56872248D01*
X145941714Y-56623286D01*
X145879320Y-56572081D01*
X143010325Y-53703087D01*
X142959114Y-53640686D01*
X142710152Y-53436369D01*
X142426115Y-53284548D01*
X142117916Y-53191057D01*
X141877722Y-53167400D01*
X141877719Y-53167400D01*
X141797400Y-53159489D01*
X141717081Y-53167400D01*
X140502781Y-53167400D01*
X140504502Y-53164180D01*
X140540812Y-53044482D01*
X140553072Y-52920000D01*
X140550000Y-52355750D01*
X140391250Y-52197000D01*
X139192000Y-52197000D01*
X139192000Y-52217000D01*
X138938000Y-52217000D01*
X138938000Y-52197000D01*
X137738750Y-52197000D01*
X137580000Y-52355750D01*
X137576928Y-52920000D01*
X137589188Y-53044482D01*
X137625498Y-53164180D01*
X137656646Y-53222454D01*
X137529364Y-53349736D01*
X137313005Y-53673539D01*
X137163975Y-54033330D01*
X137088000Y-54415282D01*
X137088000Y-54431305D01*
X137072657Y-54481884D01*
X137041089Y-54802400D01*
X137072657Y-55122916D01*
X137166148Y-55431115D01*
X137317969Y-55715152D01*
X137498793Y-55935488D01*
X137313005Y-56213539D01*
X137163975Y-56573330D01*
X137088000Y-56955282D01*
X137088000Y-56971305D01*
X137072657Y-57021884D01*
X137041089Y-57342400D01*
X137072657Y-57662916D01*
X137166148Y-57971115D01*
X137313825Y-58247400D01*
X132729922Y-58247400D01*
X132649600Y-58239489D01*
X132329083Y-58271057D01*
X132267000Y-58289890D01*
X132267000Y-58151414D01*
X132162203Y-57624563D01*
X131956636Y-57128281D01*
X131658199Y-56681639D01*
X131278361Y-56301801D01*
X130831719Y-56003364D01*
X130335437Y-55797797D01*
X129808586Y-55693000D01*
X129271414Y-55693000D01*
X128744563Y-55797797D01*
X128248281Y-56003364D01*
X127801639Y-56301801D01*
X127421801Y-56681639D01*
X127123364Y-57128281D01*
X126917797Y-57624563D01*
X126813000Y-58151414D01*
X126813000Y-58688586D01*
X126917797Y-59215437D01*
X127123364Y-59711719D01*
X127421801Y-60158361D01*
X127801639Y-60538199D01*
X128248281Y-60836636D01*
X128744563Y-61042203D01*
X129105720Y-61114041D01*
X128608762Y-61611000D01*
X83215560Y-61611000D01*
X83398199Y-61428361D01*
X83696636Y-60981719D01*
X83902203Y-60485437D01*
X84007000Y-59958586D01*
X84007000Y-59421414D01*
X83902203Y-58894563D01*
X83696636Y-58398281D01*
X83398199Y-57951639D01*
X83018361Y-57571801D01*
X82571719Y-57273364D01*
X82075437Y-57067797D01*
X81548586Y-56963000D01*
X81011414Y-56963000D01*
X80484563Y-57067797D01*
X79988281Y-57273364D01*
X79541639Y-57571801D01*
X79161801Y-57951639D01*
X78863364Y-58398281D01*
X78657797Y-58894563D01*
X78553000Y-59421414D01*
X78553000Y-59958586D01*
X78657797Y-60485437D01*
X78863364Y-60981719D01*
X79161801Y-61428361D01*
X79344440Y-61611000D01*
X79163239Y-61611000D01*
X77835000Y-60282762D01*
X77835000Y-58500322D01*
X77842911Y-58420000D01*
X77811343Y-58099483D01*
X77717852Y-57791285D01*
X77687089Y-57733732D01*
X77566031Y-57507248D01*
X77361714Y-57258286D01*
X77299325Y-57207085D01*
X72492925Y-52400687D01*
X72441714Y-52338286D01*
X72192752Y-52133969D01*
X71908715Y-51982148D01*
X71600516Y-51888657D01*
X71360322Y-51865000D01*
X71360319Y-51865000D01*
X71280000Y-51857089D01*
X71199681Y-51865000D01*
X68106994Y-51865000D01*
X68080524Y-51825385D01*
X67714615Y-51459476D01*
X67356214Y-51220000D01*
X137576928Y-51220000D01*
X137580000Y-51784250D01*
X137738750Y-51943000D01*
X138938000Y-51943000D01*
X138938000Y-50743750D01*
X139192000Y-50743750D01*
X139192000Y-51943000D01*
X140391250Y-51943000D01*
X140550000Y-51784250D01*
X140553072Y-51220000D01*
X140540812Y-51095518D01*
X140504502Y-50975820D01*
X140445537Y-50865506D01*
X140366185Y-50768815D01*
X140269494Y-50689463D01*
X140159180Y-50630498D01*
X140039482Y-50594188D01*
X139915000Y-50581928D01*
X139350750Y-50585000D01*
X139192000Y-50743750D01*
X138938000Y-50743750D01*
X138779250Y-50585000D01*
X138215000Y-50581928D01*
X138090518Y-50594188D01*
X137970820Y-50630498D01*
X137860506Y-50689463D01*
X137763815Y-50768815D01*
X137684463Y-50865506D01*
X137625498Y-50975820D01*
X137589188Y-51095518D01*
X137576928Y-51220000D01*
X67356214Y-51220000D01*
X67284351Y-51171983D01*
X66806268Y-50973954D01*
X66298737Y-50873000D01*
X65781263Y-50873000D01*
X65273732Y-50973954D01*
X64795649Y-51171983D01*
X64365385Y-51459476D01*
X63999476Y-51825385D01*
X63711983Y-52255649D01*
X63513954Y-52733732D01*
X63413000Y-53241263D01*
X63413000Y-53758737D01*
X63513954Y-54266268D01*
X63711983Y-54744351D01*
X63999476Y-55174615D01*
X64365385Y-55540524D01*
X64795649Y-55828017D01*
X65210852Y-56000000D01*
X64795649Y-56171983D01*
X64365385Y-56459476D01*
X63999476Y-56825385D01*
X63711983Y-57255649D01*
X63513954Y-57733732D01*
X63413000Y-58241263D01*
X63413000Y-58758737D01*
X63513954Y-59266268D01*
X63711983Y-59744351D01*
X63999476Y-60174615D01*
X64365385Y-60540524D01*
X64795649Y-60828017D01*
X64891083Y-60867547D01*
X64540000Y-60867547D01*
X64319069Y-60889307D01*
X64106629Y-60953750D01*
X63910843Y-61058400D01*
X63739235Y-61199235D01*
X63598400Y-61370843D01*
X63493750Y-61566629D01*
X63429307Y-61779069D01*
X63407547Y-62000000D01*
X63407547Y-63820214D01*
X59860682Y-67367080D01*
X59798287Y-67418286D01*
X59593970Y-67667248D01*
X59442148Y-67951286D01*
X59348658Y-68259484D01*
X59317089Y-68580000D01*
X57082000Y-68580000D01*
X57082000Y-49991653D01*
X64727952Y-49991653D01*
X64883962Y-50307214D01*
X65258745Y-50498020D01*
X65663551Y-50612044D01*
X66082824Y-50644902D01*
X66500451Y-50595334D01*
X66900383Y-50465243D01*
X67196038Y-50307214D01*
X67352048Y-49991653D01*
X66040000Y-48679605D01*
X64727952Y-49991653D01*
X57082000Y-49991653D01*
X57082000Y-48542824D01*
X63895098Y-48542824D01*
X63944666Y-48960451D01*
X64074757Y-49360383D01*
X64232786Y-49656038D01*
X64548347Y-49812048D01*
X65860395Y-48500000D01*
X64548347Y-47187952D01*
X64232786Y-47343962D01*
X64041980Y-47718745D01*
X63927956Y-48123551D01*
X63895098Y-48542824D01*
X57082000Y-48542824D01*
X57082000Y-47008347D01*
X64727952Y-47008347D01*
X66040000Y-48320395D01*
X67352048Y-47008347D01*
X67196038Y-46692786D01*
X66821255Y-46501980D01*
X66416449Y-46387956D01*
X65997176Y-46355098D01*
X65579549Y-46404666D01*
X65179617Y-46534757D01*
X64883962Y-46692786D01*
X64727952Y-47008347D01*
X57082000Y-47008347D01*
X57082000Y-44034500D01*
X67757286Y-44034500D01*
X67757286Y-47299503D01*
X67531653Y-47187952D01*
X66219605Y-48500000D01*
X67531653Y-49812048D01*
X67847214Y-49656038D01*
X68038020Y-49281255D01*
X68084991Y-49114500D01*
X144332715Y-49114500D01*
X144332715Y-44034500D01*
X144617715Y-44034500D01*
X144617715Y-36762000D01*
X147388000Y-36762000D01*
X147388001Y-163898000D01*
G37*
%TD.AperFunction*%
D21*
X124653748Y-138415858D02*
X124639605Y-138430000D01*
X124653748Y-138444143D01*
X124474143Y-138623748D01*
X124460000Y-138609605D01*
X123733345Y-139336260D01*
X123790257Y-139567888D01*
X124025116Y-139676684D01*
X124112534Y-139697842D01*
X123885970Y-139780953D01*
X123790257Y-139832112D01*
X123733345Y-140063740D01*
X124460000Y-140790395D01*
X124474143Y-140776253D01*
X124653748Y-140955858D01*
X124639605Y-140970000D01*
X124653748Y-140984143D01*
X124474143Y-141163748D01*
X124460000Y-141149605D01*
X124445858Y-141163748D01*
X124266253Y-140984143D01*
X124280395Y-140970000D01*
X123588001Y-140277606D01*
X123520456Y-140114538D01*
X123322811Y-139818742D01*
X123204069Y-139700000D01*
X123322811Y-139581258D01*
X123520456Y-139285462D01*
X123588001Y-139122394D01*
X124280395Y-138430000D01*
X124266253Y-138415858D01*
X124445858Y-138236253D01*
X124460000Y-138250395D01*
X124474143Y-138236253D01*
X124653748Y-138415858D01*
%TA.AperFunction,Conductor*%
D22*
G36*
X124653748Y-138415858D02*
G01*
X124639605Y-138430000D01*
X124653748Y-138444143D01*
X124474143Y-138623748D01*
X124460000Y-138609605D01*
X123733345Y-139336260D01*
X123790257Y-139567888D01*
X124025116Y-139676684D01*
X124112534Y-139697842D01*
X123885970Y-139780953D01*
X123790257Y-139832112D01*
X123733345Y-140063740D01*
X124460000Y-140790395D01*
X124474143Y-140776253D01*
X124653748Y-140955858D01*
X124639605Y-140970000D01*
X124653748Y-140984143D01*
X124474143Y-141163748D01*
X124460000Y-141149605D01*
X124445858Y-141163748D01*
X124266253Y-140984143D01*
X124280395Y-140970000D01*
X123588001Y-140277606D01*
X123520456Y-140114538D01*
X123322811Y-139818742D01*
X123204069Y-139700000D01*
X123322811Y-139581258D01*
X123520456Y-139285462D01*
X123588001Y-139122394D01*
X124280395Y-138430000D01*
X124266253Y-138415858D01*
X124445858Y-138236253D01*
X124460000Y-138250395D01*
X124474143Y-138236253D01*
X124653748Y-138415858D01*
G37*
%TD.AperFunction*%
D21*
X71290682Y-104197080D02*
X71228287Y-104248286D01*
X71089210Y-104417753D01*
X71023970Y-104497248D01*
X70872148Y-104781286D01*
X70778658Y-105089484D01*
X70747089Y-105410000D01*
X70755001Y-105490329D01*
X70755000Y-112352761D01*
X70282762Y-112825000D01*
X68106994Y-112825000D01*
X68080524Y-112785385D01*
X67714615Y-112419476D01*
X67284351Y-112131983D01*
X66806268Y-111933954D01*
X66298737Y-111833000D01*
X65781263Y-111833000D01*
X65273732Y-111933954D01*
X64795649Y-112131983D01*
X64365385Y-112419476D01*
X63999476Y-112785385D01*
X63711983Y-113215649D01*
X63513954Y-113693732D01*
X63413000Y-114201263D01*
X63413000Y-114718737D01*
X63513954Y-115226268D01*
X63711983Y-115704351D01*
X63999476Y-116134615D01*
X64365385Y-116500524D01*
X64795649Y-116788017D01*
X65210852Y-116960000D01*
X64795649Y-117131983D01*
X64365385Y-117419476D01*
X63999476Y-117785385D01*
X63711983Y-118215649D01*
X63513954Y-118693732D01*
X63413000Y-119201263D01*
X63413000Y-119718737D01*
X63513954Y-120226268D01*
X63711983Y-120704351D01*
X63999476Y-121134615D01*
X64365385Y-121500524D01*
X64795649Y-121788017D01*
X64891083Y-121827547D01*
X64540000Y-121827547D01*
X64319069Y-121849307D01*
X64106629Y-121913750D01*
X63910843Y-122018400D01*
X63739235Y-122159235D01*
X63598400Y-122330843D01*
X63493750Y-122526629D01*
X63429307Y-122739069D01*
X63407547Y-122960000D01*
X63407547Y-125960000D01*
X63429307Y-126180931D01*
X63493750Y-126393371D01*
X63598400Y-126589157D01*
X63739235Y-126760765D01*
X63910843Y-126901600D01*
X64106629Y-127006250D01*
X64319069Y-127070693D01*
X64405000Y-127079157D01*
X64405001Y-137022762D01*
X62595000Y-135212762D01*
X62595000Y-110951653D01*
X64727952Y-110951653D01*
X64883962Y-111267214D01*
X65258745Y-111458020D01*
X65663551Y-111572044D01*
X66082824Y-111604902D01*
X66500451Y-111555334D01*
X66900383Y-111425243D01*
X67196038Y-111267214D01*
X67352048Y-110951653D01*
X66040000Y-109639605D01*
X64727952Y-110951653D01*
X62595000Y-110951653D01*
X62595000Y-109897238D01*
X64446315Y-108045923D01*
X64548345Y-108147953D01*
X64232786Y-108303962D01*
X64041980Y-108678745D01*
X63927956Y-109083551D01*
X63895098Y-109502824D01*
X63944666Y-109920451D01*
X64074757Y-110320383D01*
X64232786Y-110616038D01*
X64548347Y-110772048D01*
X65860395Y-109460000D01*
X66219605Y-109460000D01*
X67531653Y-110772048D01*
X67847214Y-110616038D01*
X68038020Y-110241255D01*
X68152044Y-109836449D01*
X68184902Y-109417176D01*
X68135334Y-108999549D01*
X68005243Y-108599617D01*
X67847214Y-108303962D01*
X67531653Y-108147952D01*
X66219605Y-109460000D01*
X65860395Y-109460000D01*
X65846253Y-109445858D01*
X66025858Y-109266253D01*
X66040000Y-109280395D01*
X67352048Y-107968347D01*
X67196038Y-107652786D01*
X66821255Y-107461980D01*
X66416449Y-107347956D01*
X65997176Y-107315098D01*
X65579549Y-107364666D01*
X65179617Y-107494757D01*
X64883962Y-107652786D01*
X64727953Y-107968345D01*
X64625923Y-107866315D01*
X65719786Y-106772453D01*
X67540000Y-106772453D01*
X67760931Y-106750693D01*
X67973371Y-106686250D01*
X68169157Y-106581600D01*
X68340765Y-106440765D01*
X68481600Y-106269157D01*
X68586250Y-106073371D01*
X68650693Y-105860931D01*
X68672453Y-105640000D01*
X68672453Y-102640000D01*
X68650693Y-102419069D01*
X68586250Y-102206629D01*
X68481600Y-102010843D01*
X68340765Y-101839235D01*
X68169157Y-101698400D01*
X67973371Y-101593750D01*
X67760931Y-101529307D01*
X67540000Y-101507547D01*
X67188917Y-101507547D01*
X67284351Y-101468017D01*
X67714615Y-101180524D01*
X68080524Y-100814615D01*
X68106994Y-100775000D01*
X74712761Y-100775000D01*
X71290682Y-104197080D01*
%TA.AperFunction,Conductor*%
D22*
G36*
X71290682Y-104197080D02*
G01*
X71228287Y-104248286D01*
X71089210Y-104417753D01*
X71023970Y-104497248D01*
X70872148Y-104781286D01*
X70778658Y-105089484D01*
X70747089Y-105410000D01*
X70755001Y-105490329D01*
X70755000Y-112352761D01*
X70282762Y-112825000D01*
X68106994Y-112825000D01*
X68080524Y-112785385D01*
X67714615Y-112419476D01*
X67284351Y-112131983D01*
X66806268Y-111933954D01*
X66298737Y-111833000D01*
X65781263Y-111833000D01*
X65273732Y-111933954D01*
X64795649Y-112131983D01*
X64365385Y-112419476D01*
X63999476Y-112785385D01*
X63711983Y-113215649D01*
X63513954Y-113693732D01*
X63413000Y-114201263D01*
X63413000Y-114718737D01*
X63513954Y-115226268D01*
X63711983Y-115704351D01*
X63999476Y-116134615D01*
X64365385Y-116500524D01*
X64795649Y-116788017D01*
X65210852Y-116960000D01*
X64795649Y-117131983D01*
X64365385Y-117419476D01*
X63999476Y-117785385D01*
X63711983Y-118215649D01*
X63513954Y-118693732D01*
X63413000Y-119201263D01*
X63413000Y-119718737D01*
X63513954Y-120226268D01*
X63711983Y-120704351D01*
X63999476Y-121134615D01*
X64365385Y-121500524D01*
X64795649Y-121788017D01*
X64891083Y-121827547D01*
X64540000Y-121827547D01*
X64319069Y-121849307D01*
X64106629Y-121913750D01*
X63910843Y-122018400D01*
X63739235Y-122159235D01*
X63598400Y-122330843D01*
X63493750Y-122526629D01*
X63429307Y-122739069D01*
X63407547Y-122960000D01*
X63407547Y-125960000D01*
X63429307Y-126180931D01*
X63493750Y-126393371D01*
X63598400Y-126589157D01*
X63739235Y-126760765D01*
X63910843Y-126901600D01*
X64106629Y-127006250D01*
X64319069Y-127070693D01*
X64405000Y-127079157D01*
X64405001Y-137022762D01*
X62595000Y-135212762D01*
X62595000Y-110951653D01*
X64727952Y-110951653D01*
X64883962Y-111267214D01*
X65258745Y-111458020D01*
X65663551Y-111572044D01*
X66082824Y-111604902D01*
X66500451Y-111555334D01*
X66900383Y-111425243D01*
X67196038Y-111267214D01*
X67352048Y-110951653D01*
X66040000Y-109639605D01*
X64727952Y-110951653D01*
X62595000Y-110951653D01*
X62595000Y-109897238D01*
X64446315Y-108045923D01*
X64548345Y-108147953D01*
X64232786Y-108303962D01*
X64041980Y-108678745D01*
X63927956Y-109083551D01*
X63895098Y-109502824D01*
X63944666Y-109920451D01*
X64074757Y-110320383D01*
X64232786Y-110616038D01*
X64548347Y-110772048D01*
X65860395Y-109460000D01*
X66219605Y-109460000D01*
X67531653Y-110772048D01*
X67847214Y-110616038D01*
X68038020Y-110241255D01*
X68152044Y-109836449D01*
X68184902Y-109417176D01*
X68135334Y-108999549D01*
X68005243Y-108599617D01*
X67847214Y-108303962D01*
X67531653Y-108147952D01*
X66219605Y-109460000D01*
X65860395Y-109460000D01*
X65846253Y-109445858D01*
X66025858Y-109266253D01*
X66040000Y-109280395D01*
X67352048Y-107968347D01*
X67196038Y-107652786D01*
X66821255Y-107461980D01*
X66416449Y-107347956D01*
X65997176Y-107315098D01*
X65579549Y-107364666D01*
X65179617Y-107494757D01*
X64883962Y-107652786D01*
X64727953Y-107968345D01*
X64625923Y-107866315D01*
X65719786Y-106772453D01*
X67540000Y-106772453D01*
X67760931Y-106750693D01*
X67973371Y-106686250D01*
X68169157Y-106581600D01*
X68340765Y-106440765D01*
X68481600Y-106269157D01*
X68586250Y-106073371D01*
X68650693Y-105860931D01*
X68672453Y-105640000D01*
X68672453Y-102640000D01*
X68650693Y-102419069D01*
X68586250Y-102206629D01*
X68481600Y-102010843D01*
X68340765Y-101839235D01*
X68169157Y-101698400D01*
X67973371Y-101593750D01*
X67760931Y-101529307D01*
X67540000Y-101507547D01*
X67188917Y-101507547D01*
X67284351Y-101468017D01*
X67714615Y-101180524D01*
X68080524Y-100814615D01*
X68106994Y-100775000D01*
X74712761Y-100775000D01*
X71290682Y-104197080D01*
G37*
%TD.AperFunction*%
D21*
X74565000Y-81957239D02*
X74565001Y-90089671D01*
X74557089Y-90170000D01*
X74588658Y-90490516D01*
X74682148Y-90798714D01*
X74803348Y-91025462D01*
X74833970Y-91082752D01*
X75038287Y-91331714D01*
X75100682Y-91382920D01*
X77332761Y-93615000D01*
X76877239Y-93615000D01*
X76302924Y-93040686D01*
X76251714Y-92978286D01*
X76002752Y-92773969D01*
X75718715Y-92622148D01*
X75410516Y-92528657D01*
X75170322Y-92505000D01*
X75170319Y-92505000D01*
X75090000Y-92497089D01*
X75009681Y-92505000D01*
X68106994Y-92505000D01*
X68080524Y-92465385D01*
X67714615Y-92099476D01*
X67284351Y-91811983D01*
X66806268Y-91613954D01*
X66298737Y-91513000D01*
X65781263Y-91513000D01*
X65273732Y-91613954D01*
X64795649Y-91811983D01*
X64365385Y-92099476D01*
X63999476Y-92465385D01*
X63711983Y-92895649D01*
X63513954Y-93373732D01*
X63413000Y-93881263D01*
X63413000Y-94398737D01*
X63513954Y-94906268D01*
X63711983Y-95384351D01*
X63999476Y-95814615D01*
X64365385Y-96180524D01*
X64795649Y-96468017D01*
X65210852Y-96640000D01*
X64795649Y-96811983D01*
X64365385Y-97099476D01*
X63999476Y-97465385D01*
X63711983Y-97895649D01*
X63513954Y-98373732D01*
X63413000Y-98881263D01*
X63413000Y-99398737D01*
X63513954Y-99906268D01*
X63711983Y-100384351D01*
X63999476Y-100814615D01*
X64365385Y-101180524D01*
X64795649Y-101468017D01*
X64891083Y-101507547D01*
X64540000Y-101507547D01*
X64319069Y-101529307D01*
X64106629Y-101593750D01*
X63910843Y-101698400D01*
X63739235Y-101839235D01*
X63598400Y-102010843D01*
X63493750Y-102206629D01*
X63429307Y-102419069D01*
X63407547Y-102640000D01*
X63407547Y-104460214D01*
X62595000Y-105272761D01*
X62595000Y-90631653D01*
X64727952Y-90631653D01*
X64883962Y-90947214D01*
X65258745Y-91138020D01*
X65663551Y-91252044D01*
X66082824Y-91284902D01*
X66500451Y-91235334D01*
X66900383Y-91105243D01*
X67196038Y-90947214D01*
X67352048Y-90631653D01*
X66040000Y-89319605D01*
X64727952Y-90631653D01*
X62595000Y-90631653D01*
X62595000Y-89497238D01*
X62909414Y-89182824D01*
X63895098Y-89182824D01*
X63944666Y-89600451D01*
X64074757Y-90000383D01*
X64232786Y-90296038D01*
X64548347Y-90452048D01*
X65860395Y-89140000D01*
X66219605Y-89140000D01*
X67531653Y-90452048D01*
X67847214Y-90296038D01*
X68038020Y-89921255D01*
X68152044Y-89516449D01*
X68184902Y-89097176D01*
X68135334Y-88679549D01*
X68005243Y-88279617D01*
X67847214Y-87983962D01*
X67531653Y-87827952D01*
X66219605Y-89140000D01*
X65860395Y-89140000D01*
X64548347Y-87827952D01*
X64232786Y-87983962D01*
X64041980Y-88358745D01*
X63927956Y-88763551D01*
X63895098Y-89182824D01*
X62909414Y-89182824D01*
X64443891Y-87648347D01*
X64727952Y-87648347D01*
X66040000Y-88960395D01*
X67352048Y-87648347D01*
X67196038Y-87332786D01*
X66821255Y-87141980D01*
X66416449Y-87027956D01*
X65997176Y-86995098D01*
X65579549Y-87044666D01*
X65179617Y-87174757D01*
X64883962Y-87332786D01*
X64727952Y-87648347D01*
X64443891Y-87648347D01*
X65719786Y-86372453D01*
X67540000Y-86372453D01*
X67760931Y-86350693D01*
X67973371Y-86286250D01*
X68169157Y-86181600D01*
X68340765Y-86040765D01*
X68481600Y-85869157D01*
X68586250Y-85673371D01*
X68650693Y-85460931D01*
X68672453Y-85240000D01*
X68672453Y-82240000D01*
X68650693Y-82019069D01*
X68586250Y-81806629D01*
X68481600Y-81610843D01*
X68340765Y-81439235D01*
X68169157Y-81298400D01*
X67973371Y-81193750D01*
X67760931Y-81129307D01*
X67540000Y-81107547D01*
X67188917Y-81107547D01*
X67284351Y-81068017D01*
X67714615Y-80780524D01*
X68080524Y-80414615D01*
X68106994Y-80375000D01*
X72982762Y-80375000D01*
X74565000Y-81957239D01*
%TA.AperFunction,Conductor*%
D22*
G36*
X74565000Y-81957239D02*
G01*
X74565001Y-90089671D01*
X74557089Y-90170000D01*
X74588658Y-90490516D01*
X74682148Y-90798714D01*
X74803348Y-91025462D01*
X74833970Y-91082752D01*
X75038287Y-91331714D01*
X75100682Y-91382920D01*
X77332761Y-93615000D01*
X76877239Y-93615000D01*
X76302924Y-93040686D01*
X76251714Y-92978286D01*
X76002752Y-92773969D01*
X75718715Y-92622148D01*
X75410516Y-92528657D01*
X75170322Y-92505000D01*
X75170319Y-92505000D01*
X75090000Y-92497089D01*
X75009681Y-92505000D01*
X68106994Y-92505000D01*
X68080524Y-92465385D01*
X67714615Y-92099476D01*
X67284351Y-91811983D01*
X66806268Y-91613954D01*
X66298737Y-91513000D01*
X65781263Y-91513000D01*
X65273732Y-91613954D01*
X64795649Y-91811983D01*
X64365385Y-92099476D01*
X63999476Y-92465385D01*
X63711983Y-92895649D01*
X63513954Y-93373732D01*
X63413000Y-93881263D01*
X63413000Y-94398737D01*
X63513954Y-94906268D01*
X63711983Y-95384351D01*
X63999476Y-95814615D01*
X64365385Y-96180524D01*
X64795649Y-96468017D01*
X65210852Y-96640000D01*
X64795649Y-96811983D01*
X64365385Y-97099476D01*
X63999476Y-97465385D01*
X63711983Y-97895649D01*
X63513954Y-98373732D01*
X63413000Y-98881263D01*
X63413000Y-99398737D01*
X63513954Y-99906268D01*
X63711983Y-100384351D01*
X63999476Y-100814615D01*
X64365385Y-101180524D01*
X64795649Y-101468017D01*
X64891083Y-101507547D01*
X64540000Y-101507547D01*
X64319069Y-101529307D01*
X64106629Y-101593750D01*
X63910843Y-101698400D01*
X63739235Y-101839235D01*
X63598400Y-102010843D01*
X63493750Y-102206629D01*
X63429307Y-102419069D01*
X63407547Y-102640000D01*
X63407547Y-104460214D01*
X62595000Y-105272761D01*
X62595000Y-90631653D01*
X64727952Y-90631653D01*
X64883962Y-90947214D01*
X65258745Y-91138020D01*
X65663551Y-91252044D01*
X66082824Y-91284902D01*
X66500451Y-91235334D01*
X66900383Y-91105243D01*
X67196038Y-90947214D01*
X67352048Y-90631653D01*
X66040000Y-89319605D01*
X64727952Y-90631653D01*
X62595000Y-90631653D01*
X62595000Y-89497238D01*
X62909414Y-89182824D01*
X63895098Y-89182824D01*
X63944666Y-89600451D01*
X64074757Y-90000383D01*
X64232786Y-90296038D01*
X64548347Y-90452048D01*
X65860395Y-89140000D01*
X66219605Y-89140000D01*
X67531653Y-90452048D01*
X67847214Y-90296038D01*
X68038020Y-89921255D01*
X68152044Y-89516449D01*
X68184902Y-89097176D01*
X68135334Y-88679549D01*
X68005243Y-88279617D01*
X67847214Y-87983962D01*
X67531653Y-87827952D01*
X66219605Y-89140000D01*
X65860395Y-89140000D01*
X64548347Y-87827952D01*
X64232786Y-87983962D01*
X64041980Y-88358745D01*
X63927956Y-88763551D01*
X63895098Y-89182824D01*
X62909414Y-89182824D01*
X64443891Y-87648347D01*
X64727952Y-87648347D01*
X66040000Y-88960395D01*
X67352048Y-87648347D01*
X67196038Y-87332786D01*
X66821255Y-87141980D01*
X66416449Y-87027956D01*
X65997176Y-86995098D01*
X65579549Y-87044666D01*
X65179617Y-87174757D01*
X64883962Y-87332786D01*
X64727952Y-87648347D01*
X64443891Y-87648347D01*
X65719786Y-86372453D01*
X67540000Y-86372453D01*
X67760931Y-86350693D01*
X67973371Y-86286250D01*
X68169157Y-86181600D01*
X68340765Y-86040765D01*
X68481600Y-85869157D01*
X68586250Y-85673371D01*
X68650693Y-85460931D01*
X68672453Y-85240000D01*
X68672453Y-82240000D01*
X68650693Y-82019069D01*
X68586250Y-81806629D01*
X68481600Y-81610843D01*
X68340765Y-81439235D01*
X68169157Y-81298400D01*
X67973371Y-81193750D01*
X67760931Y-81129307D01*
X67540000Y-81107547D01*
X67188917Y-81107547D01*
X67284351Y-81068017D01*
X67714615Y-80780524D01*
X68080524Y-80414615D01*
X68106994Y-80375000D01*
X72982762Y-80375000D01*
X74565000Y-81957239D01*
G37*
%TD.AperFunction*%
%TD*%
M02*
