M48
; DRILL file {KiCad (5.1.10)-1} date 10/19/21 20:43:47
; FORMAT={-:-/ absolute / metric / decimal}
; #@! TF.CreationDate,2021-10-19T20:43:47-03:00
; #@! TF.GenerationSoftware,Kicad,Pcbnew,(5.1.10)-1
; #@! TF.FileFunction,Plated,1,2,PTH
FMAT,2
METRIC
T1C0.800
T2C0.850
T3C1.000
T4C1.500
%
G90
G05
T1
X73.66Y-154.94
X83.82Y-154.94
X98.425Y-154.94
X107.95Y-92.71
X107.95Y-115.57
X108.585Y-154.94
X118.11Y-92.71
X118.11Y-115.57
T2
X81.28Y-63.246
X81.28Y-65.786
X81.28Y-68.326
X81.28Y-70.866
X81.28Y-73.406
X81.28Y-75.946
X81.28Y-78.486
X81.28Y-81.026
X81.28Y-83.566
X81.28Y-86.106
X81.28Y-90.17
X81.28Y-92.71
X81.28Y-95.25
X81.28Y-97.79
X81.28Y-100.33
X81.28Y-102.87
X81.28Y-105.41
X81.28Y-107.95
X81.28Y-113.03
X81.28Y-115.57
X81.28Y-118.11
X81.28Y-120.65
X81.28Y-123.19
X81.28Y-125.73
X81.28Y-128.27
X81.28Y-130.81
X81.28Y-138.43
X81.28Y-140.97
X83.82Y-138.43
X83.82Y-140.97
X86.36Y-138.43
X86.36Y-140.97
X88.9Y-138.43
X88.9Y-140.97
X91.44Y-138.43
X91.44Y-140.97
X93.98Y-138.43
X93.98Y-140.97
X96.52Y-138.43
X96.52Y-140.97
X99.06Y-138.43
X99.06Y-140.97
X101.6Y-138.43
X101.6Y-140.97
X104.14Y-138.43
X104.14Y-140.97
X106.68Y-138.43
X106.68Y-140.97
X109.22Y-138.43
X109.22Y-140.97
X111.76Y-138.43
X111.76Y-140.97
X114.3Y-138.43
X114.3Y-140.97
X116.84Y-138.43
X116.84Y-140.97
X119.38Y-138.43
X119.38Y-140.97
X121.92Y-138.43
X121.92Y-140.97
X124.46Y-138.43
X124.46Y-140.97
X129.54Y-72.39
X129.54Y-74.93
X129.54Y-77.47
X129.54Y-80.01
X129.54Y-82.55
X129.54Y-85.09
X129.54Y-87.63
X129.54Y-90.17
X129.54Y-95.25
X129.54Y-97.79
X129.54Y-100.33
X129.54Y-102.87
X129.54Y-105.41
X129.54Y-107.95
X129.54Y-110.49
X129.54Y-113.03
X129.54Y-118.11
X129.54Y-120.65
X129.54Y-123.19
X129.54Y-125.73
X129.54Y-128.27
X129.54Y-130.81
X129.54Y-133.096
X129.54Y-135.636
T3
X113.665Y-152.4
X113.665Y-154.94
X121.92Y-153.67
X124.46Y-153.67
X127.0Y-153.67
X129.54Y-153.67
X132.08Y-153.67
X134.62Y-153.67
X137.795Y-102.87
X137.795Y-105.41
X137.795Y-115.57
X137.795Y-118.11
X139.065Y-52.07
X139.065Y-54.61
X139.065Y-57.15
X139.065Y-59.69
T4
X66.04Y-48.5
X66.04Y-53.5
X66.04Y-58.5
X66.04Y-63.5
X66.04Y-68.74
X66.04Y-73.74
X66.04Y-78.74
X66.04Y-83.74
X66.04Y-89.14
X66.04Y-94.14
X66.04Y-99.14
X66.04Y-104.14
X66.04Y-109.46
X66.04Y-114.46
X66.04Y-119.46
X66.04Y-124.46
X88.9Y-154.94
X93.9Y-154.94
T0
M30
